<?xml version="1.0" standalone="no"?>
<!DOCTYPE svg PUBLIC "-//W3C//DTD SVG 20010904//EN"
 "http://www.w3.org/TR/2001/REC-SVG-20010904/DTD/svg10.dtd">
<svg version="1.0" xmlns="http://www.w3.org/2000/svg"
 width="1559.000000pt" height="1559.000000pt" viewBox="0 0 1559.000000 1559.000000"
 preserveAspectRatio="xMidYMid meet">
<metadata>
Created by potrace 1.14, written by Peter Selinger 2001-2017
</metadata>
<g transform="translate(0.000000,1559.000000) scale(0.100000,-0.100000)"
fill="#000000" stroke="none">
<path d="M6932 14362 c-5 -14 27 -250 78 -577 10 -66 21 -138 24 -160 4 -37
53 -366 126 -860 45 -305 170 -1152 175 -1188 8 -59 55 -381 75 -512 11 -71
33 -224 50 -340 17 -115 41 -282 55 -370 13 -88 26 -178 29 -200 3 -22 19
-132 36 -245 17 -113 35 -234 40 -270 8 -56 82 -562 95 -645 37 -253 49 -331
66 -450 11 -77 24 -167 29 -200 5 -33 11 -73 14 -90 2 -16 9 -64 16 -107 l12
-76 32 3 c17 2 34 4 37 4 3 1 9 22 12 49 4 26 9 63 13 82 9 55 140 861 180
1105 19 121 53 326 74 455 22 129 42 253 45 275 3 22 8 51 11 65 6 32 9 48 34
210 12 74 33 199 46 277 13 79 26 158 29 175 3 29 81 504 201 1233 19 116 37
226 40 245 33 210 97 603 109 670 8 47 17 99 19 115 3 17 19 116 36 220 17
105 49 300 71 435 22 135 42 259 46 275 6 29 7 29 15 -15 4 -25 28 -171 53
-325 25 -154 48 -291 50 -305 17 -103 85 -513 89 -545 4 -22 34 -204 67 -405
33 -201 62 -381 65 -400 3 -19 19 -116 35 -215 36 -222 59 -362 65 -396 21
-133 237 -1453 249 -1519 2 -14 27 -166 54 -337 28 -172 53 -325 56 -340 3
-22 137 -841 161 -988 13 -80 17 -94 29 -99 8 -3 16 3 19 12 3 9 46 226 96
482 140 715 294 1501 365 1860 35 179 76 385 91 459 14 74 27 141 29 150 19
98 108 552 111 571 3 14 7 32 9 40 2 8 7 29 9 45 3 17 24 125 47 240 22 116
43 221 46 235 2 14 33 171 68 350 36 179 67 344 71 368 4 24 10 40 14 35 7 -7
23 -79 44 -193 2 -14 21 -108 41 -210 20 -102 39 -196 41 -210 2 -14 9 -47 15
-75 5 -27 28 -142 50 -255 22 -113 42 -214 45 -225 8 -39 24 -124 104 -535 44
-228 85 -433 90 -455 9 -37 142 -721 154 -790 3 -16 19 -97 36 -180 17 -82 33
-163 35 -180 3 -16 12 -61 20 -100 16 -75 174 -883 181 -925 3 -14 12 -59 20
-100 9 -41 18 -86 20 -100 11 -61 56 -287 60 -302 3 -11 13 -15 32 -13 15 2
30 4 35 4 4 1 7 7 7 14 0 8 63 216 140 463 78 247 161 514 186 594 25 80 58
186 74 235 16 50 51 162 79 250 27 88 72 232 100 320 27 88 68 219 90 290 22
72 87 281 144 465 58 184 116 372 130 417 l25 82 -65 97 c-176 265 -400 553
-618 793 -60 66 -372 380 -430 432 -135 121 -239 210 -319 274 -48 39 -93 75
-99 80 -43 38 -279 208 -420 302 -392 262 -790 473 -1242 658 -121 50 -287
112 -430 160 -486 166 -1132 299 -1645 340 -41 3 -84 8 -95 10 -17 3 -173 10
-463 19 -68 3 -85 0 -90 -12z"/>
<path d="M3515 12003 c-694 -54 -1295 -451 -1591 -1053 -158 -323 -209 -741
-134 -1103 37 -181 101 -349 197 -522 110 -196 325 -434 518 -572 342 -243
740 -368 1170 -365 254 1 486 47 721 141 581 232 1014 737 1128 1317 26 135
27 145 31 314 5 180 -14 345 -56 490 -11 41 -22 80 -23 85 -2 6 -7 19 -11 30
-4 11 -20 52 -36 90 -36 92 -72 163 -131 258 -334 542 -943 881 -1598 891 -80
1 -163 0 -185 -1z"/>
<path d="M14472 10723 c-67 -225 -228 -759 -357 -1188 -130 -429 -237 -787
-239 -795 -5 -19 -42 -144 -105 -350 -141 -469 -195 -650 -209 -700 l-15 -55
71 -220 c60 -189 269 -847 349 -1100 14 -44 38 -118 53 -165 15 -47 51 -159
80 -250 92 -292 167 -529 245 -775 42 -132 88 -276 102 -320 71 -228 146 -461
150 -465 6 -7 31 27 117 155 121 183 259 434 336 615 17 41 38 89 45 105 63
142 169 436 225 630 73 251 168 694 195 905 24 197 35 298 41 375 4 50 8 93
10 96 5 9 18 387 18 534 0 72 -4 216 -8 320 -4 105 -8 197 -8 205 0 8 -4 51
-9 95 -4 44 -10 112 -14 150 -7 86 -31 259 -51 380 -8 50 -17 104 -20 120 -3
17 -9 48 -14 70 -5 22 -11 56 -14 75 -12 81 -112 457 -163 615 -139 427 -336
850 -536 1150 -54 82 -140 195 -147 195 -3 0 -61 -183 -128 -407z"/>
<path d="M10 7260 c0 -6 51 -167 114 -358 63 -191 153 -466 201 -612 47 -146
90 -274 95 -285 5 -11 36 -105 69 -210 59 -182 106 -325 366 -1115 64 -195
120 -359 124 -363 6 -6 28 45 36 83 0 3 63 194 139 425 76 231 158 479 181
550 159 484 414 1259 446 1355 21 63 36 117 33 119 -4 4 -245 61 -1174 276
-206 47 -422 98 -480 112 -143 34 -150 35 -150 23z"/>
<path d="M7839 7258 c0 -7 -2 -24 -5 -38 -6 -36 -23 -149 -28 -190 -3 -19 -14
-96 -25 -170 -11 -74 -23 -153 -26 -175 -3 -22 -8 -51 -10 -65 -3 -14 -7 -42
-10 -62 -3 -21 -7 -53 -9 -70 -3 -18 -16 -110 -30 -205 -14 -94 -28 -189 -31
-210 -3 -21 -8 -49 -10 -63 -2 -14 -7 -45 -10 -70 -3 -25 -10 -72 -15 -105 -5
-33 -12 -76 -14 -95 -15 -105 -58 -394 -67 -450 -14 -91 -17 -108 -24 -165 -3
-27 -12 -90 -20 -140 -8 -49 -30 -199 -50 -333 -19 -133 -37 -255 -39 -270 -3
-15 -17 -108 -31 -207 -14 -99 -28 -191 -30 -205 -5 -32 -42 -284 -61 -415 -7
-55 -16 -113 -18 -130 -3 -16 -10 -64 -16 -105 -6 -41 -13 -86 -15 -99 -2 -13
-7 -45 -11 -70 -3 -25 -8 -57 -10 -71 -2 -14 -11 -72 -19 -130 -8 -58 -17
-119 -20 -136 -6 -41 -64 -430 -69 -469 -10 -65 -37 -252 -42 -290 -3 -22 -7
-47 -9 -55 -2 -8 -7 -36 -10 -62 -5 -47 -8 -71 -25 -183 -13 -84 -17 -109 -45
-300 -14 -93 -27 -185 -31 -204 l-5 -34 203 7 c112 3 223 8 248 11 25 2 86 6
135 10 129 9 345 34 515 61 608 93 1228 274 1790 521 565 249 1203 641 1621
998 19 16 62 53 94 80 212 179 520 482 682 671 23 27 54 63 68 79 15 17 61 73
103 125 42 52 79 97 82 100 3 3 41 52 83 110 43 58 84 113 92 123 8 9 15 20
15 23 0 3 13 23 28 43 15 20 51 73 80 117 l53 81 -87 259 c-48 143 -255 759
-459 1369 -205 611 -380 1133 -390 1160 -32 97 -36 105 -60 105 -29 0 -8 93
-235 -1045 -20 -98 -26 -127 -34 -162 -2 -10 -16 -76 -30 -148 -14 -71 -122
-611 -241 -1200 -118 -588 -217 -1079 -219 -1090 -2 -11 -23 -112 -46 -225
-23 -113 -43 -214 -46 -225 -27 -132 -36 -180 -40 -203 -16 -87 -95 -469 -100
-482 -5 -12 -63 245 -97 430 -3 14 -35 174 -72 355 -37 182 -69 339 -71 350
-2 11 -105 524 -229 1140 -124 616 -286 1422 -360 1790 -74 369 -137 680 -140
693 -10 41 -23 22 -35 -50 -14 -87 -14 -90 -40 -243 -12 -66 -23 -131 -25
-145 -2 -14 -16 -92 -30 -175 -14 -82 -27 -161 -30 -175 -4 -31 -18 -113 -20
-120 -1 -3 -5 -30 -10 -60 -5 -30 -9 -57 -10 -60 0 -3 -4 -26 -8 -51 -4 -25
-10 -57 -12 -70 -2 -13 -20 -121 -40 -239 -20 -118 -38 -226 -41 -240 -5 -33
-44 -258 -49 -290 -9 -53 -179 -1061 -231 -1370 -110 -649 -244 -1446 -249
-1485 -4 -22 -8 -47 -10 -55 -3 -8 -7 -33 -11 -55 -3 -22 -25 -155 -49 -295
-24 -140 -53 -317 -66 -393 -12 -75 -24 -136 -26 -133 -4 3 -87 481 -98 561
-3 22 -10 63 -15 90 -5 28 -32 187 -60 355 -28 168 -53 316 -56 330 -2 14 -22
131 -44 260 -21 129 -50 300 -64 380 -14 80 -27 159 -30 175 -3 17 -46 273
-96 570 -114 676 -189 1122 -195 1155 -2 14 -38 225 -79 470 -41 245 -77 459
-80 475 -3 17 -8 46 -11 65 -3 19 -36 215 -73 435 l-68 400 -42 3 c-29 2 -42
-1 -43 -10z"/>
<path d="M2064 6773 c2 -10 17 -76 31 -148 15 -71 53 -260 86 -420 33 -159 66
-321 74 -360 8 -38 37 -180 65 -315 28 -135 55 -265 60 -290 5 -25 49 -243 99
-485 49 -242 92 -451 95 -465 2 -14 16 -81 31 -150 28 -133 124 -600 205 -995
27 -132 70 -339 95 -460 24 -121 45 -224 45 -230 0 -6 3 -6 9 0 5 6 18 55 30
110 11 55 54 267 96 470 42 204 109 532 150 730 41 198 108 527 150 730 91
441 76 368 124 605 39 189 106 516 210 1020 28 134 51 252 51 261 0 13 -20 22
-87 38 -49 11 -284 65 -523 121 -239 55 -523 121 -630 146 -499 117 -474 112
-466 87z"/>
<path d="M4125 6298 c3 -7 55 -308 116 -668 61 -360 135 -797 165 -970 29
-173 56 -328 59 -345 3 -16 10 -57 15 -90 6 -33 23 -136 39 -230 16 -93 32
-183 34 -200 3 -16 10 -57 15 -90 6 -33 13 -73 15 -90 3 -16 26 -149 51 -295
25 -146 68 -400 96 -565 28 -165 64 -379 81 -475 16 -96 32 -188 35 -205 3
-16 27 -160 55 -320 27 -159 49 -294 49 -300 0 -5 4 -3 9 5 7 13 18 64 36 180
2 14 47 279 100 590 53 311 98 579 101 595 2 17 9 53 14 80 5 28 37 212 70
410 34 198 72 425 86 505 14 80 32 183 40 230 7 47 16 94 18 105 2 11 7 40 11
65 4 25 9 54 11 65 2 11 19 115 39 230 20 116 65 383 101 595 35 212 71 421
79 465 8 44 17 96 20 115 3 19 14 82 24 140 10 58 16 108 12 112 -3 4 -17 9
-31 12 -28 5 -443 101 -505 116 -50 13 -553 130 -580 136 -11 2 -118 26 -238
54 -238 54 -249 56 -242 38z"/>
</g>
</svg>
