<svg xmlns="http://www.w3.org/2000/svg" viewBox="0 0 978 144"><g id="Layer_2" data-name="Layer 2"><g id="Layer_1-2" data-name="Layer 1"><path d="M813.39,39.84c-2,5-3.37,10.38-6.2,14.85-4.45,7-3.88,9.48,4.45,10.89,10.62,1.8,19.8,6.84,29,12A72.76,72.76,0,0,0,847.09,81c9.5,4.13,14.78,12.43,15,22.87.13,6.45.7,12.9-2.88,18.67a40.89,40.89,0,0,1-5.8,7.31c-2.06,2-5.08,3.18-6.87,5.37-4.85,5.95-11.28,6.13-18,5.69-4.91-.32-7.8-4.3-8.29-10.64-.47-6.11,2-11.22,5.51-15.74,2.41-3.11,1.35-4.81-1.29-6.27-7.75-4.29-15.89-8-23.31-12.74-8.14-5.23-15.77-11.26-23.38-17.24-7-5.45-10.3-19.54-6.82-27.67A113.52,113.52,0,0,1,776.65,39c6.89-12.1,18.76-12,30.5-12,4.63,0,3.7,4.34,4.74,6.92.63,1.56.11,3.59.11,5.4Z"/><path d="M305,43.22c3.94-2.13,6.49.17,8.56,3.48,7,11.17,13.8,22.44,21,33.46,2.17,3.31,5.58,5.79,8.08,8.92,5.08,6.34,9.89,12.91,14.92,19.3a23.87,23.87,0,0,0,4.83,4.85c8,5.68,11.39,19.45,5.77,27.37-1.38,2-5.58,2.68-8.47,2.67a144.65,144.65,0,0,1-17.59-1.62,6.8,6.8,0,0,1-4.2-2.12q-11.82-15.3-23.29-30.83C306.39,97.55,298.69,86,290,75.2c-6.56-8.1-14.47-15.1-21.55-22.79a89.5,89.5,0,0,1-8.67-11.27c-2.83-4.29-.22-8.22,2.1-11.59S267.67,24.1,272,25a8,8,0,0,1,4.45,2.59c4.89,6.34,9.19,13.16,14.41,19.2,1.68,1.93,5.83,3.17,8.32,2.57C301.51,48.82,303.11,45.39,305,43.22Z"/><path d="M178.41,141.88c-10,.52-19.26-3.11-26.92-8.47-8.37-5.87-13.89-14.7-17.68-24.63a74.7,74.7,0,0,1-4.68-28.64,57.66,57.66,0,0,1,4.08-19.08c3.9-10.42,10.64-18.25,17.44-26.33a12.25,12.25,0,0,1,5.59-3.82C163,29,170,27.46,176.87,26c4.43-1,7,1.36,8.63,5.28,2.95,7.1,2.66,14.33.93,21.54-.3,1.25-2.24,2.21-3.55,3.11-2.82,1.92-5.94,3.46-8.56,5.61-7.13,5.87-8.51,14.4-9.43,22.76-.52,4.79-.85,10.44,1.21,14.46,2.33,4.56,6.87,8.73,11.45,11.24,5.45,3,8.3,6.71,9.17,12.54.45,3,1.28,6,2,9,1.63,7.12-.94,10.35-8.28,10.39Z"/><path d="M59.92,42.18c-.12,13.57-7,21.84-15.76,29.28A18,18,0,0,0,39,79.12a28.58,28.58,0,0,0,2.17,23.13c1.94,3.49,6.4,5.81,10.07,8.1,7.4,4.62,10.23,20,5.62,26.7-3.12,4.56-7.71,6.45-13.42,4.54-15.62-5.22-27.55-14.45-34.5-30A74,74,0,0,1,2.1,81.1C2,64.69,8.86,51.17,21.46,41.24c7.41-5.83,16.38-9.88,25-13.94,5.52-2.59,10.72.61,12.22,6.6A69.66,69.66,0,0,1,59.92,42.18Z"/><path d="M698.2,24.94c2.82,0,5.65,0,8.48,0,6.52,0,10.8,4.09,12.62,10.52,1.56,5.52,4.18,10.74,6.28,16.12q6.93,17.76,13.78,35.55c1,2.7,2.37,5.45,2.61,8.26.67,8.09,4.85,14.56,8.84,21.24,3.25,5.43,7.06,10.9,5.26,17.81-1.11,4.29-3.74,7.18-8.54,7.44A58,58,0,0,1,724.76,139c-3.13-1.1-4.51-2.89-5.52-6-1.9-6-4.62-11.64-7-17.45-.3-.73-.64-1.45-.9-2.2C706,98.26,701.15,83,695.23,68.23c-3-7.4-7.55-14.22-11.88-21-2.66-4.17-4.35-15.5-1.43-19.11,1.34-1.66,4.07-2.68,6.32-3,3.25-.5,6.63-.13,10-.13Z"/><path d="M250.51,81.92c.44,16-6.24,29.38-14.56,41.88-2.5,3.76-8.27,5.42-12.62,7.9a125.52,125.52,0,0,1-12.76,6.76c-3.67,1.57-7.92,3.57-11.5,3-2.36-.4-4.91-4.84-5.74-7.91-1.45-5.37-3.24-11.18.67-16.49,1.54-2.1,2.78-4.88,4.88-6C212,103.83,217,92.55,215.75,78.42c-.89-10.24-7.47-17.16-16.21-21.76-3.79-2-6.1-4-5.62-8.44.71-6.64,1-13.35,2.3-19.87.3-1.49,4.07-3.4,6.1-3.26,11.82.86,22.81,3.88,30.81,13.63,6,7.31,11.24,15.11,14,24.11C249,69,249.43,75.54,250.51,81.92Z"/><path d="M559.25,29.11c9,7.39,17.82,15.07,27.17,22a125,125,0,0,0,19.73,11.62c3,1.47,7,1,11.16,1.53-.27,10.29-3.48,19.67-10.23,27.43-2.16,2.48-6.53,3.07-10.7,4.87-1.08,5.53,3.76,9.51,7.08,13.65,4.64,5.8,10.53,10.59,15.36,16.25a15.4,15.4,0,0,1,3.25,8.4c.3,3.86-2.47,6.63-6.26,6.89-4.56.32-9.2-.36-13.8-.54-3.82-.15-7.65,0-11.45-.35-1.47-.12-3.41-.68-4.24-1.74-6.72-8.54-13.2-17.27-19.81-25.91-2.08-2.71-4.21-5.42-6.53-7.92-4.32-4.66-4.06-9.86-2.63-15.51,1.07-4.23,1-8.79,2.39-12.88.72-2.11,3.3-3.93,5.47-5.11,1.41-.77,3.58-.09,5.41-.17,5.59-.27,10.21-5.1,9.74-10.57a4.54,4.54,0,0,0-2.72-3.26,63.74,63.74,0,0,0-10.7-1.21c-6.61-.28-12.53-6-12.35-12.64C554.73,38.58,552.83,32.46,559.25,29.11Z"/><path d="M460.72,43.13c-1.11,15-2.65,30-3.18,45-.39,11.17.49,22.38.91,33.57.12,3.08.87,6.14.93,9.22.13,6.42-2.35,9.4-8.65,9.93-6.89.59-13.83.69-20.75,1-2.37.12-3.34-.6-4.58-3.07-4.5-8.91-1.82-17.93-1.57-26.93.09-3.5-.22-7-.05-10.5q.42-8.8,1.24-17.58c.41-4.51,1.24-9,1.64-13.5a139.05,139.05,0,0,0,.91-15.65c-.1-4.51-1.4-9-1.58-13.5a39.92,39.92,0,0,1,1-11.55c.4-1.52,3.11-3.33,4.86-3.44,4.92-.32,9.88.19,14.83.37a35.6,35.6,0,0,0,6.35.15c4.89-.72,7.32,1.13,7.35,6,0,3.47,0,6.94,0,10.41Z"/><path d="M697.76,126c-3.81-.45-9.32-1.58-14.82-1.55-2.42,0-5.27,1.93-7.11,3.78-1.59,1.61-2,4.35-3,6.58-3.18,7.38-5.06,8.29-13.12,7.14-5.82-.84-11.68-1.46-17.53-1.95-4.85-.41-8.71-5.1-7.17-9.8,1.75-5.33,4.26-10.4,6.31-15.64,2.45-6.25,4.7-12.57,7.16-18.81,1-2.54,2.33-4.94,3.5-7.41,3.84-8,8.19-15.88,11.33-24.18,2.06-5.44,3.62-11,7.61-15.35a28.91,28.91,0,0,1,4.41-3.35c1.28,1.7,3,3.22,3.76,5.13,2.37,5.9,3.45,12.52,6.75,17.79,5,7.92,3.42,15-.49,22.13-2,3.72-1,4.67,2.6,5a87.68,87.68,0,0,1,9.74,1.11A5.44,5.44,0,0,1,701.18,99c2.82,5.73,6.33,11.4,7.71,17.51C710.58,124.05,708.19,125.79,697.76,126Z"/><path d="M293.47,109.07c-1,8.06-1.86,16.14-2.9,24.19a10,10,0,0,1-11,8.55,89.5,89.5,0,0,1-16.14-3.26c-1.54-.45-3.13-3.1-3.43-5-2.12-13.08-.39-26.09.58-39.18.52-7-1.39-14.09-2.32-21.13-.67-5.09-.7-9.81,2.44-14.45,2.28-3.37,4.25-2.12,5.81-.3,7.08,8.25,13.63,17,20.95,25,3.84,4.21,5.75,8.43,5.25,14-.33,3.77-.06,7.59-.06,11.39Z"/><path d="M370.6,107.67c-2.66-3-5.15-6.16-8-8.94a108.42,108.42,0,0,0-9.05-7.5c-4.71-3.67-7.1-7.82-7.06-14.34,0-8-1.94-16.07-3.13-24.09-.78-5.28-1.75-10.54-2.58-15.82-.81-5.13,2.6-7.2,6.56-9s6.34-.56,8.4,3c1.56,2.73,7.06,2.64,9.18.22a3,3,0,0,1,.3-.38l5.89-3.76c1.13,2.41,3.12,4.78,3.23,7.23.23,5.53-.54,11.1-.78,16.66-.38,9-.82,18.06-.93,27.09-.06,4.4.91,8.81.81,13.21-.12,5.47-.86,10.92-1.34,16.38Z"/><path d="M116.11,50.6c-.59,5.31-.6,9-1.55,12.37a8,8,0,0,1-4.09,4.31,61.85,61.85,0,0,1-12.7,4.53c-3.43.73-7.6,1.28-10.62,0a40.67,40.67,0,0,1-19-17.21c-5.65-9.62-4-20.07,4.07-28.53,1.56-1.63,5.77-.84,8.77-1,.75,0,1.56.85,2.28.78,14.55-1.53,20.52,11.1,29.83,18.07C115.19,45.45,115.54,49.23,116.11,50.6Z"/><path d="M513.71,38.38c.9-9.5,4.93-13.47,14.28-13.47,4.65,0,9.35.39,14-.08,5.74-.58,9.8,6.17,8.74,11.26a79.11,79.11,0,0,0-1.32,12.12q-.69,13-1,26.09c-.14,5.47.08,11-.09,16.42,0,1.46-.93,2.9-1.44,4.35a21.45,21.45,0,0,1-3.22-2.84c-4.35-5.67-8.75-11.31-12.8-17.2a109.13,109.13,0,0,1-6-10.86c-2.48-4.64-5.14-9.22-7.25-14C515.86,46.38,515,42.31,513.71,38.38Z"/><path d="M63,123.84c-.8-6.16,1-11.54,9-14.44A23.12,23.12,0,0,0,84,99.18c4.16-7,9.8-6.22,15.8-3.7,4.16,1.74,8.17,3.86,12.16,6s5.41,8.07,3.13,13a40.52,40.52,0,0,1-22.17,20.81c-6.2,2.52-13.1,3.7-19.81,4.51-6,.73-9.66-3.12-10-9.2C63,128.71,63,126.89,63,123.84Z"/><path d="M815.87,130.66c-1.31,3.26-2.54,6.56-4,9.74a3.31,3.31,0,0,1-2.34,1.42c-13.61,1.59-26.08-1-34.83-12.19-3.77-4.82-5.72-11.13-8-17-.52-1.33.91-3.52,1.68-5.21,2.78-6.1,7.2-7.92,13.81-6.63a98.35,98.35,0,0,0,14.65,1.54c4,.18,5.81,1.63,6.43,5.72a12.36,12.36,0,0,0,3.89,6.57C812.23,119.29,815.06,124.36,815.87,130.66Z"/><path d="M932.27,75.31c-9-6.81-18-13.44-26.79-20.41-1.38-1.1-2-3.67-2.2-5.64a150.16,150.16,0,0,1-1-15.13c-.08-5.72,4-9.44,9.61-9.15,5.4.27,10.8.71,16.21.89,6,.21,8.91,2.42,8.76,8.4-.23,9.11-1.23,18.2-1.84,27.31-.14,2.13-.6,4.47,0,6.39C936.21,71.43,934.81,73.42,932.27,75.31Z"/><path d="M516.45,90.19c2.32,2.58,5,4.91,6.9,7.76a91.86,91.86,0,0,0,23.8,24.7c4.08,2.84,3.33,7.23,3.08,11.26s-3.43,5.36-6.65,5.81c-7,1-14,1.76-21,2.09-6.76.31-10.13-3.51-9.93-10.07.37-11.66.56-23.33,1-35a44.15,44.15,0,0,1,1.09-6.28Z"/><path d="M901.39,97.92c2.29,1.44,3.46,2,4.48,2.83,9.1,7,18.2,14.07,27.24,21.18,3.85,3,3.13,7.38,2.62,11.39-.61,4.8-3.89,7.2-8.61,7.57-5.41.42-10.83.77-16.25,1-9,.36-11.73-2.11-11.63-11.21.08-7,.72-14,1.17-21C900.64,106,901,102.37,901.39,97.92Z"/><path d="M821.26,41c0-2,0-4,0-5.95,0-6,2.09-8.64,8.82-10,4.58-.9,7.25,1.93,9.54,5.7,2.15,3.52,5.08,6.59,7.74,9.79,3.59,4.33,7.33,8.54,10.88,12.91,2.72,3.34.39,12.17-3.82,12.58-6,.6-12.13,0-18.12-.8-1.79-.23-3.36-2.67-4.88-4.24-1.35-1.4-2.21-3.81-3.79-4.36-7.08-2.47-6.59-8.07-6.37-13.7C821.28,42.3,821.26,41.64,821.26,41Z"/><path d="M422.89,44.48c-.48,3.87-1.1,7.72-1.4,11.59-.27,3.38-2.07,4.39-5.23,4.47-6.24.16-12.48.78-18.72.75a5.78,5.78,0,0,1-4.27-2.87c-4.35-9.6-4.59-19.31.62-28.73A5.71,5.71,0,0,1,397.6,27c5.21-.61,10.49-.69,15.73-1.14,4.63-.4,8.86,4.34,9.13,10.6.11,2.64,0,5.28,0,7.93Z"/><path d="M950,27.22c4.75,0,9.54-.37,14.22.17,2,.23,4.85,2,5.44,3.71,3.22,9.32,2.15,18.39-3.55,26.59-1.62,2.33-3.72,4.05-7.45,3-3.07-.88-6.61-.34-9.93-.14-4.56.27-6.34-2.46-6.55-6.22-.39-7.24-.42-14.5-.47-21.75C941.73,29.15,945.1,27,950,27.22Z"/><path d="M465.61,43.48q0-3.21,0-6.42c0-3.92-.6-8.38,4.14-10,5.57-1.9,11.82.38,14.47,5.13a105.12,105.12,0,0,1,7.29,15.17c2.9,8-.93,13-9.3,13.09-3.31,0-6.64-.15-9.94.09-4.61.33-6.2-2.49-6.56-6.19s-.08-7.24-.08-10.87Z"/><path d="M896.42,47.12c-4.65-5.24-9.32-10.46-13.89-15.77-.37-.43-.22-2.07.1-2.2,2.74-1.2,5.52-2.76,8.38-3,1.56-.11,4.38,1.9,4.77,3.43,1.4,5.37,2,10.93,2.9,16.42Z"/></g></g></svg>