<svg xmlns="http://www.w3.org/2000/svg" viewBox="0 0 1033 816"><defs><style>.cls-1{opacity:0.5;}.cls-2{fill:#7ff86f;}.cls-3{fill:#3c6e36;}</style></defs><g id="Layer_2" data-name="Layer 2"><g id="Layer_1-2" data-name="Layer 1"><g class="cls-1"><path class="cls-2" d="M338.59,159a.66.66,0,0,1-.13.72c-.63.86-1.6,1.63-1.82,2.57-4.07,16.89-7.85,33.85-12.11,50.69-3.71,14.72-3.9,29.5-1.78,44.39.25,1.79,1.21,4.06,2.59,5,6.54,4.58,8.72,10.79,8.41,18.49a217.73,217.73,0,0,0,.07,22.42c.24,3.78.32,8.5,5.91,9.24l0,0,4,3-.05,0,3.05,2-.05,0,3,2,0,0,3,2,0,0c.43,1,.81,2,1.3,3,3.56,7.15,8.1,14.52,6.4,22.6-4,19-9,37.77-13.8,56.59-.24.92-2.41,2.14-3.44,1.94-3.85-.74-7.6-2.05-11.4-3.08-15.31-4.19-30.76-1.45-46.15-.87-6.39.23-6.62.14-5.36-6.43,1.55-8.11,3.45-16.2,4.18-24.39a136,136,0,0,0,0-24.79c-.72-7.54-2.15-15.51-8.64-20.57-3.86-3-8.6-5-13.21-6.83-5.38-2.09-11-4.35-16.62-4.88-5.87-.55-8.76-3.24-11.25-8.08a36.82,36.82,0,0,0-7.32-9.14c-2.46-2.39-5.55-4.16-8.43-6.1-7.52-5.08-15.36-7.9-24.19-3.22-1.32.7-2.64,1.42-4,2.1-5.17,2.61-10,3.93-15.85.66-10.53-5.88-21.68-10.64-32.35-16.29a113.72,113.72,0,0,1-35.37-29.28c-2.56-3.16-4.84-7-3-11.45,1.2-2.91,2.73-5.68,4-8.55,2.26-5,4.45-10.13,6.67-15.2l2-2.29.87-1.34,0,0,1-2,0,0,1-1h0c.28.15.76.47.82.41q6.1-6.66,12.16-13.38h0l1-1,0,0,1-1,0,0,1-1h0c.71-.09,1.68.09,2.11-.31,3.9-3.58,7.76-7.2,11.49-11,.52-.53.29-1.8.4-2.73l0,0,1-1,0,0,1-1h0c6.14-2,10.26-6.25,13-12l0,0,2-2,0,0,1-1h0a6.87,6.87,0,0,0,2.5-.66c4.9-3.94,9.58-8.16,14.59-12,9.36-7.1,18.25-15.18,28.51-20.66,19.17-10.23,39.69-17.58,60.71-23.31,17.66-4.81,35.4-9.32,53.83-9.41,10.63-.06,21.27.75,31.9,1.21,5.15.22,5.78,1.3,3.61,6.09-5.81,12.85-12,25.55-17.36,38.57C343,143.17,341,151.22,338.59,159Zm-157.7,93.59c.88,1.33,1.45,3.36,2.67,3.88,23.71,10.1,48,15.68,73.45,7.2a34.55,34.55,0,0,0,20.68-17.52c7-13.72,7.74-28.44,6.72-43.23-.36-5.25-3.54-10.31-5.44-15.45a31.86,31.86,0,0,0-2.15-4.34c-7.62-10.94-19.07-16.27-31.1-20.31-6.07-2-12.77-4.32-18.88-3.66-17.84,1.92-33.86,7.94-45.45,23.18-10.45,13.74-14.73,28.37-10.43,45.2a54.32,54.32,0,0,0,2.89,7.11c1.51,5.46,2.94,10.94,4.6,16.34C178.67,251.75,180.05,252.1,180.89,252.63Z"/><path class="cls-2" d="M147.34,461.47h.11l1.9,1h.08c1.49,1.08,2.87,2.83,4.5,3.11,6.95,1.17,14,1.91,21,2.81l0,0c.7,4.57,2.6,8.35,6.93,10.53h0c2.6,7.18,7.55,12.45,13.71,16.7.27.19.91-.15,1.37-.25h0c.65,4.13,3.59,5.54,7.24,6.12l3.62,1.07,1.14.86-.08-.06c1.54.74,3,2,4.63,2.16,13.19,1.52,25-2.22,35.15-10.51,3.61-3,8.43-5.68,8.15-11.63l0,0q1.57-2.13,3.13-4.27,3-5.81,6.07-11.61c.89-.85,2.09-1.53,2.61-2.55a205.88,205.88,0,0,0,17.31-49.76c1.06-4.88,3.3-5.81,7.61-5.14,4.55.71,9.15,1,13.73,1.52l.33,0c7.29,1.36,14.56,2.77,21.85,4.07,2.72.49,5.48,1.21,3.51,4.64-6.09,10.62-12.18,21.27-18.81,31.55-8.76,13.59-19.18,26.23-26.86,40.37-15.26,28.09-29.17,56.92-43.52,85.5-.83,1.66-.63,3.84-.92,5.78a.78.78,0,0,1-.13.79c-.65.81-1.63,1.52-1.9,2.44a45.18,45.18,0,0,0,.44,28.27c4.17,12.3,3.17,13.35-9.86,10.77a12.12,12.12,0,0,1-1.44-.36c-13.13-4.47-26.25-9-39.39-13.39-3.24-1.08-6.57-1.9-9.86-2.84l-.37,0-.34-.16a19.55,19.55,0,0,0-3.57-3c-5-2.49-10.14-4.78-15.23-7.15-13.66-6.36-27.07-13.55-36.28-25.67-10.28-13.54-19.33-28-28.49-42.41-12.33-19.34-24.21-39-36.39-58.41C59,471,57.3,470.13,56,469v-.05c-.49-1.48-.68-3.17-1.53-4.4C47.13,454,39.8,443.44,32.24,433.07c-2.77-3.79-6.2-7.09-9.32-10.62l.09.08-5.79-8-1.17-1.82c-.37-.41-.75-.81-1.13-1.22l.09.1c-2.13-3.69-4.54-7.25-6.33-11.1C6.45,395.63,2.8,391.1,5,385.08c2.72-7.49,5.58-15.09,11.92-20.16,10.26-8.23,21.05-15.82,31.6-23.68,2.72-2,4.71-.88,6.2,1.54,2,3.24,3.53,6.81,5.81,9.82,2.07,2.75,4.89,4.93,7.37,7.37l2,2.07L72,365.51l0,0,1,1.57V367c-.52,4,1.32,6.38,5.07,7.47h0l2,3h0c.63,1.16,1.26,2.33,1.9,3.49v.08c.37.48.73,1,1.1,1.46l0,0c-.58,2.53,0,4.2,3,4h0c.64,1.18,1.28,2.37,1.93,3.55v0L90,393.49l0,0,1,1,0,0,.86,1.29,5,7.39L98,405.5l0-.06c.42,3.05,1.21,5.79,5,6l0,0,1,1,0,0c.89,4.37,3.76,6.48,8,7l0,0c.31.68.47,1.81,1,2,4.8,1.66,6.87,5.67,9.34,9.67,5.17,8.37,10.72,16.51,16.39,24.56,1.18,1.69,3.52,2.56,5.33,3.8l-.07,0,2.07,1-.06,0Z"/><path class="cls-2" d="M914.21,769.7l-.9-.83a19.75,19.75,0,0,0-2.41-3.59c-7.17-6.8-14.48-13.43-21.62-20.25-14.35-13.7-27.14-28.79-39.19-44.53-3.65-4.78-7.33-9.55-11-14.32l.06.07c-1.5-3.21-2.76-6.57-4.54-9.62Q824.47,659.26,814,642.06c-.51-.85-1.86-1.21-2.82-1.79h0c-.23-1.57-.07-3.31-.73-4.66-5.09-10.37-10.24-20.71-15.56-31-1.94-3.74-4.38-7.21-6.59-10.8v-.1a37.08,37.08,0,0,0-1.29-5.16c-5.53-13.66-11.88-27.05-16.52-41-5.1-15.36-7.88-31.51-13.07-46.84-5.51-16.28-12.48-32.09-19.18-47.94-3.5-8.26-7.23-16.18-.76-24.64,1.59-2.09,2.88-4.41,4.31-6.63h0l1.53-.09,0,0c1.77,3.29,3.82,6.47,5.26,9.9,5.27,12.49,10.4,25.05,15.49,37.63q21.23,52.5,42.38,105.05c12.72,31.53,27,62.32,44.38,91.58C857,676,863.65,686.05,870.19,696.2c.59.91,2,1.3,3,1.92l-.06,0,1.06,1,0,0c.35.69.69,1.38,1,2.07l-.05-.07.86,1.18,9.07,10.38,3.12,4.45,0,0c4.17,7.75,10.53,13.16,18.24,17.14l3.62,2.59,2.14,1.29,0,0c.9,1.23,1.55,2.81,2.73,3.63q19,13.11,38.22,26c1.14.77,2.69.94,4,1.39l0,0c1.31,1.31,2.42,3,4,3.88,11.49,6.39,23,12.77,34.67,18.79,3.84,2,8.22,2.92,12.35,4.34l-.05,0c3.18,1.7,6.3,3.56,9.57,5.08,4.43,2.06,9.27,3.46,12.3,9.06-5.72.64-11,2.34-15.79,1.57-14.91-2.35-30-3.27-44.24-9.94-11.71-5.5-23.57-10.48-34.29-17.85-2.13-1.47-5-1.87-7.54-2.77h0Z"/><path class="cls-2" d="M476.6,108.71l.09-1.59c1.55-1.37,3.09-2.74,4.65-4.08,1.4-1.2,2.82-2.37,4.23-3.55.25,1.89.55,3.78.7,5.68a5.87,5.87,0,0,1-.47,1.92c-3.18,11.38-6.44,22.73-9.51,34.13-4.87,18.07-9.7,36.15-14.3,54.29-.59,2.29.28,5,.47,7.46a.54.54,0,0,1,0,.68c-.7,1.09-1.91,2.13-2,3.29-1.71,15.65-3.9,31.29-4.71,47-1,20.24-1.33,40.54-1.21,60.81.09,14.1,1.34,28.19,2.22,42.27.25,4.08-1.19,5.61-5.21,4.55-7.79-2.05-15.63-3.93-23.34-6.26-1.42-.42-3.23-2.61-3.26-4a105.7,105.7,0,0,1,.92-13.39C428,316.45,430,295,432.63,273.56c2.26-18.4,4.38-36.9,8.18-55,4.53-21.56,10.28-42.9,16.49-64,3.48-11.85,8.91-23.14,13.56-34.65,1.38-3.41,3.09-6.69,4.64-10l0,0Z"/><path class="cls-2" d="M757.32,360.33a.55.55,0,0,1,.12-.62c1.14-.52,2.64-.75,3.36-1.63,4.14-5,8.18-10,12.08-15.14,17-22.46,34-44.89,54.13-64.73,3.14-3.09,5.44-7,8.13-10.6v0c.46,0,1.12.2,1.36,0,4.91-4.85,9.8-9.72,14.59-14.68.39-.4,0-1.5,0-2.28h0c3.43-2.25,7-4.33,10.27-6.79,8.16-6.16,15.69-13.3,24.37-18.58,14.14-8.59,30.43-12,46.14-16.58,7.07-2.08,14.13-2.06,20.81,1.6,1.52.84,3,1.85,4.44,2.77a28.5,28.5,0,0,1-3.68,3.3,38.32,38.32,0,0,1-6.42,3.33c-5.72,2.24-11.7,3.88-17.22,6.49-20,9.44-38.52,21.25-56.26,34.35-2.37,1.75-4.26,4.12-6.38,6.21l0,0c-5.15,4-11,7.28-15.33,12-23.24,25.41-46,51.3-69.19,76.72-8.36,9.14-17.38,17.72-26.58,26-5.49,5-7.66,3.83-8.53-3.46a6.43,6.43,0,0,1,1.36-3.91c2.45-3.53,5.19-6.88,7.63-10.42C757.19,362.8,757.1,361.45,757.32,360.33Z"/><path class="cls-2" d="M851.1,114.29v.09c0,.52.07,1,.11,1.54l0,0c-1.32,2.22-2.68,4.42-4,6.66q-5.57,9.66-11.08,19.34l.06-.07a22,22,0,0,0-2.75,2.71c-4.41,6.18-8.65,12.49-13.12,18.63a163.27,163.27,0,0,0-23.33,45.26c-3.58,10.91-6.44,22.07-9.3,33.2-4.24,16.52-8.24,33.11-12.21,49.69-.49,2-.19,4.25-.26,6.39l0-.05a15.51,15.51,0,0,0-2.25,3.27c-3.41,9.66-6.46,19.46-10.08,29-4.76,12.57-10.43,24.7-19.39,35-2,2.35-4.07,4.32-7.67,2.89-1.06-.42-2.56.33-3.87.39a30.87,30.87,0,0,1-3.32-.16,13.25,13.25,0,0,1,.69-2.79c4-8.18,8.48-16.14,12-24.52,5.94-14.36,12.6-28.62,16.47-43.56,4.83-18.7,7-38.08,10.61-57.11,4.26-22.58,10.16-44.65,21.93-64.71.6-1,.55-2.41.8-3.63l0,0c1.61-1.39,3.66-2.51,4.74-4.24,2.39-3.82,4.29-7.95,6.39-12l.72-.66c4.82-3.68,9.11-7.73,10.14-14.12h0c3.38-3.29,6.62-6.74,10.17-9.85,6.62-5.81,13.4-11.45,20.13-17.13C846.13,111.53,848.69,111.93,851.1,114.29Z"/><path class="cls-2" d="M603.46,178.28v-.09c3.32-7.52,3.8-15.39,2.89-23.43h0c.69-.34,1.73-.5,2-1,2.83-5.35,2.79-5.36,7.6-1.84a3.94,3.94,0,0,0,1.39.33l3,4.26c.16,1.77-.22,3.84.56,5.27,4.22,7.68,1.41,14.6-1.71,21.64-.95,2.15-1.23,4.58-1.82,6.88v.12c-4.92,3.69-5.38,9.2-6,14.64,0,.85-.07,1.71-.1,2.57-1.24,3.58-3.42,7.11-3.58,10.74-.75,17.05-1.51,34.15-1.2,51.21.52,28.73,1.92,57.43,2.78,86.16a83.46,83.46,0,0,1-1,14.37c-.22,1.56-2,4.09-3.13,4.12a92.81,92.81,0,0,1-17.33-.86c-2.08-.34-4.7-2.85-5.41-4.94-1.53-4.49-3-9.4-2.7-14,.84-14.71,2-29.44,3.9-44.06,2.92-22.66,6.3-45.27,9.91-67.84,2.41-15.05,5.73-29.95,8.27-45C602.84,191.15,602.93,184.68,603.46,178.28Z"/><path class="cls-2" d="M398.68,165.5l.06-3.65c1-1.31,2.4-2.47,3-3.94,5.93-14.59,11.69-29.25,17.63-43.84a64.38,64.38,0,0,1,4.12-7.31l1.22.58c0,1.94.39,4-.06,5.8C418.5,138,412.11,162.89,406,187.81c-4.89,20-8.24,40.37-8.44,60.94-.31,31.55.52,63.11,1,94.67,0,1.48,1.26,2.95,1.93,4.42-.11,5.11-1.17,6-5.93,4.83-1.88-.44-3.77-.81-5.66-1.22l-19.33-7.81h0c-.91-2.87-2.63-5.77-2.55-8.62.15-5.1,1.31-10.18,2.19-15.25,2.81-16.16,5.6-32.32,8.54-48.45,4.13-22.67,8.25-45.35,12.65-68C392.88,190.68,395.91,178.11,398.68,165.5Z"/><path class="cls-2" d="M365.71,604.76v-1c.21-1.2.77-2.46.59-3.6-1.07-6.7-6.47-10.5-10.36-15.36-2-2.46-4.13-5.48-4.42-8.42-1.6-16.51-2.79-33.06-3.86-49.62-.9-13.74-.85-27.58-2.27-41.26-2.29-22,5.14-42.19,10.63-62.77.68-2.55,2.44-4,5.32-2.74,5.48,2.35,11,4.54,16.38,7.16,1.21.59,2.57,2.77,2.38,4-1.07,7-2.83,14-3.92,21C373.56,469,370,485.78,369,502.74c-1.45,24.21-1.41,48.54-1.13,72.81.11,10.36,2.39,20.71,3.8,31.05.1.72,1.2,1.3,1.83,1.95.09,1.71.17,3.41.26,5.12l.93,20.61,0,0h-5.1c-.5-4.54-.92-9.09-1.52-13.62C367.37,615.35,366.51,610.06,365.71,604.76Z"/><path class="cls-2" d="M572.49,139.33h0l.9-2.54h0l4.94-2.58a39.07,39.07,0,0,1-.66,5.59c-3.26,12.13-6.38,24.31-10,36.34-5.82,19.43-6.75,39.51-8.19,59.51-.69,9.6-1.09,19.25-1.06,28.87.07,21.38.63,42.75.71,64.13,0,11.27,0,22.58-.91,33.8-.57,7.27-4.45,9.95-11.73,10.05-4,.06-8-.18-12-.12-4.29.06-6.06-2.28-5.93-6.19.19-5.8.51-11.6,1-17.38.78-9.07,1.52-18.17,2.68-27.2,1.53-11.83,3.22-23.66,5.25-35.41,3.45-19.89,7-39.77,10.94-59.56,2.65-13.31,5.78-26.54,9.23-39.66,2.69-10.22,6.18-20.23,9.34-30.33C568.84,150.87,570.67,145.1,572.49,139.33Z"/><path class="cls-2" d="M928.52,577.35l.33,0,36.27,11.87,0,0,.69,1.37-6.2,6.65c-1.53-.31-3.15-1.12-4.58-.86-14.87,2.74-28.35-2.12-41.76-7.42-5.42-2.14-10.79-4.41-16.18-6.63l0,0c-4-5.13-9-8.74-15.44-10.1l-1.24-1-1.33-.88,0,0c-1-4.13-5.12-7.8-9-8h0l-2.49-2.09h0l-1.49-1.49,0,0c-.1-.9.14-2.1-.35-2.65q-4.4-5-9.13-9.62c-.47-.46-1.7-.14-2.58-.18h0l-1-1,0,0-1-1,0,0-1-1h0c.95-2.94-.13-3.84-3-3l0,0c.32-4.32-2.38-7.8-7-9h0l-1-1v0c.54-3.84-1.55-5.49-5-6v0l-1-1h0l-.84-1.45q-6.51-7.14-13-14.29c.66-4.95-3.38-7.27-6-10.18-10-11-20.08-21.79-30.26-32.56-3.77-4-7.86-7.66-11.81-11.48l0,.05c-3.89-5.42-7.74-10.86-11.65-16.27a62.19,62.19,0,0,1-11-23.51c-.24-1.11.1-2.94.85-3.48s2.42,0,3.59.32a36.6,36.6,0,0,1,4.26,1.89l0,0c2,6.19,7.38,9.26,12,13l0,0,3,4-.05,0c.25,1.08.19,2.4.8,3.19,8,10.43,16.06,20.86,24.34,31.09,1.74,2.16,4.49,3.51,6.77,5.24h0c-.38,3.14.89,5,4.1,5.47l0,0c.24.9.22,2,.76,2.67,7.48,8.8,15,17.56,22.62,26.23.77.87,2.33,1.05,3.52,1.56v.07l1.1,1.49,0-.06,5,5,0-.05,3,3,0,0,1,1.05-.06-.05,1.06,1.05,0-.05,5.42,5.12h.18l1.43.92-.06-.06,1.06,1.06-.06-.06,1.06,1.06,0-.05,8,7-.06-.05,1.06,1.06-.06-.06,1.06,1.06-.06-.06,1.06,1.06-.06-.06,1.06,1.06-.05-.06c6.05,5.84,12,11.83,18.22,17.44,2.55,2.28,5.84,3.74,8.8,5.58l-.06,0,4.51,3.1,0,0c4.74,5.68,10.4,9.86,17.91,11h.18l3.81,2h.16l2.43.9,0,0Z"/><path class="cls-2" d="M656.36,343.05h0c-.15,3.12-.31,6.25-.43,9.37-.24,6.28-.26,12.59-.83,18.85-.11,1.26-2.18,3.24-3.47,3.34a133.12,133.12,0,0,1-15,.08c-1.08,0-2.86-.82-3.08-1.6-1.32-4.76-3.17-9.62-3.2-14.46-.06-12.24.62-24.5,1.26-36.73.5-9.61,1.24-19.21,2.14-28.79,1.72-18.13,3.6-36.25,5.46-54.37,1.63-15.86,4.62-31.43,10.57-46.31.82-2,2.08-3.33,4.49-2.14q1,3.51,2,7c-.08,8.25-.19,16.49-.19,24.74,0,.66.76,1.32,1.16,2v2.4c-.71.92-2,1.79-2.06,2.76-1.13,13.84-2.92,27.7-2.92,41.55,0,21.68,1.15,43.37,2,65.05C654.38,338.23,655.64,340.63,656.36,343.05Z"/><path class="cls-2" d="M928.08,391.91v.1c.64,5.82-1.78,9.68-7.29,11.77-.84.32-1.28,1.68-1.9,2.56l-3.67.08c-3.62.38-7.23.89-10.86,1.1-17.73,1-35.47,2-53.21,2.88-22.68,1.1-45.31,4.17-68.06,1.9-8.13-.82-16.73,0-23.64-6.09-2-1.79-5.16-2.33-7.09-4.17-1.52-1.45-2.24-4-2.67-6.15-.09-.46,2.64-2.14,4-2.1,3.28.08,6.52,1.06,9.8,1.32,10.06.81,20.12,2,30.18,2,7.41,0,14.84-1.46,22.21-2.65,6.26-1,12.44-2.57,18.66-3.88h.12q20.68-2.24,41.38-4.45C893.83,384.23,911.64,381.9,928.08,391.91Z"/><path class="cls-2" d="M397.77,473.28q1-10.41,2-20.81c.62-.41,1.5-.67,1.81-1.25,2-3.7,3.69-7.66,6-11.19,3.83-5.87,6.95-6.61,13.41-4.27a66.27,66.27,0,0,0,7,1.76.27.27,0,0,1,.44.05c1.51.95,2.92,2.43,4.54,2.73,3.53.66,4.64,2.57,4.59,5.91-.11,7.32-.05,14.65,0,22,0,2.88-.86,5.29-4.08,5-6.17-.6-8.9,3.37-10.51,8a122.44,122.44,0,0,0-5.05,19.08c-2,11.74-4.27,23.53-5,35.39-1.64,28.27.67,56.42,4.06,84.49.31,2.52-.25,5.14-.41,7.72l-5.08-2.57h0l-7-16,0,.06c0-2.8.08-5.6-.15-8.38-.77-9.55-2.1-19.09-2.41-28.66-1-31.64-1.65-63.29-2.54-94.93C399.44,476,398.36,474.64,397.77,473.28Z"/><path class="cls-2" d="M633.84,27l.22,0c3.33,1,6.63,2.18,10,3,13.38,3.21,26.79,6.27,40.14,9.54,1.18.29,2.08,1.71,3.1,2.6-1,.69-2,1.86-3.07,2a183.22,183.22,0,0,1-52.08-1c-11.9-2-23.57-5.87-35.52-7-21.93-2.06-43.17,3.35-64.41,8.18-10.32,2.35-20.3,5-28.75,11.68-1.25,1-2,2.64-2.91,4l0,0c-1.63.55-3.59.7-4.82,1.73-8.09,6.78-16,13.74-24,20.68-4.3,3.74-8.59,7.26-14.91,6.8-3.73-.27-4.52-1.84-2.7-4.74a48.84,48.84,0,0,1,6.43-8.67c4.21-4.21,9.58-7.4,13.17-12,5.63-7.27,13.36-11.54,21-15.3,15.91-7.77,32.44-14.25,48.69-21.32,18.78-8.17,38.34-6.71,57.9-4.57C612.23,23.74,623,25.52,633.84,27Z"/><path class="cls-2" d="M481.71,562.38c.25.58.51,1.15.76,1.73.26,1.7.06,3.67.86,5,6.19,10.72,12.48,21.4,19,31.93,1.64,2.66,4.15,4.78,6.26,7.15l0,0c3.61,5.37,7.1,10.83,10.89,16.07,1.27,1.75,3.31,2.94,5,4.39l0,.14c3,4.22,5.65,8.76,9.08,12.6q18.4,20.64,37.32,40.82c2.33,2.49,5.75,4,8.67,5.92l0,0,1.06,1-.06,0,1,1,0,0,1,1,0,0c-.37,3,1.09,4.28,4,4l0,0,1,1.06,0-.06c1.07,1.5,1.88,3.33,3.27,4.43,3.79,3,7.82,5.74,11.76,8.58l0,0a10.34,10.34,0,0,0,1.18,2.93c2.47,2.91,5.19,5.61,7.61,8.56.84,1,1.1,2.53,1.63,3.81-1.4.26-2.92,1-4.19.66a36,36,0,0,1-6.38-2.66c-4.33-2-8.63-4.12-12.94-6.18h0c-.48-1-.69-2.36-1.46-3.06-8.72-7.83-17.8-15.28-26.25-23.4C549,677.55,536.71,665,524.34,652.47a28.38,28.38,0,0,1-4.43-5.9c-4.82-8.47-9.42-17.06-14.27-25.51-.51-.9-2.09-1.18-3.18-1.75l0,0c1.56-5.82-3.48-9.23-5.21-13.84-.76-2-3-3.53-4.56-5.27a.6.6,0,0,1-.1-.65,19.24,19.24,0,0,0-1.16-4.13c-12.54-23.33-25.18-46.61-37.74-69.93-7.11-13.2-9-27.58-9.33-42.28a2,2,0,0,1,.06-1c.4-.64.87-1.63,1.39-1.68s1.42.66,1.81,1.26a14.43,14.43,0,0,1,1.11,2.77c7.68,19.94,15.17,40,23.18,59.79C474.44,550.65,478.4,556.38,481.71,562.38Z"/><path class="cls-2" d="M544.86,775.12l4.52,5.49c-1.09,1.41-2.17,2.82-3.26,4.22l-2.59-2.34-1.12-1.43,0,.05-1-1.05,0,.05-2-2,0,0-1-1,0,0-1-1,0,0-1-1,0,0c-.34-.34-.68-.69-1-1v0c-.16-1.05,0-2.33-.55-3.09-3.28-4.56-7.16-8.75-10-13.54C516,742.76,507.25,728,499,712.93c-7-12.76-13.13-26-19.74-38.92-.58-1.12-1.86-1.88-2.81-2.81l0,0c-1.79-4.31-3.49-8.67-5.43-12.91-.41-.91-1.71-1.41-2.6-2.09h0q-3.44-7.72-6.88-15.46v-.1c-.28-1.44-.24-3-.89-4.28-3.65-6.88-7.46-13.67-11.21-20.49-6.49-11.77-11.67-24-14-37.38-3.52-20.4-6.75-40.85-10.66-61.17-1.42-7.39-.53-14.42.7-21.54.55-3.22,1.26-6.75,3.05-9.34,1.59-2.28,4.79-3.44,7.28-5.1.56,2.05,1.55,4.09,1.6,6.16.19,7.64,0,15.29.06,22.94.05,9.71-.93,19.59.5,29.1,2.42,16.18,5.91,32.25,9.85,48.14,2.81,11.36,7.06,22.37,10.81,33.49.4,1.18,1.76,2,2.68,3.06,0,.55,0,1.09.08,1.64a18.35,18.35,0,0,0,.91,4.25c6.94,14.42,13.92,28.82,21.08,43.14.78,1.58,2.71,2.58,4.11,3.86l0-.06.84,1.23,3,5.75c-.17.23-.34.45-.52.67l1.12.44c.33,0,.48.13.46.46.22,1.57,0,3.35.71,4.69q11.6,22.54,23.47,44.94c.86,1.62,2.49,2.84,3.77,4.25v.09l2,3.91v.07l1.1,1.46,0,0c.36,1.51.35,3.27,1.17,4.48,2.95,4.35,6,8.63,9.37,12.71,2.93,3.6,6.23,6.9,9.36,10.33h0Z"/><path class="cls-2" d="M305.73,664.78v-.08l-2-5v0l-1.11-3.51,0,0c-1.11-4.86-2.21-9.73-3.41-14.58-.06-.25-1-.28-1.6-.41h0c.29-3.46.94-7-2.84-9.26,0-1.16,0-2.31,0-3.47l-1-10.77c-.33-3.46-1-6.93-.9-10.37.25-6.53,3.65-9.53,10-8.74a75.51,75.51,0,0,1,11.54,2.81c3.36,1,4.46,3.41,4.41,6.87-.1,6.65-.69,13.44.4,19.93,4.5,26.8,9.62,53.5,14.38,80.26,1.54,8.68,2.7,17.42,4,26.13l-1.43.44c-1.12-2.44-2.29-4.85-3.34-7.31q-11.11-26.12-22.2-52.25C309.14,671.91,307.39,668.36,305.73,664.78Z"/><path class="cls-2" d="M436,363.62l.33,0,6.61,2a.3.3,0,0,1,.46.05c2.42,1,4.93,1.85,7.24,3.06,1.52.8,3.68,1.92,4,3.26,2.69,11.51,3.95,23.24.51,34.73-1.65,5.53-5,10.56-7.54,15.82l0,0c-6.25,4.58-12.43,2.58-18.85.18-4.3-1.6-8.95-2.29-13.42-3.45-3.38-.87-6-2.1-3.95-6.51,5.31-11.54,6.86-23.74,6.19-36.36-.2-3.76.41-7.58.7-11.36.29-3.63,1.81-4.81,5.63-3.63S432,362.91,436,363.62Z"/><path class="cls-2" d="M268.18,600.33l.27,0,2.73,1,.29,0,5.32,1.89,0,0c-1.31,19.42,0,38.51,6.41,57.1,2.95,8.48,5.1,17.24,7.62,25.87l0-.08a45.4,45.4,0,0,0,.46,5.86c.69,3.41,1.77,6.75,2.45,10.16.17.9-.53,2-.83,3a7.76,7.76,0,0,1-2.31-1.41c-1.8-2.36-3.28-5-5.15-7.28C272.85,681,264,664,261.23,643.93c-1-7.39-3.4-14.56-9-20.55-5.83-6.25-4.11-13.18,2-19.22C258.54,600,263.08,599.88,268.18,600.33Z"/><path class="cls-2" d="M603.88,639.27H604c1,1.67,1.73,3.68,3.12,5,4.38,4,9.13,7.65,13.48,11.7,1.2,1.11,1.51,3.17,2.22,4.8-1.78-.37-3.88-.26-5.29-1.19-3.86-2.54-7.34-5.66-11.13-8.31q-30.08-21-60.25-41.92c-.4-.28-1.18,0-1.78,0h0c0-3.33-1.56-5.12-5-5l0,0-1-1v0a24.46,24.46,0,0,0-13-14l0,0c-.34-.34-.68-.69-1-1v0c-.58-5-3.7-8-8-10l0,0c-.41-1.32-.5-2.87-1.26-3.93-4.14-5.77-8.53-11.36-12.66-17.13-11-15.42-22-30.92-33-46.35-2.83-3.95-5.88-7.74-8.82-11.6q-1.55-4.93-3.1-9.88a42.5,42.5,0,0,1-1.1-5.17,15.09,15.09,0,0,1,.54-3.6,26.9,26.9,0,0,1,3.13,1.82c1.54,1.2,2.95,2.56,4.42,3.86l0,0q2.44,3.75,4.91,7.49v.08l1.11,1.47,0-.05,1.35,2.12a.47.47,0,0,1,.54.55c.38.8.75,1.6,1.13,2.39l0-.06c0,.63-.35,1.45-.06,1.88q9.23,14.07,18.6,28c.21.31.9.31,1.36.46v.17l1.11,1.47,0-.06c.07.79-.12,1.75.26,2.35,5.53,8.76,11.1,17.51,16.82,26.15.58.88,2.17,1.08,3.3,1.59q1.76,3.23,3.53,6.45l1.11,1.46-.05-.06,1.05,1,0,0c-.14,3,0,5.76,4,6h0c0,.92-.37,2.34.09,2.69,6.23,4.86,12.58,9.57,18.9,14.32l-.06,0,1.06,1.06-.07-.06,1.34,1.14,2.4,1.06,1.32.84,0,0,1,1,0,0c.48.94.71,2.2,1.47,2.78q14.28,10.95,28.74,21.67c.94.69,2.58.43,3.89.6l1.77,1.66,15.12,11.3-.06-.05,1.06,1.06-.07-.06Z"/><path class="cls-2" d="M646.8,126.85a.6.6,0,0,1-.06.11c-4.68-3.65-9.18-7.52-14-10.9-17.12-11.93-36.37-17-56.73-13.3-18,3.28-35.26,1.54-52.6-2.85a19.7,19.7,0,0,1-3.43-1.6,12.55,12.55,0,0,1,3-1.7c11.13-2.61,22.22-5.43,33.45-7.56,10.26-1.94,20.13-7.19,31.06-4.19l0,0c1.09,1,2,2.23,3.3,2.82q18.81,8.77,37.72,17.32c4.6,2.08,9.31,3.93,14,5.88l-.06,0,7.06,4-.06,0c4.71,4.82,9.36,9.69,14.16,14.42a40.65,40.65,0,0,0,4.87,3.61l0,0c.22,1.85.43,3.7.65,5.55-2-.79-4.1-1.53-6.1-2.4-.89-.39-1.64-1.09-2.5-1.57C655.89,131.84,651.34,129.35,646.8,126.85Z"/><path class="cls-2" d="M532.91,449.51l.34,0,3.68,1,.24,0a55.25,55.25,0,0,1,5.44,3c2.79,2,8,1.17,7.53,7-.49,6.27-.5,12.58-.65,18.88q-.45,18.65-.82,37.3c-.08,3.68-1.59,4.36-4.71,2.57-4.73-2.72-9.9-4.83-14.18-8.12a13.4,13.4,0,0,1-4.88-8.45c-1.35-17.32-2-34.7-3.08-52.05-.17-2.86.82-3.62,3.43-3S530.35,448.92,532.91,449.51Z"/><path class="cls-2" d="M680.84,382.57h1a21.12,21.12,0,0,0,4.56,1.13c6.65.11,13.33-.27,20,.18a9.3,9.3,0,0,1,6.24,3.57c6.25,9.27,6.42,19.44,4,30.07-1.32,5.73-4.31,9.2-10,10.06-6.2.93-12.49,1.29-18.68,2.32-3.39.56-4.48-.44-4.66-3.74-.42-7.76-1.25-15.51-1.69-23.27C681.13,396.13,681.06,389.35,680.84,382.57Z"/><path class="cls-3" d="M373.49,608.55c-.63-.65-1.73-1.23-1.83-1.95-1.41-10.34-3.69-20.69-3.8-31.05-.28-24.27-.32-48.6,1.13-72.81,1-17,4.57-33.76,7.19-50.61,1.09-7,2.85-13.95,3.92-21,.19-1.23-1.17-3.41-2.38-4-5.35-2.62-10.9-4.81-16.38-7.16-2.88-1.23-4.64.19-5.32,2.74-5.49,20.58-12.92,40.75-10.63,62.77,1.42,13.68,1.37,27.52,2.27,41.26,1.07,16.56,2.26,33.11,3.86,49.62.29,2.94,2.46,6,4.42,8.42,3.89,4.86,9.29,8.66,10.36,15.36.18,1.14-.38,2.4-.59,3.6-2.38-8.11-8.83-13.36-13.75-19.7-1.51-1.94-3-4.39-3.24-6.74-.71-6.87-.6-13.81-1.17-20.7-.78-9.43-1.9-18.84-2.86-28.26-.05-.5,0-1-.05-1.5-.34-10.74-.63-21.48-1.05-32.22-.19-4.92-.74-9.82-1-14.74-.71-14.16,2.39-27.75,6.41-41.19,1.66-5.55,3.17-11.15,4.76-16.73,1.31-4.64,4.77-5.85,9.3-3.73,3.39,1.59,7,2.62,10.58,3.9l.48-1.29c-6.75-2.78-13.57-5.41-20.2-8.44-1.45-.66-3.34-2.94-3.14-4.17,1-6.17,2.6-12.24,4-18.34q2.37-10.05,4.82-20.07c1.37-5.6,2.66-11.22,4.31-16.73a4.14,4.14,0,0,1,3.32-2.23c8.23,1.36,16.47,2.84,24.6,4.73,2.75.65,5.21,2.59,7.8,3.94-9.37-2-18.77-3.84-28.09-6.07-3.72-.89-5.21-.14-6.14,3.77-3.85,16.09-8,32.11-12.2,48.11-.72,2.77-.36,4.21,2.54,5.3,8.7,3.27,17.25,6.92,25.91,10.27a10.38,10.38,0,0,0,10.78-1.53c5.49-4.25,8.45-9.64,8.28-16.63q-.54-21.63-1.14-43.27c.63.87,1.76,1.72,1.82,2.63q1.21,18.89,2.15,37.79c.33,6.61-1.89,12.6-5.17,18.19-2.56,4.36-11.73,7.13-16.33,5.38a12,12,0,0,0-5.84-.58c1.3.78,2.92,1.3,3.83,2.41,1.19,1.44,2.78,3.52,2.51,5-2.25,12.68-5,25.27-7.33,37.94a226.67,226.67,0,0,0-3.55,25.6c-1,16.27-1.35,32.59-2,48.88-.35,8.88-1.5,17.8-.94,26.62.74,11.65,2.79,23.21,4.27,34.81C373.24,605.64,373.35,607.1,373.49,608.55Z"/><path class="cls-3" d="M535.23,128.36c-1.74,6.3-3.38,13.53-5.74,20.52-4,11.74-8.91,23.18-12.4,35.05-2.19,7.42-2.65,15.38-3.57,23.14-1.45,12.33-2.66,24.69-3.9,37-.48,4.72-.9,9.46-1.08,14.2q-.62,15.63-.94,31.25c-.38,17.06-.62,34.11-1,51.17-.18,7.75-.69,15.48-1,23.23-.22,6.12-2.54,7.89-8.55,6.57s-12-2.51-18-3.64c-3.41-.64-3.64-3.45-3.46-5.74q1.17-15.09,3-30.13c1.5-12.77,3.27-25.5,4.89-38.25.41-3.25.66-6.51,1-9.77,1-9.21,2-18.44,3.07-27.64.88-7.42,1.59-14.88,3-22.21,2.73-14.55,5.54-29.1,8.95-43.5,3.59-15.15,7.52-30.23,12-45.12,3.3-10.92,7.68-21.51,11.84-32.15.64-1.63,2.89-3.91,4.09-3.75,1.78.25,4.24,2.15,4.73,3.83C533.6,117.25,534.15,122.28,535.23,128.36Zm-2.2-1.87-1-.45c-.61-3.59-1.09-7.21-1.89-10.75a19.83,19.83,0,0,0-2-4.2c-1.22,1.24-3,2.26-3.58,3.75-2.92,7.21-6,14.39-8.16,21.84-6,21.36-11.93,42.77-17.29,64.3a366.78,366.78,0,0,0-7.32,37.56c-2.63,18.9-4.36,37.92-6.55,56.87-2.52,21.73-5.16,43.44-7.56,65.18-.14,1.27,1.13,3.68,2.17,4,6.09,1.58,12.29,2.73,18.48,3.94,2.73.53,4.34-.17,4.45-3.5.43-13.1,1.11-26.2,1.66-39.3,1-23.56,1.49-47.14,3.05-70.66,1.43-21.49,3.69-42.94,6.14-64.35,1.55-13.5,6.6-26.08,11.68-38.66C528.62,143.8,530.5,135,533,126.49Z"/><path class="cls-2" d="M496.58,14.67l5.57-2.6a22.16,22.16,0,0,0,3.84-.48c6-1.82,11.9-4.24,18-5.51,5.73-1.19,11.68-3.18,17.67,0-6.47,1.94-13.13,3-19.52,4.89-4.51,1.35-8.65,3.89-13,5.9l-1.32,0L493.54,25l0,0c-1.32.5-3.06.64-3.91,1.57C481.1,36,472.41,45.23,464.33,55a89.17,89.17,0,0,0-12.25,18.52c-4.52,9.72-10.91,13.67-21.34,10.52-1.5-.45-3.09-.65-4.63-1,1-1.4,1.78-3.07,3.06-4.15,10.57-9,19.75-19,26.22-31.43A66.84,66.84,0,0,1,460,39.88c8.13-11.51,20.49-17,32.69-22.65A32.73,32.73,0,0,0,496.58,14.67Z"/><path class="cls-3" d="M436,363.62c-4-.71-8.19-1-12.08-2.22s-5.34,0-5.63,3.63c-.29,3.78-.9,7.6-.7,11.36.67,12.62-.88,24.82-6.19,36.36-2,4.41.57,5.64,3.95,6.51,4.47,1.16,9.12,1.85,13.42,3.45,6.42,2.4,12.6,4.4,18.85-.18-2.3,5.52-6.23,7-11.53,5.21-7.91-2.68-16-4.74-24-7.34-2.71-.9-5.82-2.22-3.86-6.3,7.34-15.19,8-31.41,7.18-47.8-.24-4.77,1.17-7.25,6.4-6.78,2.34.22,4,.22,2.08-3.49-1.66-3.19-1.38-7.62-1.21-11.46.25-5.69,1.12-11.35,1.8-17,1.62-13.57,3.36-27.13,4.89-40.71.58-5.21.45-10.5,1.14-15.69,2.07-15.59,4.13-31.18,6.67-46.69,1.67-10.15,3.81-20.26,6.36-30.23,3.45-13.51,7.53-26.86,11.27-40.31s8.48-26.6,15.86-38.59c1.27-2,3.18-3.69,4.79-5.52-1.56,3.34-3.27,6.62-4.65,10-4.65,11.51-10.08,22.8-13.56,34.65-6.21,21.15-12,42.49-16.49,64-3.8,18.12-5.92,36.62-8.18,55C430,295,428,316.45,425.81,337.9a105.7,105.7,0,0,0-.92,13.39c0,1.41,1.84,3.6,3.26,4,7.71,2.33,15.55,4.21,23.34,6.26,4,1.06,5.46-.47,5.21-4.55-.88-14.08-2.13-28.17-2.22-42.27-.12-20.27.17-40.57,1.21-60.81.81-15.71,3-31.35,4.71-47,.12-1.16,1.33-2.2,2-3.29-.6,5.48-1.25,11-1.79,16.46-1,10.4-2.12,20.8-3,31.21-.54,6.56-1,13.14-1,19.72-.14,19.14-.34,38.29.09,57.42.19,8.6,1.86,17.17,2.77,25.76a31.8,31.8,0,0,1,.07,6.47c-.37,3.71-3.87,5.36-7.5,4.19a143.2,143.2,0,0,0-23.19-5.76Z"/><path class="cls-2" d="M554.92,563.37h.17l1.77,1,.34,0,2.71.93h.23l1.77,1,.26,0c.9.86,1.65,2.08,2.71,2.54,8.19,3.54,16.41,7,24.68,10.37,13.4,5.42,26.5,11.76,41,14,1.24.2,2.33,1.31,3.49,2-.1.49-.21,1-.31,1.47-7.83.26-15.72,1.19-23.48.58-6.63-.53-13.13-2.84-19.68-4.36l-1.92-.84c-8.68-4.91-17.27-9.95-26.07-14.62-2.43-1.3-5.44-1.49-8.19-2.19h0c-1.08-1.21-1.92-2.86-3.26-3.56-8.2-4.27-16.42-8.52-24.81-12.4-9.08-4.2-15.38-11.06-20.14-19.6-1.54-2.77-.23-3.53,2.35-3.47l-.06,0,1.46,1.1.15,0,5.45,3.9,0,0,3,2,0,0,11,7,0,0A58.14,58.14,0,0,0,554.92,563.37Z"/><path class="cls-3" d="M115,209.31c-2.22,5.07-4.41,10.15-6.67,15.2-1.28,2.87-2.81,5.64-4,8.55-1.86,4.49.42,8.29,3,11.45a113.72,113.72,0,0,0,35.37,29.28c10.67,5.65,21.82,10.41,32.35,16.29,5.85,3.27,10.68,1.95,15.85-.66,1.33-.68,2.65-1.4,4-2.1,8.83-4.68,16.67-1.86,24.19,3.22,2.88,1.94,6,3.71,8.43,6.1a36.82,36.82,0,0,1,7.32,9.14c2.49,4.84,5.38,7.53,11.25,8.08,5.65.53,11.24,2.79,16.62,4.88,4.61,1.8,9.35,3.83,13.21,6.83,6.49,5.06,7.92,13,8.64,20.57a136,136,0,0,1,0,24.79c-.73,8.19-2.63,16.28-4.18,24.39-1.26,6.57-1,6.66,5.36,6.43,15.39-.58,30.84-3.32,46.15.87,3.8,1,7.55,2.34,11.4,3.08,1,.2,3.2-1,3.44-1.94,4.79-18.82,9.79-37.6,13.8-56.59,1.7-8.08-2.84-15.45-6.4-22.6-.49-1-.87-2-1.3-3,2.3,2.53,5.59,4.68,6.73,7.66,3.5,9.17,4.92,18.3,1.61,28.41-4.13,12.63-6.25,25.92-9.28,38.91a38.72,38.72,0,0,1-2.18,7.33c-1.55,3.33-2.8,5.87-8.14,4a92.67,92.67,0,0,0-37.95-5.32c-7,.55-14,1.57-21,1.94-5.3.27-6-1.28-5.12-6.48,1.63-9.58,2.82-19.23,4.26-28.84.5-3.35,1.55-6.67,1.68-10,.45-10.87-1.56-21.3-7.41-30.6-1.15-1.84-3.88-2.9-6.09-3.83-9.32-3.9-18.23-8.83-28.82-9.34-2.56-.13-6-3.55-7.2-6.26-4.12-9.38-12.14-14.29-20.29-19-4.21-2.46-9-3.68-13.85-1.36l.09-.08c-4.77,1.73-10.06,2.7-14.18,5.42s-7.33.71-10.34-.7c-8.64-4-16.66-9.54-25.51-13-14.58-5.67-26-15.61-37.24-25.75-5.8-5.22-12.17-11.09-10.4-20.22A52,52,0,0,1,115,209.31Z"/><path class="cls-3" d="M496.58,14.67a32.73,32.73,0,0,1-3.94,2.56c-12.2,5.69-24.56,11.14-32.69,22.65a66.84,66.84,0,0,0-4.56,7.63C448.92,59.9,439.74,70,429.17,78.94c-1.28,1.08-2.06,2.75-3.06,4.15,1.54.32,3.13.52,4.63,1,10.43,3.15,16.82-.8,21.34-10.52A89.17,89.17,0,0,1,464.33,55c8.08-9.79,16.77-19.07,25.34-28.45.85-.93,2.59-1.07,3.91-1.57-1.69,1.82-3.45,3.58-5.06,5.46-5.88,6.86-12,13.52-17.47,20.72-6.21,8.23-11.76,17-17.58,25.48a2.63,2.63,0,0,0-.07,2.7c6.69-6.5,13.16-13.26,20.16-19.42A90.31,90.31,0,0,1,488.8,49.05a211.8,211.8,0,0,1,24.38-12C528.12,31,543,24.38,558.52,20.34c11.53-3,23.94-2.59,36,.49C600,22.22,606,21.36,611.66,22c6.72.74,13.39,1.94,20.05,3.09.8.14,1.42,1.27,2.13,2-10.82-1.51-21.61-3.29-32.46-4.48-19.56-2.14-39.12-3.6-57.9,4.57-16.25,7.07-32.78,13.55-48.69,21.32-7.68,3.76-15.41,8-21,15.3-3.59,4.63-9,7.82-13.17,12a48.84,48.84,0,0,0-6.43,8.67c-1.82,2.9-1,4.47,2.7,4.74,6.32.46,10.61-3.06,14.91-6.8,8-6.94,15.91-13.9,24-20.68,1.23-1,3.19-1.18,4.82-1.73-3.66,3.51-7.28,7.06-11,10.51-5.29,4.89-10.46,9.92-16,14.48-6.12,5-13.18,8.11-21.23,5.71-4.1-1.22-3-4.74-1.74-7.76.45-.88.9-1.75,1.34-2.63l-.64-.27c-.45.75-.91,1.5-1.37,2.25-5.06,7.81-12.89,4.15-19.61,4.41-2.72.11-5.52-1.88-8.29-2.92,1.95-2.2,3.81-4.49,5.87-6.58C437,68,446.39,59.09,452.54,47.43c2.38-4.51,4.52-9.6,8.15-12.92C471,25.09,482.28,17,496.58,14.67Z"/><path class="cls-3" d="M572.49,139.33c-1.82,5.77-3.65,11.54-5.45,17.32-3.16,10.1-6.65,20.11-9.34,30.33-3.45,13.12-6.58,26.35-9.23,39.66-4,19.79-7.49,39.67-10.94,59.56-2,11.75-3.72,23.58-5.25,35.41-1.16,9-1.9,18.13-2.68,27.2-.5,5.78-.82,11.58-1,17.38-.13,3.91,1.64,6.25,5.93,6.19,4-.06,8,.18,12,.12,7.28-.1,11.16-2.78,11.73-10.05.89-11.22,1-22.53.91-33.8-.08-21.38-.64-42.75-.71-64.13,0-9.62.37-19.27,1.06-28.87,1.44-20,2.37-40.08,8.19-59.51,3.61-12,6.73-24.21,10-36.34a39.07,39.07,0,0,0,.66-5.59l-4.94,2.58c1.58-1.93,4-5.73,4.6-5.46,2.94,1.27,2.74,3.88,1.83,7-3.06,10.65-5.06,21.62-8.45,32.15-4.85,15.06-6.6,30.54-7.9,46.13-.83,9.83-1.17,19.7-2,29.53-.43,5.26-1.81,10.47-2,15.73-.31,9.62-.21,19.27,0,28.91.51,21,1.35,41.93,1.75,62.91a46.76,46.76,0,0,1-1.94,12.92c-1.35,5-9.07,8.8-14.59,8a95.31,95.31,0,0,0-11.19-1c-5.1-.15-8.2-2.94-7.83-7.87,1.15-15.16,2-30.36,3.81-45.44,1.69-13.65,4.62-27.14,6.91-40.71,2.7-15.95,4.88-32,8.08-47.84,2.5-12.42,6.26-24.58,9.35-36.89,1.63-6.51,2.53-13.23,4.59-19.58,3.75-11.53,8.09-22.86,12.26-34.25C571,140.36,571.89,139.9,572.49,139.33Z"/><path class="cls-3" d="M579.59,49.76c11.9,1.7,24,2.62,35.64,5.36,9.91,2.32,19.31,6.77,29,10.21,8.15,2.91,16.47,5.4,24.48,8.66,9.47,3.86,18.68,8.36,28,12.55.58.26,1.5,0,1.9.34,1,1,2.63,2.2,2.55,3.22s-2,2.77-3,2.68c-7.76-.68-15.71-.89-23.17-2.87-8.8-2.33-17-6.77-25.75-9.4-9.1-2.73-18.49-4.5-27.79-6.49-5.51-1.18-11.09-2.6-16.67-2.8-11.27-.41-22.68-1-33.81.28-10.76,1.27-21.31,4.66-31.82,7.61-3.4,1-6.58,3.19-9.5,5.33-6.81,5-13.55,9.86-22.43,10.53-2.79.21-5.5,1.78-8.28,1.87-5.93.21-8.54-3.56-5.87-9a34.68,34.68,0,0,1,18.67-17c5.06-2,9.89-4.72,15-6.53,13-4.6,26-9.18,39.26-13.07,4.12-1.22,8.9-.19,13.39-.19C579.47,50.62,579.53,50.19,579.59,49.76ZM574,52.65c-9.85-.32-24.17,5.3-38.48,10.48-8.07,2.92-15.54,7.46-23.56,10.56-7.62,3-12.51,8.5-16.37,15.15-2.38,4.08-1,5.67,3.68,5.46,10.73-.47,19.36-5.79,28-11.42A67.85,67.85,0,0,1,543.06,75a141,141,0,0,1,61.48-6.14c17,2.11,33.79,5.22,49.8,11.48C666.27,85,678,90.15,691.08,90.58a20.67,20.67,0,0,0,4.14-.68c-1-.88-1.78-2.12-2.92-2.58C671.88,79,651.54,70.51,630.93,62.7,614.53,56.5,597.41,53.21,574,52.65Z"/><path class="cls-3" d="M199.87,448.4c-3.82,3.65-7.74,7.21-11.43,11-2.75,2.81-5.22,5.91-7.78,8.83-4.83-3-4.21-6.18-1.91-10.41,4.74-8.7,8.79-17.78,13.33-26.59,1.11-2.17,3-3.92,4.56-5.86l-.09,0a61.4,61.4,0,0,1-2.51,7.25c-4.36,9-8.95,17.82-13.31,26.78-.71,1.45-.73,3.25-1.07,4.89,1.41-.85,3.19-1.39,4.2-2.59,12.41-14.69,24.63-29.54,37.06-44.22,17-20.15,34.22-40.17,51.32-60.26,7.27-8.54,6.94-15.61-.95-23.64a38.64,38.64,0,0,0-24.05-11.79c-3.86-.43-6.28.61-7.62,4.51-3.45,10.06-6.84,20.16-10.83,30-5.4,13.37-11.22,26.57-17.08,39.75-3.87,8.72-8.11,17.28-12.18,25.92l-1.54-.5a29.21,29.21,0,0,1,1.41-4.86c5.36-11.15,11.35-22,16.12-33.42,6.53-15.63,12.2-31.64,18.17-47.51,1.57-4.2,2.8-8.53,4.35-12.73,1.11-3,3.08-5.21,6.67-4.34,5.75,1.4,12.29,1.73,17,4.81,7.64,5,16.08,10.47,17.63,20.67a15.14,15.14,0,0,1-2.67,10.63c-8.61,10.68-18,20.69-26.9,31.18-6.21,7.35-11.83,15.21-18,22.61-7.13,8.6-14.72,16.81-21.8,25.45-3.75,4.58-6.83,9.7-10.22,14.57Z"/><path class="cls-3" d="M132.15,420.82c1.78-2.05,3.42-4.26,5.38-6.12,8.95-8.53,18-17,27-25.44,4.81-4.51,9.58-9.06,14.48-13.47q20.92-18.9,42-37.63c1.91-1.69,4.45-2.67,6.7-4-.39,2.36-.38,4.89-1.25,7.07-5.42,13.55-10.81,27.13-16.66,40.5-6.77,15.47-13.84,30.82-21.09,46.08-3.77,7.92-8.22,15.52-12.35,23.27-.77,1.45-1.93,2.85-2.19,4.39-.95,5.75-4.37,7.17-9.77,6.85-8.77-.52-15.92-3.15-21.08-10.93-4.83-7.3-10.53-14-15.95-21-2.58-3.28-2.07-4.75,3.92-8.12-5.35,7,1.29,10.22,3.65,14.15,4,6.61,9.24,12.52,14.35,18.37,4.88,5.59,12.15,5.24,18.54,5.1,2.2,0,4.8-5,6.33-8.13,9.9-20.27,19.77-40.56,29.2-61,7.07-15.36,13.5-31,20.11-46.57.59-1.39.42-3.1.6-4.66a20.89,20.89,0,0,0-3.94,2.28Q195,364.88,169.94,388q-18.33,16.88-36.72,33.67Z"/><path class="cls-3" d="M603.46,178.28c-.53,6.4-.62,12.87-1.69,19.18-2.54,15-5.86,29.93-8.27,45-3.61,22.57-7,45.18-9.91,67.84-1.88,14.62-3.06,29.35-3.9,44.06-.26,4.64,1.17,9.55,2.7,14,.71,2.09,3.33,4.6,5.41,4.94a92.81,92.81,0,0,0,17.33.86c1.12,0,2.91-2.56,3.13-4.12a83.46,83.46,0,0,0,1-14.37c-.86-28.73-2.26-57.43-2.78-86.16-.31-17.06.45-34.16,1.2-51.21.16-3.63,2.34-7.16,3.58-10.74-.86,7.58-1.74,15.16-2.58,22.75a41.29,41.29,0,0,0-.2,4.45c0,15.63-.25,31.27.06,46.89.42,21.79.81,43.6,2.13,65.35.51,8.44,1.09,16.74-.32,25.06-.23,1.31-2.19,3.24-3.43,3.3-6.6.35-13.32.84-19.79-.11-2.8-.41-6.38-3.68-7.43-6.46-3.59-9.55-2.74-19.62-1.63-29.59.51-4.55.9-9.11,1.46-13.65,1.24-10,2.61-20,3.84-30,1.06-8.57,1.86-17.18,3-25.73.93-6.71,2.28-13.36,3.41-20.05.25-1.44.32-2.91.58-4.34,1.19-6.63,2.36-13.25,3.63-19.86,1.77-9.19,3.61-18.37,5.45-27.54C600.77,191.43,602.13,184.86,603.46,178.28Z"/><path class="cls-3" d="M199.75,448.51c4-3.78,8.28-7.27,11.82-11.41,7.5-8.75,14.53-17.9,21.88-26.78s14.61-17.34,22-26a79.07,79.07,0,0,1,6.67-7.36c1.12-1,3-1.25,4.51-1.84,0,1.46.34,3.07-.16,4.34-5.13,13.21-10.5,26.33-15.6,39.56-2.93,7.58-5.23,15.4-8.25,22.94-4.58,11.43-9.64,22.67-14.32,34-2.72,6.61-5.07,13.37-7.69,20-1.43,3.62-4.68,4.24-8.32,3.29-6.59-1.74-12.29-4.65-16.87-9.7-2.14-2.37-4.38-4.65-6.41-7.1-1.54-1.85-2.72-4-4.26-5.86-2.48-3-2.52-5.62.15-8.6,4.49-5,8.8-10.13,13-15.34,1-1.19,1.33-2.88,2-4.34Zm63.59-66.17c-.26-.31-.84-1.18-1-1.12a8.25,8.25,0,0,0-2.77,1.76c-8.25,9.7-16.39,19.49-24.62,29.2-16.09,19-32.26,37.9-48.23,57-1,1.21-1.56,4.14-.82,5.28,6.74,10.28,14.7,19.24,27.07,23.06,3.31,1,4.75.13,5.92-3.06,2.21-6.06,5-11.91,7.35-17.91,5.75-14.48,11.38-29,17.11-43.49,4.81-12.16,9.72-24.29,14.54-36.45C259.76,392,261.46,387.3,263.34,382.34Z"/><path class="cls-3" d="M199.68,288.7c6.43-1.55,9.77,2.68,13.09,7l.08-.06a27.54,27.54,0,0,1-4-1.66c-5.93-3.61-12.4-1.42-15.41,4.83C185.2,316,176.73,333,168.33,350.16c-6.87,14-13.8,28-20.59,42-.62,1.29-.37,3-.52,4.51a18.09,18.09,0,0,0,3.62-2.17c7.82-7.62,15.32-15.58,23.36-22.95,18.48-16.94,34.81-36.22,55.46-50.81,4.3-3,4.05-4.11.2-8.08-2.8-2.9-5.36-6.05-8-9.08l-.08.09c4.27,4.05,8.63,8,12.7,12.26.55.57.13,3.08-.66,3.76-4.9,4.28-10.1,8.21-15.06,12.42-3.64,3.08-7.16,6.32-10.56,9.66-7,6.91-13.9,14-20.93,20.89q-21,20.58-42.06,41a33,33,0,0,1-4.62,3.21l-1.39-.89c1.51-3.62,2.83-7.32,4.57-10.82,3.48-7,7.35-13.84,10.77-20.88,6.85-14.12,13.47-28.36,20.26-42.5,5.54-11.53,11-23.11,16.95-34.43,1.45-2.75,4.73-4.53,7.09-6.82a6.5,6.5,0,0,0,1-1.92Z"/><path class="cls-3" d="M338.59,159c2.45-7.82,4.36-15.87,7.48-23.41,5.39-13,11.55-25.72,17.36-38.57,2.17-4.79,1.54-5.87-3.61-6.09-10.63-.46-21.27-1.27-31.9-1.21-18.43.09-36.17,4.6-53.83,9.41-21,5.73-41.54,13.08-60.71,23.31C203.12,128,194.23,136,184.87,143.14c-5,3.79-9.69,8-14.59,12a6.87,6.87,0,0,1-2.5.66c2.37-2.53,4.51-5.33,7.15-7.55,8.89-7.46,17.6-15.2,27-21.93,12-8.54,25.48-14.11,39.53-18.51,8.24-2.59,16.13-6.29,24.38-8.87,6.86-2.15,14-3.37,21-5,6.21-1.47,12.35-3.46,18.64-4.36C316.29,88,327,85.41,338.09,87.65c4.64.94,9.62,0,14.44.2a106.94,106.94,0,0,1,11.72,1c3.56.52,4.12,4.54,1.91,9.16-3.33,6.92-6.29,14-9.47,21-3.49,7.67-7.07,15.31-10.56,23C343.57,147.7,341.1,153.38,338.59,159Z"/><path class="cls-3" d="M791.19,171.73c-.25,1.22-.2,2.61-.8,3.63-11.77,20.06-17.67,42.13-21.93,64.71-3.59,19-5.78,38.41-10.61,57.11-3.87,14.94-10.53,29.2-16.47,43.56-3.47,8.38-8,16.34-12,24.52a13.25,13.25,0,0,0-.69,2.79,30.87,30.87,0,0,0,3.32.16c1.31-.06,2.81-.81,3.87-.39,3.6,1.43,5.63-.54,7.67-2.89,9-10.27,14.63-22.4,19.39-35,3.62-9.58,6.67-19.38,10.08-29a15.51,15.51,0,0,1,2.25-3.27c-2.46,9-4.49,18.06-7.49,26.83-4.35,12.75-9.85,24.93-17.68,36.17-4.44,6.37-8.71,10.84-16.87,9.92a8.31,8.31,0,0,0-1.9.38c-2.08.31-4.17.59-6.26.88a36.65,36.65,0,0,1,1.59-6.12c7.88-17.6,15.95-35.12,23.79-52.74A142.66,142.66,0,0,0,757,296c1.29-4.3,1.52-8.91,2.3-13.37,3.67-20.89,6.53-42,11.32-62.61,3.66-15.74,8.52-31.41,17.61-45.22A22.26,22.26,0,0,1,791.19,171.73Z"/><path class="cls-3" d="M461.41,624.28c-.92-1-2.28-1.88-2.68-3.06-3.75-11.12-8-22.13-10.81-33.49-3.94-15.89-7.43-32-9.85-48.14-1.43-9.51-.45-19.39-.5-29.1,0-7.65.13-15.3-.06-22.94-.05-2.07-1-4.11-1.6-6.16-2.49,1.66-5.69,2.82-7.28,5.1-1.79,2.59-2.5,6.12-3.05,9.34-1.23,7.12-2.12,14.15-.7,21.54,3.91,20.32,7.14,40.77,10.66,61.17,2.3,13.34,7.48,25.61,14,37.38,3.75,6.82,7.56,13.61,11.21,20.49.65,1.24.61,2.84.89,4.28-2.38-3.31-5.25-6.37-7-10-5.9-11.92-11.48-24-17-36.09-4.86-10.61-5-22.27-7-33.5-2.62-14.49-6-28.89-7.58-43.48-.95-8.85.89-18,1.57-27,.19-2.46.74-4.89,1.12-7.34l-.11.13a39.91,39.91,0,0,1,4.76-2.18c2.38-.74,4.94-1.78,7.24-1.46.94.14,2,3.5,2,5.4.17,14.61-.47,29.25.27,43.83.57,11.15,2.76,22.23,4.31,33.33.69,4.95,1.32,9.94,2.48,14.79s3,9.42,4.45,14.13q3.27,10.32,6.49,20.66C458.86,616,460.13,620.17,461.41,624.28Z"/><path class="cls-2" d="M742.24,380.88V381c.33,8.1.76,16.2.93,24.3.15,7.21-5.92,11.65-12.93,9.43-1.3-.41-3-1.89-3.19-3.09-1.43-9-3-18-3.56-27-.35-5.3,4.75-7.16,8.69-9.12,3.39-1.7,5.56.17,7.05,3.28.22.46,1.4.45,2.13.66l0,0Z"/><path class="cls-3" d="M873.22,698.12c-1-.62-2.44-1-3-1.92-6.54-10.15-13.2-20.24-19.37-30.62-17.39-29.26-31.66-60.05-44.38-91.58q-21.18-52.53-42.38-105c-5.09-12.58-10.22-25.14-15.49-37.63-1.44-3.43-3.49-6.61-5.26-9.9,1.24.73,3.06,1.16,3.61,2.23,3.31,6.49,6.62,13,9.37,19.74,4.76,11.69,9.05,23.57,13.66,35.32,4.53,11.56,9.09,23.11,13.85,34.58,4,9.61,8.44,19,12.38,28.65,3.26,8,5.84,16.2,9.13,24.14,6.13,14.76,12.4,29.47,18.93,44,3.73,8.34,7.76,16.57,12.21,24.54,8.9,15.94,18.17,31.67,27.32,47.47C866.87,687.5,870.07,692.8,873.22,698.12Z"/><path class="cls-3" d="M305.73,664.78c1.66,3.58,3.41,7.13,5,10.76q11.13,26.1,22.2,52.25c1.05,2.46,2.22,4.87,3.34,7.31l1.43-.44c-1.34-8.71-2.5-17.45-4-26.13-4.76-26.76-9.88-53.46-14.38-80.26-1.09-6.49-.5-13.28-.4-19.93.05-3.46-1-5.9-4.41-6.87a75.51,75.51,0,0,0-11.54-2.81c-6.37-.79-9.77,2.21-10,8.74-.13,3.44.57,6.91.9,10.37l1,10.77c-3.3-8.73-4.91-17.68-3.1-27,.71-3.64,7.54-6.43,13-5.31,4.25.88,8.6,1.58,12.61,3.15,1.58.62,3.22,3.27,3.35,5.11.64,8.88.47,17.83,1.22,26.7.53,6.28,2.07,12.48,3.18,18.7,2.23,12.43,4.4,24.86,6.72,37.27,1.66,8.87,3.65,17.69,5.26,26.57,1.1,6,1.91,12.15,2.67,18.25.61,4.83.95,9.69,1.42,14.54l-1.71.68c-2.25-4.42-4.65-8.78-6.73-13.28-3.77-8.12-7.61-16.22-10.95-24.52-5.24-13.06-10.13-26.27-15.07-39.45A28.57,28.57,0,0,1,305.73,664.78Z"/><path class="cls-3" d="M400.5,347.84c-.67-1.47-1.9-2.94-1.93-4.42-.46-31.56-1.29-63.12-1-94.67.2-20.57,3.55-40.93,8.44-60.94,6.08-24.92,12.47-49.77,18.62-74.67.45-1.83.06-3.86.06-5.8l-1.22-.58a64.38,64.38,0,0,0-4.12,7.31c-5.94,14.59-11.7,29.25-17.63,43.84-.6,1.47-2,2.63-3,3.94,1.36-4.6,2.43-9.3,4.14-13.76,4.53-11.79,9.28-23.49,14.06-35.18,1.75-4.28,3.76-8.46,5.87-12.57.53-1,1.92-1.62,2.91-2.41.64,1.22,1.71,2.4,1.83,3.67.83,8.58-1.32,16.71-3.72,24.89-3.66,12.45-6.86,25-10.14,37.59-1.95,7.47-4,14.94-5.45,22.5q-3.63,18.82-6.53,37.78c-3.77,24.4-3.07,49-3,73.59.05,15.05.56,30.11.94,45.16A29.92,29.92,0,0,0,400.5,347.84Z"/><path class="cls-2" d="M257.26,573.32h0c1.69-.23,3.51-.15,5.06-.75,4.52-1.74,7.5-.6,9.37,4,.63,1.54,2,2.78,3,4.16v.07q0,4.49,0,9c.16,1.82.32,3.63.47,5.45-3.53-.57-7.15-.8-10.56-1.78a11.9,11.9,0,0,0-14.78,7.91l0,0c-3.5.06-4.39-1.79-4.06-5,.27-2.75.05-5.56.05-8.34l5.06-11.37Z"/><path class="cls-3" d="M684.25,351.13c0-11.4-.64-22.84.14-34.18,1.26-18.1,2-36.37,8.09-53.76.48-1.36,2-2.37,3-3.54,1.29,1.24,3.15,2.25,3.77,3.76,4.5,10.84,1.67,22,1.3,33.09-.38,10.88.22,21.82.76,32.71.35,7.16,1.4,14.28,2.08,21.42s1.24,14.3,2,21.43c.28,2.82-.62,3.7-3.52,3.5-4.31-.29-8.65-.08-13,0-4.07.05-6.12-1.17-5.69-6,.54-6.1.13-12.29.13-18.45Zm0,4.44,1.09.09c0,4.65-.14,9.31.09,14,.06,1.18,1.08,3.14,2,3.31,4,.82,8.16,1.07,12.24,1.63,3.36.47,4-1.28,3.66-4.1-1.18-9-2.65-18-3.43-27.11-1.56-18-3.14-36-.85-54.1.84-6.7.31-13.6,0-20.39-.06-1.33-2-2.56-3.14-3.84-.87,1.2-2.27,2.3-2.53,3.62-1.21,6.33-2.45,12.69-3.06,19.11C688.09,310.34,686.2,333,684.22,355.57Z"/><path class="cls-3" d="M500.56,60c.95-1.35,1.66-3,2.91-4,8.45-6.63,18.43-9.33,28.75-11.68,21.24-4.83,42.48-10.24,64.41-8.18,12,1.12,23.62,5,35.52,7a183.22,183.22,0,0,0,52.08,1c1.09-.13,2-1.3,3.07-2-1-.89-1.92-2.31-3.1-2.6-13.35-3.27-26.76-6.33-40.14-9.54-3.37-.81-6.67-2-10-3,10.47.72,20.72,2.35,30.7,6,4.79,1.74,10.13,1.91,15.19,3a42.16,42.16,0,0,1,8.22,2.4c1.24.53,3,2.42,2.75,3.31-.37,1.59-1.74,3.65-3.18,4.16a31.19,31.19,0,0,1-10.31,2.07c-12.07-.06-24.18,0-36.18-1.09-8.26-.74-16.41-3.08-24.52-5.08-12.77-3.14-25.58-5-38.75-3.06C568,40.2,558,41,548.15,43.16c-11.08,2.41-22.63,3.36-32.95,8.66C510.23,54.37,505.43,57.26,500.56,60Z"/><path class="cls-3" d="M867.19,266.74c2.12-2.09,4-4.46,6.38-6.21,17.74-13.1,36.3-24.91,56.26-34.35,5.52-2.61,11.5-4.25,17.22-6.49a38.32,38.32,0,0,0,6.42-3.33,28.5,28.5,0,0,0,3.68-3.3c-1.48-.92-2.92-1.93-4.44-2.77-6.68-3.66-13.74-3.68-20.81-1.6-15.71,4.62-32,8-46.14,16.58-8.68,5.28-16.21,12.42-24.37,18.58-3.27,2.46-6.84,4.54-10.27,6.79,5.48-5.3,10.56-11.13,16.56-15.77A165.7,165.7,0,0,1,890.59,220c5.83-3.12,12.45-4.85,18.84-6.81,8.19-2.5,16.44-4.84,24.76-6.83,8.72-2.08,16.85.25,24.4,4.63,2.65,1.54,1.91,5.24-1.31,6.68-13.58,6.1-27.25,12-40.76,18.25a97.84,97.84,0,0,0-12.4,7.44c-11,7.26-22,14.66-33,21.94A19.55,19.55,0,0,1,867.19,266.74Z"/><path class="cls-3" d="M654.31,190.28c-2.41-1.19-3.67.09-4.49,2.14-6,14.88-8.94,30.45-10.57,46.31-1.86,18.12-3.74,36.24-5.46,54.37-.9,9.58-1.64,19.18-2.14,28.79-.64,12.23-1.32,24.49-1.26,36.73,0,4.84,1.88,9.7,3.2,14.46.22.78,2,1.57,3.08,1.6a133.12,133.12,0,0,0,15-.08c1.29-.1,3.36-2.08,3.47-3.34.57-6.26.59-12.57.83-18.85.12-3.12.28-6.25.43-9.37a26.37,26.37,0,0,1,1,4.11,117.51,117.51,0,0,1,1,13.22A111.75,111.75,0,0,1,657,373.49c-.47,3.37-3.15,4-5.94,4.11s-5.63.11-8.44,0c-3.11-.11-8,.74-9-.81a32,32,0,0,1-5.08-14.26,227.74,227.74,0,0,1-.13-30.91c.75-11.83,2.68-23.59,3.87-35.4.59-5.88.59-11.81,1-17.7.93-12.71,1.62-25.45,3.07-38.11,1.49-12.9,2.22-26,7.66-38.17,1.67-3.75,2.65-7.82,4.42-11.52.63-1.33,2.59-2.08,4.07-2.87A20.09,20.09,0,0,1,654.31,190.28Z"/><path class="cls-3" d="M335,625.29c-.45-1.86-1.43-3.78-1.21-5.56.28-2.26.93-5,2.46-6.49,5.06-4.86,14.48-5,20-.83.14.1.21.29.35.35,7.89,3.2,6.19,9.75,6.11,16.15-.26,19.59,0,39.19-.16,58.79,0,2.35-1.07,4.7-1.64,7-1.63-1.85-3.85-3.44-4.8-5.59-6-13.76-12.27-27.46-17.45-41.55-2.57-7-3-14.75-4.44-22.17Zm25,1.54c.85-6.86-5.71-14.06-12.7-14.72-4.09-.39-11.25,4.45-10.92,7.61,1.36,13.36,3,26.65,8.87,39,3.81,8.07,7.43,16.24,11.23,24.32a22.58,22.58,0,0,0,2.65,3.61,20.38,20.38,0,0,0,.83-4.08C360.05,664,360,645.41,360,626.83Z"/><path class="cls-3" d="M834.57,390.56c-6.22,1.31-12.4,2.86-18.66,3.88-7.37,1.19-14.8,2.64-22.21,2.65-10.06,0-20.12-1.17-30.18-2-3.28-.26-6.52-1.24-9.8-1.32-1.4,0-4.13,1.64-4,2.1.43,2.18,1.15,4.7,2.67,6.15,1.93,1.84,5.08,2.38,7.09,4.17,6.91,6.1,15.51,5.27,23.64,6.09,22.75,2.27,45.38-.8,68.06-1.9,17.74-.86,35.48-1.87,53.21-2.88,3.63-.21,7.24-.72,10.86-1.1-3.05,1.05-6,2.7-9.16,3-6.86.72-13.8.76-20.7,1.09-13.64.66-27.28,1.28-40.91,2-12.14.63-24.27,1.52-36.41,1.94a280,280,0,0,1-28.39,0c-8.23-.56-16.92-.69-23.14-7.92-1.08-1.26-3.62-1.15-5.26-2.07-1.4-.79-3.37-2.06-3.5-3.29-.32-3,.23-6.08.58-9.11,0-.24,1.18-.56,1.78-.5,6.62.7,13.26,1.28,19.84,2.25,10.53,1.54,20.95,2.61,31.56.09,6-1.42,12.21-1.78,18.36-2.39C824.74,391,829.67,390.86,834.57,390.56Z"/><path class="cls-3" d="M481.71,562.38c-3.31-6-7.27-11.73-9.82-18-8-19.82-15.5-39.85-23.18-59.79a14.43,14.43,0,0,0-1.11-2.77c-.39-.6-1.23-1.31-1.81-1.26s-1,1-1.39,1.68a2,2,0,0,0-.06,1c.37,14.7,2.22,29.08,9.33,42.28,12.56,23.32,25.2,46.6,37.74,69.93a19.24,19.24,0,0,1,1.16,4.13c-2.67-3.93-5.66-7.67-7.95-11.81-7.47-13.52-14.64-27.21-22-40.79-4.6-8.46-9.94-16.58-13.84-25.35-2.43-5.45-2.89-11.81-4.05-17.8A162.41,162.41,0,0,1,442,487c-.24-2.77.18-7.53,1.65-8.14,3.6-1.49,6.53,1.06,7.82,4.92,3.38,10.18,6.41,20.5,10.3,30.48,4.34,11.15,9.56,22,14.24,33C478.1,552.2,479.82,557.33,481.71,562.38Z"/><path class="cls-2" d="M584,538.36h-.06l1.6-.07h0c1.58.79,3.12,2.18,4.74,2.27,9.19.56,18.58-.36,27.12,4.28,0,1.34,0,2.69,0,4-7.07.46-14.16,1.41-21.21,1.19a53.64,53.64,0,0,1-15.25-3c-9.35-3.16-18.45-7-27.72-10.46-1.42-.52-3.16-.16-4.76-.21h0L540,528.76l8.33,2.69,6.86,1.06c6.16,2,12.22,4.39,18.5,5.89C576.92,539.18,580.52,538.42,584,538.36Z"/><path class="cls-3" d="M757.32,360.33c-.22,1.12-.13,2.47-.73,3.34-2.44,3.54-5.18,6.89-7.63,10.42A6.43,6.43,0,0,0,747.6,378c.87,7.29,3,8.42,8.53,3.46,9.2-8.31,18.22-16.89,26.58-26,23.23-25.42,45.95-51.31,69.19-76.72,4.32-4.72,10.18-8,15.33-12-3.67,3.83-7.35,7.64-11,11.5s-7.07,7.48-10.45,11.36c-6.07,7-11.91,14.13-18,21-11.38,12.84-22.66,25.8-34.45,38.26-8.82,9.32-18.33,18-27.61,26.87-4.07,3.89-8.19,7.76-12.55,11.33-2.43,2-4.5,2.38-6.09-1.8-2.25-5.94-3.11-11,2.09-15.88C752.12,366.63,754.61,363.36,757.32,360.33Z"/><path class="cls-3" d="M56,469c1.33,1.14,3.05,2.05,3.94,3.47C72.09,491.9,84,511.53,96.3,530.87c9.16,14.37,18.21,28.87,28.49,42.41C134,585.4,147.41,592.59,161.07,599c5.09,2.37,10.21,4.66,15.23,7.15a19.55,19.55,0,0,1,3.57,3c-1.43-.17-3.07.08-4.26-.55-15.14-8.06-30.44-15.86-45.16-24.64-4.4-2.63-7.44-7.86-10.54-12.28-7.68-10.94-15.33-21.92-22.41-33.24-4.12-6.58-6.73-14.08-10.73-20.75-5.3-8.82-11.23-17.27-17-25.8-4.41-6.54-9-12.94-13.42-19.49C55.79,471.5,56.08,470.11,56,469Z"/><path class="cls-3" d="M242.72,583.51c.29-1.94.09-4.12.92-5.78,14.35-28.58,28.26-57.41,43.52-85.5,7.68-14.14,18.1-26.78,26.86-40.37,6.63-10.28,12.72-20.93,18.81-31.55,2-3.43-.79-4.15-3.51-4.64-7.29-1.3-14.56-2.71-21.85-4.07,8,.61,16,1,23.89,1.93,4.83.58,5.87,3.48,3.36,7.82-5.65,9.75-11,19.66-17.12,29.14-5.65,8.8-12.45,16.87-18,25.71-6.66,10.56-12.61,21.55-18.75,32.42-4.23,7.48-8.41,15-12.37,22.63-5.6,10.79-11.82,21.37-16.13,32.67C249.68,570.86,246.86,577.43,242.72,583.51Z"/><path class="cls-3" d="M411.54,625.28l5.08,2.57c.16-2.58.72-5.2.41-7.72-3.39-28.07-5.7-56.22-4.06-84.49.69-11.86,2.93-23.65,5-35.39A122.44,122.44,0,0,1,423,481.17c1.61-4.64,4.34-8.61,10.51-8,3.22.31,4.11-2.1,4.08-5-.07-7.32-.13-14.65,0-22,.05-3.34-1.06-5.25-4.59-5.91-1.62-.3-3-1.78-4.54-2.73,9.29-.19,11.22,1.64,11.22,10.59,0,7.12-.11,14.24,0,21.35.09,4.06-1.25,6.19-5.65,6-5.32-.2-7,3.85-8.49,7.89l.11-.13c-1.31,3.34-3,6.58-3.87,10-2.16,8.72-3.95,17.54-5.88,26.33a10.68,10.68,0,0,0-.28,1.94c-.33,15.38-1.52,30.81-.73,46.14.74,14.28.19,28.72,3.6,42.87,1.33,5.49.92,11.44.95,17.18,0,1.36-1.35,2.74-2.08,4.11-1.2-.64-2.72-1-3.51-2C412.78,628.61,412.28,626.85,411.54,625.28Z"/><path class="cls-3" d="M651.44,453.48c0,19.31,0,38.61-.06,57.91,0,2.57-1.09,5.14-1,7.68.28,6.39,1.37,12.76,1.37,19.14,0,5.27,3.75,9.74,1.84,15.54-2.19,6.67-8.22,9.51-13.51,4.72a34.83,34.83,0,0,1-11.74-24.15c-.2-3,0-6,0-9-.33-15.89-.92-31.78-1-47.66,0-9-.27-17.79-3.89-26.36-2.31-5.46,1.34-8.15,7.3-7.37a71.93,71.93,0,0,0,16.71-.29c3.84-.41,7.12-.14,8.3,3.79,1,3.26-1.09,5.36-4.39,6.07a6.64,6.64,0,0,1,.21-1.86c2.32-5.39,2-6-3.68-6-6,0-12,.09-18-.06-3.64-.08-4.71,1.09-3.77,4.79,1.42,5.6,3.13,11.31,3.25,17,.41,19.79-.16,39.59.36,59.37.27,10.16,2.31,20.32,10,27.89,2,2,5.82,3.06,8.68,2.84,1.13-.09,2.11-4.77,2.76-7.46.33-1.36-.23-2.94-.4-4.42-.85-7.4-2.43-14.8-2.4-22.2.06-14.25,1.23-28.49,1.51-42.74.15-7.61-.71-15.24-.79-22.87C649.14,456.36,650.64,454.92,651.44,453.48Z"/><path class="cls-3" d="M570.64,477.49c0-9.89-.22-19.79.27-29.66.06-1.21,4-3.35,5.92-3.16,9.38.93,18.67,2.71,28,3.76,3,.34,3.75,1.67,3.43,4.13-.64,4.81-1.46,9.6-2.17,14.4-1.27,8.49-2.9,17-3.66,25.49-1,11.43-1.21,22.94-2.2,34.37-.15,1.63-2.73,4.16-4.39,4.34a79.06,79.06,0,0,1-15.91,0c-1.64-.16-3.89-2.3-4.42-4a61.57,61.57,0,0,1-3-14.14c-.84-11.83-1.13-23.69-1.65-35.54Zm2.81-2.71-1.35.12c1.41,14.15,2.16,28.41,4.4,42.42,2.57,16,1.16,12.22,16,12.77,3.86.14,5.22-1.46,5.26-5.32a202.49,202.49,0,0,1,1-22.86c2-16.1,4.42-32.15,7-48.18.51-3.22-.2-4.09-3.26-4.39-8.24-.82-16.46-1.87-24.67-2.93-3.15-.41-4.53.38-4.42,3.94C573.62,458.48,573.45,466.63,573.45,474.78Z"/><path class="cls-3" d="M587.49,84.86c-10.93-3-20.8,2.25-31.06,4.19-11.23,2.13-22.32,5-33.45,7.56a12.55,12.55,0,0,0-3,1.7,19.7,19.7,0,0,0,3.43,1.6c17.34,4.39,34.56,6.13,52.6,2.85,20.36-3.71,39.61,1.37,56.73,13.3,4.85,3.38,9.35,7.25,14,10.9-6.36-3.75-12.81-7.37-19.08-11.28-10.31-6.43-21.35-9.59-33.54-11.05-15.12-1.82-29.48,4.31-44.4,2.31-9.37-1.27-19-1.38-27.69-5.8-2.63-1.33-5.43-2.34-8.15-3.5,2.83-1.09,5.57-2.53,8.49-3.21,10-2.34,20.08-4.36,30.1-6.6,8.15-1.81,16.2-4.23,24.44-5.43C580.25,81.92,584,84,587.49,84.86Z"/><path class="cls-3" d="M486.13,371.85c5.88.9,12.19.79,17.49,3,3.89,1.64,7.08,6,9.49,9.84,5.39,8.6,4.5,18.27,3,27.73a57.21,57.21,0,0,1-3.59,11.34c-2,5.09-6.35,6.92-11.42,7.77-7.66,1.29-15-.51-22.41-1.9a33.18,33.18,0,0,0-10.88.26c-4.34.67-5.71-.28-5.3-4.57,1.36-14.12,2.72-28.25,4-42.38.61-6.83,4.08-10.27,11.09-10.49,2.82-.09,5.65,0,8.48,0Zm7.68,58c13.18-.43,15-1.69,18.69-14.13a62.24,62.24,0,0,0,1.93-11.22c1.64-15.64-7.75-31.49-26.8-30.11-5,.36-9.95.55-14.87,1.2a4.34,4.34,0,0,0-2.91,2.89c-1.83,15.27-3.46,30.56-5.11,45.86-.3,2.72.5,3.74,3.68,3.43a74.06,74.06,0,0,1,13.14.28C485.66,428.42,489.73,429.25,493.81,429.87Z"/><path class="cls-3" d="M249.8,601.32a11.9,11.9,0,0,1,14.78-7.91c3.41,1,7,1.21,10.56,1.78-2,4-5,2.07-7.79,1.32-9.18-2.48-7-2.93-10.8,1.12l11.63,2.7c-5.1-.45-9.64-.33-13.89,3.83-6.16,6-7.88,13-2,19.22,5.59,6,8,13.16,9,20.55,2.8,20,11.62,37,24.14,52.47,1.87,2.3,3.35,4.92,5.15,7.28a7.76,7.76,0,0,0,2.31,1.41c.3-1,1-2.08.83-3-.68-3.41-1.76-6.75-2.45-10.16a45.4,45.4,0,0,1-.46-5.86c.67.32,1.83.51,1.93,1,1.51,6.59,3,13.19,4.16,19.86.21,1.23-1.22,2.74-1.89,4.12-1.11-.68-2.52-1.12-3.27-2.07-4.52-5.79-9.33-11.43-13.21-17.64-5.51-8.82-11-17.79-15.15-27.27-2.73-6.2-3.4-13.37-4.58-20.17-1.12-6.48-2.86-12.5-7.38-17.57-4.93-5.52-7.46-15.35-.63-21.69,1-.89,1.36-2.4,2.15-3.86Z"/><path class="cls-3" d="M593.87,438.39c-5,0-10.76.08-16.55,0-4.32-.08-6.28-2.48-5.86-6.49,1-9.56,1.91-19.13,2.9-28.69.63-6,1.14-12,2.18-17.91a5.64,5.64,0,0,1,3.69-3.66c8.63-1.41,17.33-2.43,26-3.48,6.33-.76,10.4,3,11.24,9.54.7,5.41,2.93,10.79,2.75,16.12-.29,8.14-1.08,16.46-5.46,23.79-1.16,1.93-2.44,3.78-3.66,5.68C607.09,439.58,600.78,438.68,593.87,438.39Zm-4.33-2v.18H592c6,0,12.49,1.6,16.69-4.73a66.66,66.66,0,0,0,5-8c6-12.46,4.42-25.1.93-37.89-1.09-4-3.08-5.82-7-5.39-8.56.95-17.11,2-25.61,3.3-1.11.17-2.61,2.13-2.77,3.4-1.81,14.62-3.36,29.27-5.06,43.9-.43,3.72.5,5.67,4.76,5.26C582.53,436.14,586.05,436.4,589.54,436.4Z"/><path class="cls-3" d="M741.77,421.55c-1.43,2.22-2.72,4.54-4.31,6.63-6.47,8.46-2.74,16.38.76,24.64,6.7,15.85,13.67,31.66,19.18,47.94,5.19,15.33,8,31.48,13.07,46.84,4.64,14,11,27.35,16.52,41a37.08,37.08,0,0,1,1.29,5.16c-1.37-1.86-3.18-3.54-4-5.62-6-14.32-12.52-28.48-17.46-43.17-4.17-12.42-6-25.62-9.69-38.22-2.94-9.95-7-19.57-10.91-29.22-5-12.39-10.27-24.64-15.32-37C729.07,436.21,737,422.68,741.77,421.55Z"/><path class="cls-3" d="M543.05,377.94c4.69.56,9.4,1,14.07,1.71,7.59,1.14,9.72,7,10.13,13.29.55,8.3,1.16,16.79,0,25C565.6,430,562.12,435.16,549,437.34c-7.87,1.31-16,1-24.08,1.11-4.36.05-5.35-2.12-4.76-6.55,1.33-10,2.29-20.07,3.36-30.12.68-6.48.79-13.09,2.26-19.39.41-1.78,4.59-3.25,7.26-3.79,3.2-.65,6.63-.15,10-.15Zm-9.85,59.5c6.17-1.07,12.42-1.86,18.51-3.28a15.3,15.3,0,0,0,11.5-10,54.84,54.84,0,0,0,1.84-32.29c-2.14-9.09-5.23-11.12-14.75-11.14-6,0-11.93.62-17.89.61-3.74,0-4.71,1.67-5,5.1-1.18,12.85-2.44,25.7-4.12,38.49C521.71,436.73,521.45,436.7,533.2,437.44Z"/><path class="cls-3" d="M775.28,297.7c.07-2.14-.23-4.36.26-6.39,4-16.58,8-33.17,12.21-49.69,2.86-11.13,5.72-22.29,9.3-33.2a163.27,163.27,0,0,1,23.33-45.26c4.47-6.14,8.71-12.45,13.12-18.63a22,22,0,0,1,2.75-2.71c-1,2.48-1.59,5.18-3,7.41-9,14.5-18.62,28.65-27.1,43.45-4,7-6.16,15.13-8.75,22.88-2.37,7.11-4.41,14.35-6.19,21.63-2.82,11.55-5.22,23.2-8,34.77-1.91,8.11-4,16.17-6.18,24.22C776.94,296.81,775.91,297.2,775.28,297.7Z"/><path class="cls-3" d="M928.05,781.11c2.53.9,5.41,1.3,7.54,2.77,10.72,7.37,22.58,12.35,34.29,17.85,14.19,6.67,29.33,7.59,44.24,9.94,4.84.77,10.07-.93,15.79-1.57-3-5.6-7.87-7-12.3-9.06-3.27-1.52-6.39-3.38-9.57-5.08,6.34.92,12.52,2.25,17.65,6.45a11.11,11.11,0,0,1,2.33,1.85c1.52,2.23,2.85,4.6,4.26,6.91a46.73,46.73,0,0,1-6.45,1.76c-12.32,1.57-24.39,0-36.52-2.32a125.07,125.07,0,0,1-38.39-14.55q-10.23-5.77-20.29-11.87C929.55,783.54,928.9,782.16,928.05,781.11Z"/><path class="cls-3" d="M398.68,165.5c-2.77,12.61-5.8,25.18-8.27,37.85-4.4,22.62-8.52,45.3-12.65,68-2.94,16.13-5.73,32.29-8.54,48.45-.88,5.07-2,10.15-2.19,15.25-.08,2.85,1.64,5.75,2.55,8.62-4.64-.72-5-5.28-4.72-7.81,1-9.74,3.18-19.35,4.66-29,1.52-9.94,2.69-19.93,4.12-29.88.51-3.51,1.37-7,2-10.46,3.3-17.3,6.52-34.62,9.91-51.9,2.57-13.11,5.14-26.22,8.16-39.22C394.55,171.86,397,168.77,398.68,165.5Z"/><path class="cls-3" d="M689.05,443.42c2.44-.24,7-.52,11.55-1.19,4.79-.71,7.71,1.9,6.22,6.26-2.69,7.88-5.43,15.76-8.66,23.43-4.72,11.25-9.79,22.37-14.95,33.43-.87,1.87-2.9,3.19-4.4,4.77-1.36-1.62-3.15-3.05-4-4.9a21.71,21.71,0,0,1-1.47-7.09c-.83-11.88,1.11-23.54,2.87-35.22.56-3.69.51-7.49,1.14-11.17C678.79,443.4,678.89,443.42,689.05,443.42Zm11.61,2c-5.63,0-11.26.08-16.88,0-2.48-.05-3.47.81-3.78,3.35-1.47,12.36-3.49,24.67-4.59,37.06-.51,5.68.51,11.54,1.17,17.27.16,1.39,1.68,2.61,2.57,3.91,1-1.2,2.36-2.25,3-3.63,3-6.65,5.93-13.32,8.63-20.09,4.43-11.09,8.68-22.25,13-33.4C704.87,446.89,704.74,444.53,700.66,445.43Z"/><path class="cls-3" d="M665.38,386.45c2.32,2.5,5.92,4.66,6.72,7.58a145.4,145.4,0,0,1,4.21,23.38c.74,7-2.94,12.54-8.25,16.79a41.76,41.76,0,0,1-8.7,5.18,8.18,8.18,0,0,1-4.88.09c-7-1.66-14-3.52-21-5.31-3.58-.92-5.31-2.76-5.18-6.92.33-10.46.1-20.95.09-31.43a14.81,14.81,0,0,1,0-1.49c.39-4.28-3.71-10,1.63-12.55,6-2.84,13.09-4.95,19.81-2.95,5.47,1.64,10.42,5,15.61,7.66-2-.53-4.34-.61-6-1.67-8-5.1-16.68-3.47-25.16-2.22-1.68.25-4.24,2.89-4.29,4.49-.39,12.72-.23,25.46-.34,38.2,0,3.63,1.72,5.38,5,6.3,5.9,1.63,11.68,3.76,17.64,5.09a15,15,0,0,0,8-.79c2.4-.89,4.28-3.09,6.55-4.45,5.2-3.11,6.6-7.88,6.59-13.54C673.39,406.71,671.63,396,665.38,386.45Z"/><path class="cls-3" d="M67.89,360c-2.48-2.44-5.3-4.62-7.37-7.37-2.28-3-3.81-6.58-5.81-9.82-1.49-2.42-3.48-3.56-6.2-1.54C38,349.1,27.17,356.69,16.91,364.92,10.57,370,7.71,377.59,5,385.08c-2.19,6,1.46,10.55,3.69,15.38,1.79,3.85,4.2,7.41,6.33,11.1-5.55-.58-5.76-6-8-9.3-7.2-10.73-7.18-21.58,3.82-33,4.49-4.67,7.24-10.77,13.1-14.43,8-5,15.65-10.71,23.38-16.21,2.83-2,5.54-2.88,7.73.54C59.42,346,63.62,353,67.89,360Z"/><path class="cls-3" d="M548.33,531.45,540,528.76l8.42,7.64c-7.66-3.82-15.59-7.2-22.9-11.6-7.68-4.61-14.88-10.06-22.08-15.42-3.62-2.7-6.77-6-10.13-9.05,1.23.37,2.66.46,3.65,1.17,3.21,2.28,6.21,4.87,9.42,7.16a17.65,17.65,0,0,0,3.91,1.61c-.61-1.23-1.14-2.5-1.84-3.67-2.26-3.79-4.59-7.55-6.89-11.32,3.7,3.89,7.52,7.67,11.09,11.68,8.85,9.94,20.56,15.28,32.47,20.29C547.13,528.1,549.3,528.48,548.33,531.45Z"/><path class="cls-3" d="M461.47,460.72c0-6.15-.11-12.3,0-18.45.11-5.18,2.46-7.1,7.29-5.71,3.49,1,6.76,2.74,10.18,4,3.72,1.36,7.73,2.12,11.19,3.95,3.25,1.72,6,4.37,8.85,6.83,4.88,4.27,3,10,2.43,15.06-.47,4.39-2,8.7-3.29,13-1.73,5.85-6.83,9-12.64,6.93a153.26,153.26,0,0,1-20.5-9.25c-1.8-1-3-4.09-3.38-6.41C461.05,467.44,461.47,464,461.47,460.72Zm2.28-7h0a66.18,66.18,0,0,1-.05,8c-1,8.47,1.91,13.89,10.35,17,5.66,2.07,10.56,6.45,17.15,4.88,1.45-.35,3.47-1.54,3.81-2.74A186.5,186.5,0,0,0,500,460c.33-2.06-1.17-5-2.74-6.69-7.93-8.55-19.19-10.65-29.49-14.56-2.72-1-4.08-.07-4,3C463.83,445.72,463.75,449.71,463.75,453.7Z"/><path class="cls-3" d="M532.91,449.51c-2.56-.59-5.12-1.16-7.66-1.8s-3.6.1-3.43,3c1,17.35,1.73,34.73,3.08,52.05a13.4,13.4,0,0,0,4.88,8.45c4.28,3.29,9.45,5.4,14.18,8.12,3.12,1.79,4.63,1.11,4.71-2.57q.38-18.64.82-37.3c.15-6.3.16-12.61.65-18.88.45-5.8-4.74-5-7.53-7a55.25,55.25,0,0,0-5.44-3c4.2,1,8.91,1.08,12.42,3.2,2,1.2,2.6,5.65,2.72,8.68.2,5.07-.7,10.16-.76,15.25-.13,10.81,0,21.62,0,32.43,0,2.81.11,5.62-.08,8.41a4.55,4.55,0,0,1-6.48,3.77c-5.51-2.86-10.91-5.91-16.36-8.89-3.64-2-5.55-4.91-5.16-9.2a41.9,41.9,0,0,0,0-5.49c-.62-14.27-1.23-28.54-2-42.8-.09-1.52-1.42-3-1.53-4.5-.13-1.8,0-4,.89-5.37.5-.76,3.09-.68,4.46-.2A70.66,70.66,0,0,1,532.91,449.51Z"/><path class="cls-3" d="M339.73,312.59c-5.59-.74-5.67-5.46-5.91-9.24a217.73,217.73,0,0,1-.07-22.42c.31-7.7-1.87-13.91-8.41-18.49-1.38-1-2.34-3.24-2.59-5-2.12-14.89-1.93-29.67,1.78-44.39,4.26-16.84,8-33.8,12.11-50.69.22-.94,1.19-1.71,1.82-2.57-2.11,9.71-4.24,19.41-6.3,29.13-1.54,7.25-2.32,14.74-4.63,21.73-4.44,13.46-3.63,27.24-3.86,41-.09,5.41,2.93,9.08,6.79,12.17,4.48,3.58,5.06,8.59,5.2,13.66.22,7.65-.38,15.35.25,22.95C336.25,304.54,338.4,308.53,339.73,312.59Z"/><path class="cls-3" d="M590.58,593c6.55,1.52,13,3.83,19.68,4.36,7.76.61,15.65-.32,23.48-.58.1-.49.21-1,.31-1.47-1.16-.68-2.25-1.79-3.49-2-14.5-2.28-27.6-8.62-41-14-8.27-3.35-16.49-6.83-24.68-10.37-1.06-.46-1.81-1.68-2.71-2.54,6.31,2.27,12.71,4.33,18.92,6.86,15.7,6.42,31.23,13.26,47.87,17.09,3.82.88,7.3,3.25,10.93,4.93-.1.78-.21,1.56-.31,2.35-5.56.91-11.11,2.52-16.68,2.58-7.87.09-16.06,1.72-23.49-2.78C596.61,595.7,593.53,594.45,590.58,593Z"/><path class="cls-3" d="M680.84,382.57c.22,6.78.29,13.56.67,20.33.44,7.76,1.27,15.51,1.69,23.27.18,3.3,1.27,4.3,4.66,3.74,6.19-1,12.48-1.39,18.68-2.32,5.69-.86,8.68-4.33,10-10.06,2.46-10.63,2.29-20.8-4-30.07a9.3,9.3,0,0,0-6.24-3.57c-6.62-.45-13.3-.07-20-.18a21.12,21.12,0,0,1-4.56-1.13,32,32,0,0,1,5.57-1.08c5.81-.14,11.64.08,17.46-.09,5.24-.16,8.29,1.69,11.07,6.68,6,10.72,4.21,21.56,2.26,32.42-1,5.69-5.66,8.92-11.3,9.75-7.08,1-14.23,1.65-21.37,2.22-4,.31-4.82-1.59-4.57-5.66.39-6.49-.51-13.05-.77-19.58q-.48-11.88-.74-23.76C679.43,383.18,680.35,382.87,680.84,382.57Z"/><path class="cls-3" d="M508.56,536.33c-2.58-.06-3.89.7-2.35,3.47,4.76,8.54,11.06,15.4,20.14,19.6,8.39,3.88,16.61,8.13,24.81,12.4,1.34.7,2.18,2.35,3.26,3.56-3.28-1.11-6.77-1.82-9.81-3.39-9-4.67-18.06-9.29-26.6-14.71-4.4-2.8-7.73-7.26-11.55-11l.09.09-1.05-2.12.07.09-2.12-2.05.12.13c-.46-1.57-.63-3.3-1.41-4.69-3.11-5.54-6.23-11.08-9.69-16.39-2-3-4.76-5.51-6.89-8.44-1-1.33-1.23-3.17-1.82-4.77,1.61.26,3.83,1.78,3.63-1.74,1,.82,2.51,1.43,3,2.49,2.57,5.52,4.26,11.55,7.49,16.62C500.54,529.7,504.94,532.77,508.56,536.33Z"/><path class="cls-3" d="M544.41,609.31c.6,0,1.38-.28,1.78,0q30.16,20.91,60.25,41.92c3.79,2.65,7.27,5.77,11.13,8.31,1.41.93,3.51.82,5.29,1.19-.71-1.63-1-3.69-2.22-4.8-4.35-4-9.1-7.68-13.48-11.7-1.39-1.27-2.1-3.28-3.12-5,3.06,2.05,6.31,3.87,9.15,6.2a92.59,92.59,0,0,1,10.88,10.15c1.36,1.54,2.4,4.65,1.76,6.4-1.07,3-4.12,2.86-6.61,1.21-4.85-3.24-9.56-6.7-14.38-10-18.57-12.67-37.19-25.25-55.68-38C547.17,613.83,546,611.3,544.41,609.31Z"/><path class="cls-3" d="M502.46,619.31c1.09.57,2.67.85,3.18,1.75,4.85,8.45,9.45,17,14.27,25.51a28.38,28.38,0,0,0,4.43,5.9C536.71,665,549,677.55,561.66,689.72c8.45,8.12,17.53,15.57,26.25,23.4.77.7,1,2,1.46,3.06-4.51-3.35-9.31-6.39-13.47-10.13-10.42-9.37-20.81-18.8-30.72-28.69-9.54-9.53-19.32-19-27.39-29.76C511.41,639.12,507.48,628.81,502.46,619.31Z"/><path class="cls-3" d="M835.14,267.61c-2.69,3.56-5,7.51-8.13,10.6-20.14,19.84-37.15,42.27-54.13,64.73-3.9,5.15-7.94,10.18-12.08,15.14-.72.88-2.22,1.11-3.36,1.63,3.87-5.51,7.61-11.14,11.66-16.53,7.26-9.65,14.59-19.26,22.11-28.71,5.11-6.42,10.42-12.7,16-18.74,8.69-9.47,17.64-18.7,26.53-28C834,267.47,834.65,267.64,835.14,267.61Z"/><path class="cls-3" d="M476.47,671.2c.95.93,2.23,1.69,2.81,2.81,6.61,13,12.77,26.16,19.74,38.92,8.23,15.06,17,29.83,25.82,44.55,2.87,4.79,6.75,9,10,13.54.55.76.39,2,.55,3.09-5.71-7.54-11.73-14.86-17-22.66-5.8-8.51-11.21-17.31-16.28-26.27-4.37-7.73-8-15.88-12-23.83-4.19-8.33-8.46-16.62-12.54-25C476.81,674.81,476.81,672.92,476.47,671.2Z"/><path class="cls-3" d="M462.46,203c-.19-2.5-1.06-5.17-.47-7.46,4.6-18.14,9.43-36.22,14.3-54.29,3.07-11.4,6.33-22.75,9.51-34.13a5.87,5.87,0,0,0,.47-1.92c-.15-1.9-.45-3.79-.7-5.68-1.41,1.18-2.83,2.35-4.23,3.55-1.56,1.34-3.1,2.71-4.65,4.08,2.43-3.69,4.83-7.4,7.43-11,.07-.1,3.22,1.26,3.27,2,.26,4.13.8,8.51-.24,12.41-3.58,13.39-8,26.55-11.66,39.94s-6.67,27.12-10,40.68C464.53,195.16,463.48,199.06,462.46,203Z"/><path class="cls-3" d="M839.1,686.18c3.66,4.77,7.34,9.54,11,14.32,12,15.74,24.84,30.83,39.19,44.53,7.14,6.82,14.45,13.45,21.62,20.25a19.75,19.75,0,0,1,2.41,3.59c-2.67-1.68-5.64-3-8-5.09-8.91-8-17.88-15.95-26.31-24.44-5.89-5.92-11-12.61-16.31-19.1-6.51-8-13-16-19.13-24.24C841.5,693.17,840.56,689.48,839.1,686.18Z"/><path class="cls-3" d="M479.59,584.22c5,6.2,8.88,12.78,9,21.15,0,6.57.84,13.14.94,19.71a10.32,10.32,0,0,1-1.94,5.67c-1.08,1.5-3.45,3.59-4.51,3.24a8.06,8.06,0,0,1-4.38-4.6,192.21,192.21,0,0,1-5.46-19.88A115.19,115.19,0,0,1,471.51,595c-.45-5.39-.82-10.8-.94-16.2,0-2,.72-4.07,2.38-6.82l6.66,12.28c-1.22-1.28-2.42-2.57-3.66-3.82-.65-.67-1.36-1.27-2.05-1.91-.43,1-1.26,1.92-1.21,2.84a106.42,106.42,0,0,0,1.13,12.88c1.93,10.9,4,21.78,6.37,32.59.34,1.56,2.44,2.74,3.73,4.1,1.16-1.69,2.78-3.25,3.36-5.13s.11-3.95,0-5.94c-.69-11,.15-22.37-7.09-32C479.51,587,479.76,585.46,479.59,584.22Z"/><path class="cls-3" d="M180.58,609.19c3.29.94,6.62,1.76,9.86,2.84,13.14,4.42,26.26,8.92,39.39,13.39a12.12,12.12,0,0,0,1.44.36c13,2.58,14,1.53,9.86-10.77a45.18,45.18,0,0,1-.44-28.27c.27-.92,1.25-1.63,1.9-2.44-.58,6.14-2.16,12.39-1.49,18.39.77,7,3.22,13.89,5.52,20.63,1.31,3.81.65,6.11-3.46,5.88-6-.34-12.18-.45-17.79-2.23-14.15-4.49-28-9.81-42-14.94C182.25,611.62,181.5,610.16,180.58,609.19Z"/><path class="cls-3" d="M460.73,499.34c2.94,3.86,6,7.65,8.82,11.6,11,15.43,21.95,30.93,33,46.35,4.13,5.77,8.52,11.36,12.66,17.13.76,1.06.85,2.61,1.26,3.93-4.83-5.65-10-11.05-14.4-17-10.38-14-20.61-28.12-30.46-42.5C467.41,512.73,464.32,505.86,460.73,499.34Z"/><path class="cls-3" d="M397.77,473.28c.59,1.36,1.67,2.7,1.7,4.07.89,31.64,1.53,63.29,2.54,94.93.31,9.57,1.64,19.11,2.41,28.66.23,2.78.11,5.58.15,8.38-.68-1.38-1.88-2.73-2-4.14-.78-13.78-1.51-27.56-2-41.35-.51-15.2-.7-30.4-1.09-45.6q-.39-15.59-1-31.18C398.39,482.46,398,477.87,397.77,473.28Z"/><path class="cls-3" d="M741.35,379.5c-.73-.21-1.91-.2-2.13-.66-1.49-3.11-3.66-5-7.05-3.28-3.94,2-9,3.82-8.69,9.12.6,9,2.13,18,3.56,27,.19,1.2,1.89,2.68,3.19,3.09,7,2.22,13.08-2.22,12.93-9.43-.17-8.1-.6-16.2-.93-24.3,1,3.32,2.7,6.58,3,10,.5,5.77.18,11.63.12,17.45,0,3.83-1.13,6.84-5.68,7.4-2.53.31-5,1.29-7.5,1.67-3.18.46-5.91-.54-6.88-3.88-1.19-4.14-2.21-8.34-3-12.57-.68-3.67-.09-7.78-1.51-11.07-3.76-8.74,7.49-18,15.15-16.46A6.28,6.28,0,0,1,741.35,379.5Z"/><path class="cls-3" d="M363.28,605.22c-.32,4.31-1.73,5.71-5.91,4.44a42.12,42.12,0,0,0-11.8-2.16c-3,0-6,1.78-9.12,2.37-1.11.22-3.36-.53-3.52-1.21a113.18,113.18,0,0,1-2.23-13.34,4.05,4.05,0,0,1,1.69-3.22,150.74,150.74,0,0,1,13.75-6.74,4.51,4.51,0,0,1,4,1.14c3.71,4.26,7.21,8.72,10.57,13.26C361.88,601.35,362.44,603.39,363.28,605.22Zm-30.54-8,.85.82c.41,2.77.71,5.57,1.31,8.3a2.6,2.6,0,0,0,2.21.87c6.62-4.54,13.22-2.4,19.85-.13a27,27,0,0,0,3.12.68c.13-1.1.77-2.51.31-3.25a81.54,81.54,0,0,0-6.86-9.9c-7-8.36-7.17-8.38-16.67-2.38C335.13,593.38,334.09,595.58,332.74,597.27Z"/><path class="cls-3" d="M299.65,577.24c1.55-.65,3.06-1.79,4.65-1.89a15.6,15.6,0,0,1,16.27,18c-.2,1.11-2.73,2.95-3.47,2.66-9-3.52-17.54-2.59-26.18,1.14-.8.35-3.42-1.39-3.81-2.61-2.79-8.69,3.3-16.9,12.57-17.34-1.28,1-2.41,2.36-3.86,3-4.44,2.11-7.1,5.28-7.27,10.36-.11,3.28.46,4.58,4.25,3,6.67-2.74,13.61-4.11,20.77-1.32a31.13,31.13,0,0,0,4.95,1.08c.23-1.94,1-4,.53-5.78a11,11,0,0,0-3.48-5.09C311,578.69,305.76,576.59,299.65,577.24Z"/><path class="cls-3" d="M772.19,453.46c3.95,3.82,8,7.5,11.81,11.48,10.18,10.77,20.31,21.59,30.26,32.56,2.64,2.91,6.68,5.23,6,10.18-6.72-7.23-13.4-14.5-20.17-21.69-7.12-7.57-14.48-14.93-21.44-22.66C776.07,460.44,774.32,456.78,772.19,453.46Z"/><path class="cls-3" d="M579.5,688.13c-2.92-2-6.34-3.43-8.67-5.92Q551.92,662,533.51,641.39c-3.43-3.84-6.08-8.38-9.08-12.6,1.82,1.77,3.71,3.47,5.44,5.32,8,8.56,16,17.12,23.84,25.76,5.53,6.06,10.67,12.49,16.45,18.28C573.38,681.39,577.86,683.4,579.5,688.13Z"/><path class="cls-3" d="M928.08,391.91c-16.44-10-34.25-7.68-52-5.79q-20.7,2.19-41.38,4.45c7.06-1.37,14.1-2.92,21.2-4.06,8.78-1.42,17.58-3,26.44-3.6,14.17-1,28.46-1.7,42,3.8C926,387.38,926.86,390.12,928.08,391.91Z"/><path class="cls-3" d="M134.9,391.55c-2.26,4.33-4.44,8.7-6.79,13-1.87,3.4-4.35,6.5-5.85,10-1.71,4-4.45,3.29-6.68,1.59-8.5-6.46-16.36-13.6-21.69-23.09a81.3,81.3,0,0,0-4.59-6.82c-1.86-2.65-1.32-4.57,1.13-6.71,1.79-1.56,2.84-4,4.23-6l2,1.76c-1,1.32-1.66,3-2.92,3.89-3.4,2.33-3.41,4.84-1.4,8.07,5.73,9.22,12.16,17.83,20.67,24.72,4.93,4,6.28,3.84,9.44-1.39q5.9-9.75,11.78-19.49Z"/><path class="cls-3" d="M307.14,411.56c-4.58-.49-9.18-.81-13.73-1.52-4.31-.67-6.55.26-7.61,5.14a205.88,205.88,0,0,1-17.31,49.76c-.52,1-1.72,1.7-2.61,2.55,1.1-3.34,1.72-6.93,3.38-10,7-12.84,10-27,14.31-40.78,0-.16.05-.32.08-.48,1.75-9.62,2.62-10.2,12.2-7.84C299.64,409.36,303.38,410.51,307.14,411.56Z"/><path class="cls-3" d="M290.79,686.17c-2.52-8.63-4.67-17.39-7.62-25.87-6.45-18.59-7.72-37.68-6.41-57.1.68,1.51,1.84,3,1.93,4.53a94.3,94.3,0,0,1,.05,14c-1.14,12.4,3.1,23.81,5.88,35.52C286.89,666.81,288.75,676.51,290.79,686.17Z"/><path class="cls-3" d="M524.42,527.89c8.29,4,16.11,7.56,23.82,11.39,4.32,2.15,6,12.82,2.64,16.06a3.17,3.17,0,0,1-2.83.13c-7-3.52-14.34-6.56-20.59-11.11-2.36-1.72-2.22-7-3-10.71C524.14,532.07,524.42,530.37,524.42,527.89Zm25.76,19.65c.39-3.37-1.13-5.76-4.83-7.24-4-1.6-7.73-3.86-11.63-5.72-2.14-1-4.39-1.8-6.59-2.69.26,3.23.18,6.55.93,9.67.3,1.27,2.24,2.35,3.66,3.13,4.2,2.31,8.53,4.4,12.79,6.64C549.2,553.8,550.15,553.26,550.18,547.54Z"/><path class="cls-3" d="M553.13,584.05c-1.12,3-1.41,5.14-2.65,6.34-.58.57-3.21-.41-4.53-1.27-4.93-3.19-10.09-6.36-11.69-12.56-.53-2-.1-4.32-.11-6.5a30,30,0,0,1,5,1.18c2.8,1.16,6,2.09,8,4.1C549.76,577.87,551.38,581.39,553.13,584.05Zm-1.92-.67c-2-2.5-2.91-4.24-4.33-5.24a28.91,28.91,0,0,0-6.26-3,10.81,10.81,0,0,0-3.09-.23c.08,1.1-.28,2.69.32,3.23a76.82,76.82,0,0,0,8.91,7C547.34,585.49,549,584.29,551.21,583.38Z"/><path class="cls-3" d="M656.36,343.05c-.72-2.42-2-4.82-2.08-7.26-.84-21.68-2-43.37-2-65.05,0-13.85,1.79-27.71,2.92-41.55.08-1,1.35-1.84,2.06-2.76-.62,5.64-1.54,11.26-1.8,16.91-.82,18.23-1.89,36.47-1.9,54.71,0,10.53,2,21,2.78,31.58C656.7,334.08,656.38,338.58,656.36,343.05Z"/><path class="cls-3" d="M600.45,565.89a29.12,29.12,0,0,1-.07,5.45,44.4,44.4,0,0,1-2,6c-2.23-1.1-5.67-1.64-6.47-3.39-2.38-5.16-3.73-10.78-5.41-16.25a2.76,2.76,0,0,1,.21-1.83c3.45-.61,7-1.58,10.37-1.32,1.25.09,2.74,3.05,3.27,4.94S600.44,563.74,600.45,565.89Zm-2.8-1.91a13.15,13.15,0,0,0,.26-3.18c-.18-1.14-.67-3.14-1.15-3.18a23.2,23.2,0,0,0-6.69.57c-.29.06-.42,2.38-.07,3.48a61,61,0,0,0,3.44,8.8c.57,1.13,2.14,1.75,3.25,2.61a15.72,15.72,0,0,0,1.35-3.86A32.51,32.51,0,0,0,597.65,564Z"/><path class="cls-3" d="M509.2,16.84c4.31-2,8.45-4.55,13-5.9C528.55,9,535.21,8,541.68,6.05c-6-3.15-11.94-1.16-17.67,0-6.12,1.27-12,3.69-18,5.51a22.16,22.16,0,0,1-3.84.48c5.49-2.37,10.88-5,16.5-7a40.5,40.5,0,0,1,12.16-2.67c4.76-.15,9.57.86,14.32,1.61.86.13,1.54,1.4,2.3,2.15a19,19,0,0,1-2.43,1q-14.67,4-29.34,7.88C513.5,15.61,511.35,16.24,509.2,16.84Z"/><path class="cls-2" d="M501.56,495.28c2.3,3.77,4.63,7.53,6.89,11.32.7,1.17,1.23,2.44,1.84,3.67a17.65,17.65,0,0,1-3.91-1.61c-3.21-2.29-6.21-4.88-9.42-7.16-1-.71-2.42-.8-3.65-1.17l-1.58-.08-1.27-.84,0,0-1.62-7.51,7.71-1.58,0,0,4,4h0l1,1Z"/><path class="cls-3" d="M447.61,422.55c2.57-5.26,5.89-10.29,7.54-15.82,3.44-11.49,2.18-23.22-.51-34.73-.31-1.34-2.47-2.46-4-3.26-2.31-1.21-4.82-2.06-7.24-3.06,3.57.27,7.26.1,10.66,1,1.48.39,3.2,2.95,3.37,4.67.92,9.48,2.63,18.78,1.58,28.61-.87,8.13-4.46,14.22-8.45,20.56C450,421.47,448.62,421.89,447.61,422.55Z"/><path class="cls-3" d="M758.33,412.46a36.6,36.6,0,0,0-4.26-1.89c-1.17-.36-2.84-.86-3.59-.32s-1.09,2.37-.85,3.48a62.19,62.19,0,0,0,11,23.51c3.91,5.41,7.76,10.85,11.65,16.27-3.67-3.56-8.13-6.61-10.84-10.79-4.92-7.59-8.87-15.83-13.06-23.88a9.08,9.08,0,0,1-1-5.11c.35-2.48,1.44-4.86,2.22-7.28C753,407.65,757.52,407.35,758.33,412.46Z"/><path class="cls-3" d="M1008.09,796c-4.13-1.42-8.51-2.35-12.35-4.34-11.68-6-23.18-12.4-34.67-18.79-1.56-.87-2.67-2.57-4-3.88,5.11,2.24,10.31,4.28,15.3,6.76,5.81,2.89,11.48,6.07,17.13,9.29C995.76,788.6,1001.9,792.34,1008.09,796Z"/><path class="cls-3" d="M897.07,582.33c5.39,2.22,10.76,4.49,16.18,6.63,13.41,5.3,26.89,10.16,41.76,7.42,1.43-.26,3,.55,4.58.86-7.13,3.87-15,2.68-22.15,1.56-8.8-1.37-17.38-4.53-25.82-7.57-5.06-1.83-9.67-4.88-14.45-7.45C896.94,583.66,897.09,582.83,897.07,582.33Z"/><path class="cls-3" d="M811.15,640.27c1,.58,2.31.94,2.82,1.79q10.46,17.22,20.65,34.57c1.78,3,3,6.41,4.54,9.62-3.25-3.78-7.09-7.2-9.64-11.41-5.81-9.53-11-19.43-16.39-29.23A37.78,37.78,0,0,1,811.15,640.27Z"/><path class="cls-3" d="M548.41,536.39c1.6.05,3.34-.31,4.76.21,9.27,3.42,18.37,7.3,27.72,10.46a53.64,53.64,0,0,0,15.25,3c7.05.22,14.14-.73,21.21-1.19-2.72,1.19-5.46,3.42-8.15,3.37-9.48-.19-19.17-.15-28.35-2.15-7.83-1.69-15.08-6.05-22.56-9.27C555,539.38,551.7,537.87,548.41,536.39Z"/><path class="cls-3" d="M642.44,110.85c-4.65-1.95-9.36-3.8-14-5.88q-18.91-8.55-37.72-17.32c-1.26-.59-2.21-1.86-3.3-2.82,5.83,2,11.78,3.79,17.46,6.2,8.68,3.69,17.28,7.61,25.69,11.88C634.82,105,638.52,108.17,642.44,110.85Z"/><path class="cls-3" d="M520.43,739.54c-1.28-1.41-2.91-2.63-3.77-4.25q-11.88-22.39-23.47-44.94c-.69-1.34-.49-3.12-.71-4.69q10,18,20,36.1,3.93,7.13,7.59,14.42C520.58,737.12,520.34,738.41,520.43,739.54Z"/><path class="cls-3" d="M22.92,422.45c3.12,3.53,6.55,6.83,9.32,10.62C39.8,443.44,47.13,454,54.45,464.54c.85,1.23,1,2.92,1.53,4.4-2.41-2.72-5.06-5.27-7.19-8.2Q37.69,445.5,26.93,430A66.52,66.52,0,0,1,22.92,422.45Z"/><path class="cls-3" d="M508.57,608.24c-2.11-2.37-4.62-4.49-6.26-7.15-6.5-10.53-12.79-21.21-19-31.93-.8-1.38-.6-3.35-.86-5,3.37,5,6.89,9.93,10.08,15.06C497.44,587,502.16,595,506.81,603,507.72,604.52,508,606.47,508.57,608.24Z"/><path class="cls-3" d="M134.22,391.1c4.05-7.58,8-15.21,12.16-22.73a314.93,314.93,0,0,1,18.1-29.81,42.79,42.79,0,0,1-2.35,6.34q-11.4,20.57-23,41a56.92,56.92,0,0,1-4.18,5.66Z"/><path class="cls-2" d="M487.39,506.41c.2,3.52-2,2-3.63,1.74a.66.66,0,0,1-.12-.6l-5.17-7.1h0l-2-3h0l-.79-1.16a1.37,1.37,0,0,1-.1-.8,7.71,7.71,0,0,0-.22-2.38c-2.54-6-2.56-6,3.21-5.77h0l6.93,13.09Q486.45,503.43,487.39,506.41Z"/><path class="cls-3" d="M957.14,769c-1.36-.45-2.91-.62-4-1.39q-19.19-12.89-38.22-26c-1.18-.82-1.83-2.4-2.73-3.63,5.6,3.46,11.27,6.8,16.77,10.41,8.26,5.43,16.44,11,24.56,16.64C954.91,766.08,955.93,767.7,957.14,769Z"/><path class="cls-3" d="M487.59,677.17c-1.4-1.28-3.33-2.28-4.11-3.86-7.16-14.32-14.14-28.72-21.08-43.14a18.35,18.35,0,0,1-.91-4.25c2,2.88,4.25,5.61,5.85,8.69,4.31,8.34,8.41,16.8,12.45,25.28C482.51,665.59,485,671.4,487.59,677.17Z"/><path class="cls-3" d="M805.18,468.93c-2.28-1.73-5-3.08-6.77-5.24-8.28-10.23-16.31-20.66-24.34-31.09-.61-.79-.55-2.11-.8-3.19,5.15,5.63,10.47,11.11,15.39,16.93,5.13,6.07,9.91,12.44,14.74,18.75A18.72,18.72,0,0,1,805.18,468.93Z"/><path class="cls-3" d="M788.28,593.87c2.21,3.59,4.65,7.06,6.59,10.8,5.32,10.24,10.47,20.58,15.56,31,.66,1.35.5,3.09.73,4.66-2.13-3.3-4.53-6.46-6.35-9.92-4.55-8.63-9-17.35-13.15-26.16C790.12,601,789.38,597.33,788.28,593.87Z"/><path class="cls-3" d="M256.71,483.34c.28,6-4.54,8.68-8.15,11.63-10.15,8.29-22,12-35.15,10.51-1.6-.19-3.09-1.42-4.63-2.16,9.27,0,18.57.75,27.32-3.69,6.82-3.47,13.31-7.13,17.55-13.84C254.31,484.75,255.67,484.15,256.71,483.34Z"/><path class="cls-3" d="M851.1,114.29c-2.41-2.36-5-2.76-7.65-.49-6.73,5.68-13.51,11.32-20.13,17.13-3.55,3.11-6.79,6.56-10.17,9.85,3.44-4.6,6.46-9.61,10.42-13.71a180,180,0,0,1,16.57-14.6c1.75-1.41,4.29-2.07,6.57-2.55C850.05,109.22,851.76,110.7,851.1,114.29Z"/><path class="cls-3" d="M589.37,716.19c4.31,2.06,8.61,4.15,12.94,6.18a36,36,0,0,0,6.38,2.66c1.27.31,2.79-.4,4.19-.66-.53-1.28-.79-2.79-1.63-3.81-2.42-2.95-5.14-5.65-7.61-8.56a10.34,10.34,0,0,1-1.18-2.93c4.32,4.48,9,8.67,12.82,13.57,1.83,2.37-1.65,6.5-4.54,5.39A167,167,0,0,1,594,720.2C592.25,719.29,590.91,717.55,589.37,716.19Z"/><path class="cls-3" d="M143.92,459.42c-1.81-1.24-4.15-2.11-5.33-3.8-5.67-8.05-11.22-16.19-16.39-24.56-2.47-4-4.54-8-9.34-9.67-.48-.16-.64-1.29-1-2a14.78,14.78,0,0,1,11.23,8.44c3.68,7.19,8.63,13.76,13.28,20.43,2.16,3.1,5,5.75,7.32,8.72C144.15,457.53,143.88,458.61,143.92,459.42Z"/><path class="cls-3" d="M584.59,624.25c-1.31-.17-3,.09-3.89-.6Q566.21,613,552,602c-.76-.58-1-1.84-1.47-2.78,4.84,3,9.84,5.84,14.47,9.17,6.18,4.44,12.08,9.28,18.07,14A12.07,12.07,0,0,1,584.59,624.25Z"/><path class="cls-3" d="M646.8,126.85c4.54,2.5,9.09,5,13.62,7.51.86.48,1.61,1.18,2.5,1.57,2,.87,4.06,1.61,6.1,2.4-.22-1.85-.43-3.7-.65-5.55,2.45,2.62,7,4.35,5.06,8.83-.29.67-6.64-.26-9.27-1.91C658.08,135.89,652.55,131.19,646.8,126.85Z"/><path class="cls-3" d="M836.15,504.82c-1.19-.51-2.75-.69-3.52-1.56C825,494.59,817.49,485.83,810,477c-.54-.65-.52-1.77-.76-2.67,1.93,1.8,4,3.49,5.76,5.41q10.14,10.94,20.1,22C835.76,502.52,835.82,503.79,836.15,504.82Z"/><path class="cls-3" d="M514.93,562.38c-1.13-.51-2.72-.71-3.3-1.59-5.72-8.64-11.29-17.39-16.82-26.15-.38-.6-.19-1.56-.26-2.35l9,10.15-.12-.13,2.12,2.05-.07-.09,1.05,2.12-.09-.09c2,3.81,3.89,7.63,5.87,11.43C513.15,559.31,514.06,560.83,514.93,562.38Z"/><path class="cls-3" d="M554.4,575.35c2.75.7,5.76.89,8.19,2.19,8.8,4.67,17.39,9.71,26.07,14.62-4.95-2-10-3.67-14.79-6C567.24,582.8,560.88,579,554.4,575.35Z"/><path class="cls-3" d="M965.12,589.25l-36.27-11.87c3.29.62,6.63,1,9.86,1.89,7.25,1.89,14.5,3.83,21.63,6.12C962.16,586,963.54,587.92,965.12,589.25Z"/><path class="cls-3" d="M493.47,530.71c-.46-.15-1.15-.15-1.36-.46q-9.37-14-18.6-28c-.29-.43,0-1.25.06-1.88,4.76,6.54,9.67,13,14.21,19.68C490,523.33,491.6,527.13,493.47,530.71Z"/><path class="cls-3" d="M895.2,558.3c-3-1.84-6.25-3.3-8.8-5.58-6.25-5.61-12.17-11.6-18.22-17.44,2.93,2,6,3.77,8.77,6,5.82,4.69,11.49,9.58,17.14,14.48C894.72,556.3,894.84,557.43,895.2,558.3Z"/><path class="cls-3" d="M428,437.52a66.27,66.27,0,0,1-7-1.76c-6.46-2.34-9.58-1.6-13.41,4.27-2.31,3.53-4,7.49-6,11.19-.31.58-1.19.84-1.81,1.25-.18-8.79,5.44-14.7,11.44-19.44,2.11-1.67,7.59.61,11.42,1.54C424.51,435,426.19,436.51,428,437.52Z"/><path class="cls-3" d="M165.75,313.49c4.19-4.2,8.36-8.43,12.59-12.59a13.22,13.22,0,0,1,3.41-2.62,20.47,20.47,0,0,1,4.18-1c.28,1.55,1.22,3.41.68,4.6-1,2.17-2.83,3.95-4.57,6.21-.35-1-.59-1.33-.52-1.55.56-1.78,1.18-3.53,1.78-5.3a35.86,35.86,0,0,0-5.22,2.73c-4.16,3.12-8.17,6.45-12.24,9.7Z"/><path class="cls-3" d="M617.35,190.25c.59-2.3.87-4.73,1.82-6.88,3.12-7,5.93-14,1.71-21.64-.78-1.43-.4-3.5-.56-5.27C629.21,168.59,625.31,179.6,617.35,190.25Z"/><path class="cls-3" d="M554.92,563.37a58.14,58.14,0,0,1-25.42-13.11c8.32,3.91,16.64,7.81,24.94,11.77C554.74,562.18,554.76,562.91,554.92,563.37Z"/><path class="cls-3" d="M524.41,628.65c-1.68-1.45-3.72-2.64-5-4.39-3.79-5.24-7.28-10.7-10.89-16.07,2.17,2,4.73,3.71,6.44,6C518.36,618.85,521.29,623.82,524.41,628.65Z"/><path class="cls-3" d="M543.44,772.55c-3.13-3.43-6.43-6.73-9.36-10.33-3.32-4.08-6.42-8.36-9.37-12.71-.82-1.21-.81-3-1.17-4.48,6.2,8,12.43,16,18.56,24.07A13.24,13.24,0,0,1,543.44,772.55Z"/><path class="cls-3" d="M836.19,141.89q5.53-9.67,11.08-19.34c1.29-2.24,2.65-4.44,4-6.66-.66,8.15-5.22,14.6-9.69,20.93C840.23,138.69,840.32,142.77,836.19,141.89Z"/><path class="cls-3" d="M668.41,132.82a40.65,40.65,0,0,1-4.87-3.61c-4.8-4.73-9.45-9.6-14.16-14.42,6.55,1.59,11.14,5.88,15,11.09A77.29,77.29,0,0,1,668.41,132.82Z"/><path class="cls-3" d="M464.62,486.37c-1.47-1.3-2.88-2.66-4.42-3.86a26.9,26.9,0,0,0-3.13-1.82,15.09,15.09,0,0,0-.54,3.6,42.5,42.5,0,0,0,1.1,5.17c-1.61-2.94-4.15-5.76-4.56-8.87-.39-3,4.4-4.7,6.61-2.38S463,483.61,464.62,486.37Z"/><path class="cls-3" d="M617.34,544.82c-8.54-4.64-17.93-3.72-27.12-4.28-1.62-.09-3.16-1.48-4.74-2.27,9.1.67,18.22,1.12,27.27,2.19C614.43,540.66,615.82,543.31,617.34,544.82Z"/><path class="cls-3" d="M182.14,308.92l-15.32,26.49-1.47-.85q7.58-13.33,15.14-26.67Z"/><path class="cls-3" d="M851.12,250.63c0,.78.35,1.88,0,2.28-4.79,5-9.68,9.83-14.59,14.68-.24.24-.9,0-1.36,0C838.44,260.07,844.63,255.21,851.12,250.63Z"/><path class="cls-3" d="M906.42,734.19c-7.71-4-14.07-9.39-18.24-17.14.62.14,1.43.06,1.84.43,5,4.55,9.93,9.13,14.79,13.79A10.82,10.82,0,0,1,906.42,734.19Z"/><path class="cls-3" d="M174.89,468.39c-7-.9-14-1.64-21-2.81-1.63-.28-3-2-4.5-3.11a76.73,76.73,0,0,0,7.84,1.83c4,.54,8.12.47,12.09,1.19C171.32,465.84,173.05,467.38,174.89,468.39Z"/><path class="cls-3" d="M543.54,594.25c-6.32-4.75-12.67-9.46-18.9-14.32-.46-.35-.08-1.77-.09-2.69Q534,585,543.43,592.8C543.69,593,543.51,593.76,543.54,594.25Z"/><path class="cls-3" d="M584,538.36c-3.43.06-7,.82-10.26,0-6.28-1.5-12.34-3.87-18.5-5.89,2.92.59,5.84,1.24,8.78,1.75,6,1,11.95,2,17.92,3A7.8,7.8,0,0,1,584,538.36Z"/><path class="cls-3" d="M365.71,604.76c.8,5.3,1.66,10.59,2.37,15.9.6,4.53,1,9.08,1.52,13.62-.66-.67-1.8-1.27-1.89-2q-1.2-9.88-2-19.81C365.47,609.91,365.69,607.33,365.71,604.76Z"/><path class="cls-3" d="M657.27,224c-.4-.66-1.16-1.32-1.16-2,0-8.25.11-16.49.19-24.74.71,1.24,2.05,2.49,2,3.71C658.14,208.69,657.66,216.36,657.27,224Z"/><path class="cls-3" d="M602.48,709.09c-3.94-2.84-8-5.56-11.76-8.58-1.39-1.1-2.2-2.93-3.27-4.43.33,0,.78-.1,1,.07C593.12,700.44,597.8,704.77,602.48,709.09Z"/><path class="cls-3" d="M917.58,572.35c-7.51-1.16-13.17-5.34-17.91-11,4.37,2.35,8.81,4.59,13.1,7.09A38.06,38.06,0,0,1,917.58,572.35Z"/><path class="cls-3" d="M113.57,360.62,97.43,375.27C97.12,371.66,107.8,361.44,113.57,360.62Z"/><path class="cls-3" d="M478.59,487.34c-5.77-.24-5.75-.25-3.21,5.77a7.71,7.71,0,0,1,.22,2.38,61.18,61.18,0,0,1-5.17-6.71c-.8-1.35-.63-3.26-.9-4.92a46.1,46.1,0,0,1,6.24,1.17C476.85,485.38,477.66,486.54,478.59,487.34Z"/><path class="cls-3" d="M196.87,495.34c-.46.1-1.1.44-1.37.25-6.16-4.25-11.11-9.52-13.71-16.7,2.05,2,4.2,3.92,6.12,6C191,488.32,193.89,491.86,196.87,495.34Z"/><path class="cls-3" d="M131,345.65,114.52,360l-1.11-1.27,16.31-14.35Z"/><path class="cls-3" d="M165.84,313.62c-2.66,2.78-5.15,5.76-8.05,8.28a81.38,81.38,0,0,1-8.07,5.58l.09.08c4-3.95,7.86-8,11.92-11.8,1.08-1,2.67-1.52,4-2.27Z"/><path class="cls-3" d="M802.3,155.55c-2.1,4-4,8.14-6.39,12-1.08,1.73-3.13,2.85-4.74,4.24Z"/><path class="cls-3" d="M492.67,600.18c1.56,1.74,3.8,3.23,4.56,5.27,1.73,4.61,6.77,8,5.21,13.84Z"/><path class="cls-3" d="M369.58,343.64l19.33,7.81A36.87,36.87,0,0,1,369.58,343.64Z"/><path class="cls-3" d="M164.79,158.74c-2.73,5.73-6.85,10-13,12Z"/><path class="cls-3" d="M374.68,634.28l-.93-20.61c.85,1.53,2.34,3,2.44,4.59C376.5,623.64,378.44,629.26,374.68,634.28Z"/><path class="cls-3" d="M525.43,589.33a24.46,24.46,0,0,1,13,14c-2-1.85-4.19-3.58-6-5.59C529.94,595.05,527.74,592.14,525.43,589.33Z"/><path class="cls-3" d="M149.81,172.72c-.11.93.12,2.2-.4,2.73-3.73,3.75-7.59,7.37-11.49,11-.43.4-1.4.22-2.11.31Z"/><path class="cls-3" d="M881.65,572.25c6.45,1.36,11.44,5,15.44,10.1Z"/><path class="cls-3" d="M496.58,490.36l-7.71,1.58,1.62,7.51c-3.84-2.38-6-8.63-3.35-10C490.2,487.83,493.79,486.62,496.58,490.36Z"/><path class="cls-3" d="M274.7,580.71c-1-1.38-2.41-2.62-3-4.16-1.87-4.57-4.85-5.71-9.37-4-1.55.6-3.37.52-5.06.75,3.34-2.32,6.55-4.68,11.1-3.19C273.66,571.87,274,576.33,274.7,580.71Z"/><path class="cls-3" d="M601.48,637.21l-15.12-11.3C592.53,628.16,598.14,631.16,601.48,637.21Z"/><path class="cls-3" d="M132.8,189.71q-6.06,6.71-12.16,13.38c-.06.06-.54-.26-.82-.41Z"/><path class="cls-3" d="M770.32,425.46c-4.63-3.77-10-6.84-12-13A25.25,25.25,0,0,1,770.32,425.46Z"/><path class="cls-3" d="M468.48,656.24c.89.68,2.19,1.18,2.6,2.09,1.94,4.24,3.64,8.6,5.43,12.91-.73-.23-1.92-.27-2.12-.73C472.33,665.79,470.43,661,468.48,656.24Z"/><path class="cls-3" d="M914.21,769.7,928,781.11c-3.76-2.6-7.59-5.11-11.24-7.86C915.68,772.41,915.06,770.9,914.21,769.7Z"/><path class="cls-3" d="M245.81,588c0,2.78.22,5.59-.05,8.34-.33,3.22.56,5.07,4.06,5l-4.19,2.31c-.6-1.73-1.82-3.52-1.67-5.18C244.28,594.92,241.84,590.81,245.81,588Z"/><path class="cls-3" d="M854.12,546.4c.88,0,2.11-.28,2.58.18q4.72,4.65,9.13,9.62c.49.55.25,1.75.35,2.65C860.66,556.15,857.5,551.17,854.12,546.4Z"/><path class="cls-3" d="M546.12,784.83c1.09-1.4,2.17-2.81,3.26-4.22,1.43,1.69,3,3.28,4.24,5.09.53.77.42,2,.61,3a8.8,8.8,0,0,1-3-.45A58.91,58.91,0,0,1,546.12,784.83Z"/><path class="cls-3" d="M918.88,406.34c.62-.88,1.06-2.24,1.9-2.56,5.51-2.09,7.93-5.95,7.29-11.77C931.28,399.36,928,404.47,918.88,406.34Z"/><path class="cls-3" d="M813.16,140.77c-1,6.39-5.32,10.44-10.14,14.12Z"/><path class="cls-3" d="M617.36,152.2a3.94,3.94,0,0,1-1.39-.33c-4.81-3.52-4.77-3.51-7.6,1.84-.29.54-1.33.7-2,1,.35-1.69.21-3.77,1.17-5,1.12-1.4,3.78-3.22,4.76-2.75C614.33,148,615.71,150.4,617.36,152.2Z"/><path class="cls-3" d="M404.53,609.26l7,16C407.26,620.8,404.1,615.82,404.53,609.26Z"/><path class="cls-3" d="M297.64,641.26c.56.13,1.54.16,1.6.41,1.2,4.85,2.3,9.72,3.41,14.58Z"/><path class="cls-3" d="M611.34,205c.63-5.44,1.09-10.95,6-14.64Q614.34,197.69,611.34,205Z"/><path class="cls-3" d="M606.35,154.76c.91,8,.43,15.91-2.89,23.43Q604.9,166.48,606.35,154.76Z"/><path class="cls-3" d="M461.61,640.79q3.45,7.73,6.88,15.46Q465.05,648.53,461.61,640.79Z"/><path class="cls-3" d="M493.54,25l14.34-8.16C504.17,21.48,499,23.49,493.54,25Z"/><path class="cls-3" d="M149.72,327.48l-8.93,9.9-1.9-2.16,10.93-7.65Z"/><path class="cls-3" d="M485.52,500.43l-6.93-13.09C483.58,489.39,485.62,493.25,485.52,500.43Z"/><path class="cls-3" d="M529.55,550.3l-11-7c2.87,1.31,5.83,2.48,8.58,4C528.15,547.86,528.74,549.27,529.55,550.3Z"/><path class="cls-3" d="M17.22,414.5l5.79,8C19.15,421.24,16.37,419.18,17.22,414.5Z"/><path class="cls-3" d="M864.23,531.33l-8-7C860.6,524.67,862.83,527.53,864.23,531.33Z"/><path class="cls-3" d="M181.8,478.9c-4.33-2.18-6.23-6-6.93-10.53Z"/><path class="cls-3" d="M870.1,562.37c3.88.19,8,3.86,9,8Z"/><path class="cls-3" d="M516.44,578.33c4.29,2,7.41,5,8,10Z"/><path class="cls-3" d="M841.12,531.41c4.6,1.17,7.3,4.65,7,9Z"/><path class="cls-3" d="M112,419.46c-4.24-.55-7.11-2.66-8-7Z"/><path class="cls-3" d="M204.1,501.45c-3.65-.58-6.59-2-7.24-6.12Z"/><path class="cls-3" d="M294.81,632c3.78,2.22,3.13,5.8,2.84,9.26Z"/><path class="cls-3" d="M212.77,295.66l7,6,.09-.07-7-6Z"/><path class="cls-3" d="M78,374.48c-3.75-1.09-5.59-3.48-5.07-7.47Z"/><path class="cls-3" d="M469.51,493.83q-2.46-3.74-4.91-7.49Q467,490.09,469.51,493.83Z"/><path class="cls-3" d="M835.13,524.41c3.45.51,5.54,2.16,5,6Z"/><path class="cls-3" d="M103,411.45c-3.81-.22-4.6-3-5-6Q100.46,408.44,103,411.45Z"/><path class="cls-3" d="M478.47,500.45l5.17,7.1Z"/><path class="cls-3" d="M539.41,604.3c3.45-.1,5,1.69,5,5Z"/><path class="cls-3" d="M852.63,521.42l-5.42-5.12Z"/><path class="cls-3" d="M649.44,114.84l-7.06-4Z"/><path class="cls-3" d="M524.56,577.24c-4-.24-4.15-3-4-6Z"/><path class="cls-3" d="M842.25,511.36l-5-5Z"/><path class="cls-3" d="M257.26,573.32l-6.39,3.26C251.68,572.91,254.46,573.1,257.26,573.32Z"/><path class="cls-3" d="M515.56,541.31l-5.45-3.9Z"/><path class="cls-3" d="M809.28,474.39c-3.21-.44-4.48-2.33-4.1-5.47Z"/><path class="cls-3" d="M369.58,634.27h5.12c-.94.67-1.83,1.75-2.82,1.86C371.19,636.2,370.35,634.93,369.58,634.27Z"/><path class="cls-3" d="M888.21,717.09l-3.12-4.45Z"/><path class="cls-3" d="M500.58,494.34l-4-4Z"/><path class="cls-3" d="M586.5,695.12c-2.94.25-4.4-1-4-4Z"/><path class="cls-3" d="M259.81,479.1q-1.56,2.14-3.13,4.27Q258.26,481.24,259.81,479.1Z"/><path class="cls-3" d="M773.32,429.46l-3-4Z"/><path class="cls-3" d="M899.65,561.35l-4.51-3.1Z"/><path class="cls-3" d="M276.79,603.23l-5.32-1.89Z"/><path class="cls-3" d="M274.67,589.74q0-4.47,0-9C274.69,583.77,274.68,586.75,274.67,589.74Z"/><path class="cls-3" d="M443,365.63l-6.61-2Z"/><path class="cls-3" d="M86,386.48c-3,.19-3.59-1.48-3-4Z"/><path class="cls-3" d="M343.73,315.59l-4-3Z"/><path class="cls-3" d="M845.25,514.34l-3-3Z"/><path class="cls-3" d="M928.52,577.35l-4.4-2.12Z"/><path class="cls-3" d="M848.13,540.41c2.85-.86,3.93,0,3,3Z"/><path class="cls-3" d="M303.73,659.68l2,5Z"/><path class="cls-3" d="M87.9,390c-.65-1.18-1.29-2.37-1.93-3.55Z"/><path class="cls-3" d="M72,365.51,69.89,362Z"/><path class="cls-3" d="M352.72,321.58l-3-2Z"/><path class="cls-3" d="M476.47,497.44l2,3Z"/><path class="cls-3" d="M349.72,319.58l-3-2Z"/><path class="cls-3" d="M346.73,317.58l-3.05-2Z"/><path class="cls-3" d="M518.56,543.31l-3-2Z"/><path class="cls-3" d="M921.57,574.36l-3.81-2Z"/><path class="cls-3" d="M522.45,743.54l-2-3.91Z"/><path class="cls-3" d="M81.89,381c-.64-1.16-1.27-2.33-1.9-3.49C80.62,378.64,81.25,379.81,81.89,381Z"/><path class="cls-3" d="M80,377.49l-2-3Z"/><path class="cls-3" d="M90,393.49,87.89,390Z"/><path class="cls-3" d="M196.64,425.36l1.09-.64-1.17.62Z"/><path class="cls-3" d="M166.8,156.74l-2,2Z"/><path class="cls-3" d="M219.75,301.65l2,2,.08-.09-2-2Z"/><path class="cls-3" d="M539.41,778.08l2,2Z"/><path class="cls-3" d="M867.63,560.29l2.49,2.09Z"/><path class="cls-3" d="M302.63,656.2l1.11,3.51Z"/><path class="cls-3" d="M536.93,450.51l-3.68-1Z"/><path class="cls-3" d="M145.92,460.41l-2.07-1Z"/><path class="cls-3" d="M98,405.5l-1.14-2.37Z"/><path class="cls-3" d="M573.39,136.78l-.9,2.54Z"/><path class="cls-3" d="M875.21,701.15c-.34-.69-.68-1.38-1-2.07C874.53,699.77,874.87,700.46,875.21,701.15Z"/><path class="cls-3" d="M118.83,203.69l-1,2Z"/><path class="cls-3" d="M912.18,738.07,910,736.78Z"/><path class="cls-3" d="M559.91,565.36l-2.71-.93Z"/><path class="cls-3" d="M473.61,500.39c-.38-.79-.75-1.59-1.13-2.39Z"/><path class="cls-3" d="M924.16,575.27l-2.43-.9Z"/><path class="cls-3" d="M544.86,775.12l-1.42-2.58Z"/><path class="cls-3" d="M471.94,497.45l-1.35-2.12Z"/><path class="cls-3" d="M271.18,601.32l-2.73-1Z"/><path class="cls-3" d="M544.54,595.27l-1.06-1.06Z"/><path class="cls-3" d="M847.25,516.35l-1.06-1.05Z"/><path class="cls-3" d="M545.81,596.35l-1.34-1.14Z"/><path class="cls-3" d="M853.11,545.38l1,1Z"/><path class="cls-3" d="M852.11,544.38l1,1Z"/><path class="cls-3" d="M549.53,598.25l-1.32-.84Z"/><path class="cls-3" d="M475.7,496.29l.79,1.16Z"/><path class="cls-3" d="M550.53,599.25l-1-1Z"/><path class="cls-3" d="M851.11,543.38l1,1Z"/><path class="cls-3" d="M854.24,522.35l-1.43-.92Z"/><path class="cls-3" d="M490.46,499.41l1.27.84Z"/><path class="cls-3" d="M833.29,522l.84,1.45Z"/><path class="cls-3" d="M585.49,538.28l-1.6.07Z"/><path class="cls-3" d="M743.34,421.45l-1.53.09Z"/><path class="cls-3" d="M538.41,603.3l1,1Z"/><path class="cls-3" d="M510,537.39l-1.46-1.1Z"/><path class="cls-3" d="M855.24,523.35l-1.06-1.06Z"/><path class="cls-3" d="M834.13,523.42l1,1Z"/><path class="cls-3" d="M868.23,535.34l-1.06-1.06Z"/><path class="cls-3" d="M149.35,462.48l-1.9-1Z"/><path class="cls-3" d="M867.23,534.34l-1.06-1.06Z"/><path class="cls-3" d="M147.34,461.47l-1.48-1.1Z"/><path class="cls-3" d="M866.23,533.34l-1.06-1.06Z"/><path class="cls-3" d="M104,412.46l-1-1Z"/><path class="cls-3" d="M879.08,570.33l1.33.88Z"/><path class="cls-3" d="M14.92,411.46c.38.41.76.81,1.13,1.22C15.68,412.27,15.3,411.87,14.92,411.46Z"/><path class="cls-3" d="M856.24,524.35l-1.06-1.06Z"/><path class="cls-3" d="M865.23,532.34l-1.06-1.06Z"/><path class="cls-3" d="M494.59,532.35l-1.11-1.47Z"/><path class="cls-3" d="M840.12,530.39l1,1Z"/><path class="cls-3" d="M602.48,638.22l-1.06-1.06Z"/><path class="cls-3" d="M603.88,639.27l-1.47-1.11Z"/><path class="cls-3" d="M501.58,495.35l-1-1Z"/><path class="cls-3" d="M91.8,395.74l-.86-1.29Z"/><path class="cls-3" d="M72.93,367.06l-1-1.57Z"/><path class="cls-3" d="M133.83,188.7l-1,1Z"/><path class="cls-3" d="M134.84,187.7l-1,1Z"/><path class="cls-3" d="M135.82,186.7l-1,1Z"/><path class="cls-3" d="M150.81,171.72l-1,1Z"/><path class="cls-3" d="M91,394.49l-1-1Z"/><path class="cls-3" d="M488.38,678.34l-.84-1.23Z"/><path class="cls-3" d="M492,685.2l-1.12-.44c.18-.22.35-.44.52-.67Z"/><path class="cls-3" d="M151.8,170.72l-1,1Z"/><path class="cls-3" d="M167.79,155.74l-1,1Z"/><path class="cls-3" d="M851.22,115.92c0-.51-.07-1-.11-1.54C851.15,114.89,851.18,115.41,851.22,115.92Z"/><path class="cls-3" d="M580.51,689.14l-1.06-1Z"/><path class="cls-3" d="M581.5,690.14l-1-1Z"/><path class="cls-3" d="M582.5,691.14l-1-1Z"/><path class="cls-3" d="M476.6,108.71l-1.13,1.15Z"/><path class="cls-3" d="M587.5,696.14l-1-1.06Z"/><path class="cls-3" d="M470.62,495.38l-1.11-1.47Z"/><path class="cls-3" d="M117.85,205.68,117,207Z"/><path class="cls-3" d="M520.57,571.27l-1.05-1Z"/><path class="cls-3" d="M876,702.26l-.86-1.18Z"/><path class="cls-3" d="M119.83,202.68l-1,1Z"/><path class="cls-3" d="M519.57,570.29l-1.11-1.46Z"/><path class="cls-3" d="M83,382.51c-.37-.49-.73-1-1.1-1.46Z"/><path class="cls-3" d="M208.86,503.38l-1.14-.86Z"/><path class="cls-3" d="M742.24,380.88l-.93-1.41Z"/><path class="cls-3" d="M561.91,566.35l-1.77-1Z"/><path class="cls-3" d="M523.56,745.07l-1.1-1.46C522.83,744.1,523.2,744.58,523.56,745.07Z"/><path class="cls-3" d="M837.25,506.38l-1.1-1.49C836.52,505.39,836.89,505.88,837.25,506.38Z"/><path class="cls-3" d="M556.86,564.38l-1.77-1Z"/><path class="cls-3" d="M866.16,558.81l1.49,1.49Z"/><path class="cls-3" d="M524.42,588.32c.35.34.69.69,1,1C525.11,589,524.77,588.66,524.42,588.32Z"/><path class="cls-3" d="M535.41,774.09c.35.34.69.69,1,1C536.1,774.78,535.76,774.43,535.41,774.09Z"/><path class="cls-3" d="M536.41,775.09l1,1C537.1,775.77,536.76,775.43,536.41,775.09Z"/><path class="cls-3" d="M537.41,776.09l1,1Z"/><path class="cls-3" d="M538.41,777.09l1,1Z"/><path class="cls-3" d="M846.25,515.35l-1-1.05Z"/><path class="cls-3" d="M541.41,780.06l1,1.05Z"/><path class="cls-3" d="M542.41,781.06l1.12,1.43Z"/><path class="cls-3" d="M965.79,590.59l-.69-1.37Z"/><path class="cls-3" d="M874.22,699.13l-1.06-1Z"/><path class="cls-3" d="M173.85,234.69a54.32,54.32,0,0,1-2.89-7.11c-4.3-16.83,0-31.46,10.43-45.2C193,167.14,209,161.12,226.84,159.2c6.11-.66,12.81,1.63,18.88,3.66,12,4,23.48,9.37,31.1,20.31a31.86,31.86,0,0,1,2.15,4.34l-.9.93c-6.49-8.28-13.69-15.42-23.82-19.59-11.83-4.88-23.65-10-36.45-5.87-9.1,2.92-18.44,6.56-26.07,12.1-7.79,5.65-12.93,14.57-17,23.51a29.67,29.67,0,0,0-2.68,12.13c.09,8,1.14,16,1.79,24Z"/><path class="cls-3" d="M279,187.51c1.9,5.14,5.08,10.2,5.44,15.45,1,14.79.25,29.51-6.72,43.23A34.55,34.55,0,0,1,257,263.71c-25.45,8.48-49.74,2.9-73.45-7.2-1.22-.52-1.79-2.55-2.67-3.88h0c1.63.66,3.3,1.24,4.89,2,17.36,8.17,35.69,12.61,54.75,10.66,8.66-.88,17.56-4.3,25.23-8.58s11.71-12.74,13.87-21.26c4-15.73,4.79-31.53-1.57-47Z"/><path class="cls-3" d="M180.89,252.63c-.84-.53-2.22-.88-2.44-1.6-1.66-5.4-3.09-10.88-4.6-16.34h0a10.09,10.09,0,0,1,1.95,2.5c1.78,5.11,3.41,10.28,5.09,15.44Z"/><path class="cls-2" d="M399.62,359.5q.57,21.63,1.14,43.27c.17,7-2.79,12.38-8.28,16.63a10.38,10.38,0,0,1-10.78,1.53c-8.66-3.35-17.21-7-25.91-10.27-2.9-1.09-3.26-2.53-2.54-5.3,4.19-16,8.35-32,12.2-48.11.93-3.91,2.42-4.66,6.14-3.77,9.32,2.23,18.72,4.07,28.09,6.07Z"/><path class="cls-2" d="M533,126.49c-2.53,8.52-4.41,17.31-7.72,25.52-5.08,12.58-10.13,25.16-11.68,38.66-2.45,21.41-4.71,42.86-6.14,64.35-1.56,23.52-2.06,47.1-3.05,70.66-.55,13.1-1.23,26.2-1.66,39.3-.11,3.33-1.72,4-4.45,3.5-6.19-1.21-12.39-2.36-18.48-3.94-1-.27-2.31-2.68-2.17-4,2.4-21.74,5-43.45,7.56-65.18,2.19-19,3.92-38,6.55-56.87A366.78,366.78,0,0,1,499.11,201c5.36-21.53,11.25-42.94,17.29-64.3,2.12-7.45,5.24-14.63,8.16-21.84.6-1.49,2.36-2.51,3.58-3.75a19.83,19.83,0,0,1,2,4.2c.8,3.54,1.28,7.16,1.89,10.75Z"/><path class="cls-2" d="M574,52.65c23.43.56,40.55,3.85,56.95,10.05,20.61,7.81,41,16.32,61.37,24.62,1.14.46,2,1.7,2.92,2.58a20.67,20.67,0,0,1-4.14.68C678,90.15,666.27,85,654.34,80.35c-16-6.26-32.78-9.37-49.8-11.48A141,141,0,0,0,543.06,75a67.85,67.85,0,0,0-15.78,7.87c-8.67,5.63-17.3,11-28,11.42-4.71.21-6.06-1.38-3.68-5.46,3.86-6.65,8.75-12.19,16.37-15.15,8-3.1,15.49-7.64,23.56-10.56C549.81,58,564.13,52.33,574,52.65Z"/><path class="cls-2" d="M684.22,355.57c2-22.61,3.87-45.23,6-67.82.61-6.42,1.85-12.78,3.06-19.11.26-1.32,1.66-2.42,2.53-3.62,1.1,1.28,3.08,2.51,3.14,3.84.32,6.79.85,13.69,0,20.39-2.29,18.12-.71,36.1.85,54.1.78,9.07,2.25,18.08,3.43,27.11.37,2.82-.3,4.57-3.66,4.1-4.08-.56-8.21-.81-12.24-1.63-.87-.17-1.89-2.13-2-3.31-.23-4.65-.09-9.31-.09-14Z"/><path class="cls-2" d="M360,626.83c0,18.58,0,37.17,0,55.75a20.38,20.38,0,0,1-.83,4.08,22.58,22.58,0,0,1-2.65-3.61c-3.8-8.08-7.42-16.25-11.23-24.32-5.83-12.36-7.51-25.65-8.87-39-.33-3.16,6.83-8,10.92-7.61C354.32,612.77,360.88,620,360,626.83Z"/><path class="cls-2" d="M651.44,453.48c-.8,1.44-2.3,2.88-2.28,4.31.08,7.63.94,15.26.79,22.87-.28,14.25-1.45,28.49-1.51,42.74,0,7.4,1.55,14.8,2.4,22.2.17,1.48.73,3.06.4,4.42-.65,2.69-1.63,7.37-2.76,7.46-2.86.22-6.67-.85-8.68-2.84-7.67-7.57-9.71-17.73-10-27.89-.52-19.78,0-39.58-.36-59.37-.12-5.69-1.83-11.4-3.25-17-.94-3.7.13-4.87,3.77-4.79,6,.15,12,.06,18,.06,5.63,0,6,.62,3.68,6a6.64,6.64,0,0,0-.21,1.86Z"/><path class="cls-2" d="M573.45,474.78c0-8.15.17-16.3-.07-24.43-.11-3.56,1.27-4.35,4.42-3.94,8.21,1.06,16.43,2.11,24.67,2.93,3.06.3,3.77,1.17,3.26,4.39-2.54,16-5,32.08-7,48.18a202.49,202.49,0,0,0-1,22.86c0,3.86-1.4,5.46-5.26,5.32-14.8-.55-13.39,3.28-16-12.77-2.24-14-3-28.27-4.4-42.42Z"/><path class="cls-2" d="M493.81,429.87c-4.08-.62-8.15-1.45-12.25-1.8a74.06,74.06,0,0,0-13.14-.28c-3.18.31-4-.71-3.68-3.43,1.65-15.3,3.28-30.59,5.11-45.86a4.34,4.34,0,0,1,2.91-2.89c4.92-.65,9.91-.84,14.87-1.2,19.05-1.38,28.44,14.47,26.8,30.11a62.24,62.24,0,0,1-1.93,11.22C508.85,428.18,507,429.44,493.81,429.87Z"/><path class="cls-2" d="M589.54,436.4c-3.49,0-7-.26-10.47.07-4.26.41-5.19-1.54-4.76-5.26,1.7-14.63,3.25-29.28,5.06-43.9.16-1.27,1.66-3.23,2.77-3.4,8.5-1.31,17.05-2.35,25.61-3.3,3.87-.43,5.86,1.41,7,5.39,3.49,12.79,5.08,25.43-.93,37.89a66.66,66.66,0,0,1-5,8c-4.2,6.33-10.68,4.73-16.69,4.73h-2.49Z"/><path class="cls-2" d="M533.2,437.44c-11.75-.74-11.49-.71-9.94-12.49,1.68-12.79,2.94-25.64,4.12-38.49.32-3.43,1.29-5.11,5-5.1,6,0,11.93-.62,17.89-.61,9.52,0,12.61,2.05,14.75,11.14a54.84,54.84,0,0,1-1.84,32.29,15.3,15.3,0,0,1-11.5,10C545.62,435.58,539.37,436.37,533.2,437.44Z"/><path class="cls-2" d="M700.66,445.43c4.08-.9,4.21,1.46,3.07,4.43-4.29,11.15-8.54,22.31-13,33.4-2.7,6.77-5.63,13.44-8.63,20.09-.62,1.38-2,2.43-3,3.63-.89-1.3-2.41-2.52-2.57-3.91-.66-5.73-1.68-11.59-1.17-17.27,1.1-12.39,3.12-24.7,4.59-37.06.31-2.54,1.3-3.4,3.78-3.35C689.4,445.51,695,445.43,700.66,445.43Z"/><path class="cls-2" d="M665.38,386.45c6.25,9.57,8,20.26,8,31.44,0,5.66-1.39,10.43-6.59,13.54-2.27,1.36-4.15,3.56-6.55,4.45a15,15,0,0,1-8,.79c-6-1.33-11.74-3.46-17.64-5.09-3.33-.92-5.09-2.67-5-6.3.11-12.74-.05-25.48.34-38.2,0-1.6,2.61-4.24,4.29-4.49,8.48-1.25,17.11-2.88,25.16,2.22,1.68,1.06,4,1.14,6,1.67Z"/><path class="cls-2" d="M463.75,453.7c0-4,.08-8,0-12-.08-3.05,1.28-4,4-3,10.3,3.91,21.56,6,29.49,14.56C498.78,455,500.28,458,500,460a186.5,186.5,0,0,1-4.9,20.78c-.34,1.2-2.36,2.39-3.81,2.74-6.59,1.57-11.49-2.81-17.15-4.88-8.44-3.09-11.39-8.51-10.35-17a66.18,66.18,0,0,0,.05-8Z"/><path class="cls-2" d="M479.59,584.22c.17,1.24-.08,2.79.58,3.66,7.24,9.6,6.4,21,7.09,32,.13,2,.58,4.13,0,5.94s-2.2,3.44-3.36,5.13c-1.29-1.36-3.39-2.54-3.73-4.1-2.34-10.81-4.44-21.69-6.37-32.59a106.42,106.42,0,0,1-1.13-12.88c-.05-.92.78-1.89,1.21-2.84.69.64,1.4,1.24,2.05,1.91,1.24,1.25,2.44,2.54,3.66,3.82Z"/><path class="cls-2" d="M332.74,597.27c1.35-1.69,2.39-3.89,4.12-5,9.5-6,9.64-6,16.67,2.38a81.54,81.54,0,0,1,6.86,9.9c.46.74-.18,2.15-.31,3.25a27,27,0,0,1-3.12-.68c-6.63-2.27-13.23-4.41-19.85.13a2.6,2.6,0,0,1-2.21-.87c-.6-2.73-.9-5.53-1.31-8.3Z"/><path class="cls-2" d="M299.65,577.24c6.11-.65,11.38,1.45,15.92,5.29a11,11,0,0,1,3.48,5.09c.48,1.74-.3,3.84-.53,5.78a31.13,31.13,0,0,1-4.95-1.08c-7.16-2.79-14.1-1.42-20.77,1.32-3.79,1.55-4.36.25-4.25-3,.17-5.08,2.83-8.25,7.27-10.36,1.45-.68,2.58-2,3.86-3Z"/><path class="cls-2" d="M550.18,547.54c0,5.72-1,6.26-5.67,3.79-4.26-2.24-8.59-4.33-12.79-6.64-1.42-.78-3.36-1.86-3.66-3.13-.75-3.12-.67-6.44-.93-9.67,2.2.89,4.45,1.67,6.59,2.69,3.9,1.86,7.63,4.12,11.63,5.72C549.05,541.78,550.57,544.17,550.18,547.54Z"/><path class="cls-2" d="M551.21,583.38c-2.24.91-3.87,2.11-4.45,1.72a76.82,76.82,0,0,1-8.91-7c-.6-.54-.24-2.13-.32-3.23a10.81,10.81,0,0,1,3.09.23,28.91,28.91,0,0,1,6.26,3C548.3,579.14,549.2,580.88,551.21,583.38Z"/><path class="cls-2" d="M597.65,564a32.51,32.51,0,0,1,.39,5.24,15.72,15.72,0,0,1-1.35,3.86c-1.11-.86-2.68-1.48-3.25-2.61a61,61,0,0,1-3.44-8.8c-.35-1.1-.22-3.42.07-3.48a23.2,23.2,0,0,1,6.69-.57c.48,0,1,2,1.15,3.18A13.15,13.15,0,0,1,597.65,564Z"/></g></g></g></svg>