<svg id="Layer_1" data-name="Layer 1" xmlns="http://www.w3.org/2000/svg" viewBox="0 0 1920 1080"><defs><style>.cls-2{fill:#80f86e;}.cls-3{fill:#f77707;}</style></defs><path class="cls-1" d="M444.1,515q0-189.21-.09-378.42c0-3.75.84-4.59,4.59-4.59q262.2.17,524.4.09c-1.73,1.85-4,.57-6.1,1.15-9.47,2.67-18.27,6.93-27.34,10.58-8.13,3.27-16.65,5.57-23.83,10.77s-15.22,9.68-19,18.61a72.22,72.22,0,0,1-16.64,24c-4.54,4.34-8.37,9.44-13.74,12.9-1.29.84-2.27,2.42-1.92,3.73a3.59,3.59,0,0,0,3.4,2.45c8.61.48,17.57,3.94,25.21-3.19l0,0c-1.39,3.25-2.45,6.73,2.14,8a19.29,19.29,0,0,0,16.27-2.68c10.24-6.77,17.94-16.48,27.72-23.84,9.55-7.18,18.8-14.1,31.1-16.54,16.45-3.26,32.55-7.87,49.47-9.07,11.63-.82,22.93-.73,34.24,1.91,9.79,2.28,19.41,5.94,29.48,6.26,12.59.41,25.16,1.91,37.77,1.15,4.21-.26,8.37-.91,12-3.5,1.14-.82,2-1.35,2-3a2.49,2.49,0,0,0-2.56-2.49c-2.94,0-5.27-1.71-8-2.33-14.54-3.3-28.75-8.17-43.62-9.83-9.11-1-17.93-3.51-27.08-4.26-7.81-.63-15.55-2-23.31-3.15-13.68-2-27.33-1.49-40.27,3.24-20.49,7.47-40.25,16.75-59.84,26.31-5.21,2.54-10.79,5.83-14.16,10.31-5.86,7.82-14.53,12.17-20.82,19.32,2.89-7,7.13-13.06,11.52-19,6.15-8.38,12.78-16.38,19.4-24.41,6.8-8.24,15.92-13.56,25.07-17.85s19.93-5.67,30-8.34c3-.79,8-.65,8.12-3.48.15-3.45-5.15-2-7.62-3.68q245.2,0,490.41-.09c3.75,0,4.59.84,4.59,4.59q-.15,403.41,0,806.82c0,3.75-.84,4.59-4.59,4.59q-511.9-.15-1023.81,0c-3.75,0-4.65-.84-4.6-4.59.23-17.5.1-35,.1-52.49,2.42,7.05,3.51,14.37,6.65,21.38,5.88,13.09,15.52,21.49,27.78,27.87,2.36,1.23,4.75,0,7.07,1.53,4.22,2.81,10.1,1.4,13-2.79,3.69-5.3,3.46-11.3,1.87-17.1-2-7.23-7.86-11.57-13.66-15.48-3.18-2.14-4.61-4.87-5.67-8.12-1.62-5-1.29-10.18-.85-15.22a15.39,15.39,0,0,1,6.25-11.41c12.59-10,18.21-20.16,14.56-37.16-1.52-7.06-2.52-8.19-9.85-7.39s-13.75,5.13-20.09,8.86c-11.51,6.78-19.46,16.57-24.71,28.88-1.73,4-.21,8.39-2.36,12.15V522c3.33,7.76,5.5,16.24,13.44,21.07a2.49,2.49,0,0,1,1.45,2.45c-.69,3.94,2.31,5.58,4.74,7.45.76.58,1.78.82,2.19,1.81,4.71,11.06,13.47,19.37,19.93,29.25,3.67,5.61,8.4,10.79,11.66,16.46a209.37,209.37,0,0,0,14.16,21.34c6.34,8.44,11.55,17.63,16.67,26.59,4,7,8.41,14.12,12.1,21.48,5.78,11.53,13.47,22,21.44,32.1,3.4,4.32,6.31,9.32,10.53,12.62,6.85,5.36,14.64,9.46,22.31,13.69,9.78,5.39,20.06,9.62,30.2,14.09a314.89,314.89,0,0,0,44.52,15.72,56.6,56.6,0,0,0,16,2c4.17-.09,5.18-2.31,3.59-6-3.21-7.45-6.28-15.05-5.74-23.37.52-8,1.13-15.91,6.22-23a27.82,27.82,0,0,0,4.56-9.52c1.84-8,6.58-14.7,9.81-22.05s7.5-14.1,11-21.17c6.05-12.18,12.83-23.9,19.69-35.58s14.28-23.31,22.31-34.32c7.74-10.62,13.27-22.47,20.32-33.44,2.84-4.43,1.61-6.65-3.62-6.67-2.87,0-5.52-.78-8.28-1.15-5.33-.7-10.8-1-15.94-2.49-5.94-1.69-11.85-3.18-18-3.47-3-.14-5.45,1.55-5.35,4.48.13,3.95-1.32,7.42-2.24,11A199.38,199.38,0,0,1,699,611.48c-4.21,6.62-9,12.53-16,16.33-6.38,3.45-13,5.93-20.36,6-7.22.09-13.72,0-19.76-5.85-7.48-7.18-15-14.05-20.2-23.17-2.79-4.91-6.71-8.61-13-7.91a27.8,27.8,0,0,1-10.24-1.24c-4.64-1.24-9.89-2.5-12.86-6.46-6.53-8.73-13.74-17-18.83-26.84-1.76-3.41-2.59-8.33-6.68-10-9-3.66-15.07-10.59-20.9-17.84-8.06-10-13.5-21.72-20.79-32.22-3-4.33-6.66-8.31-9.11-12.92a177.86,177.86,0,0,0-12.12-19.05c-2.33-3.31-5-4-8.61-1.57-6.15,4.12-12.32,8.05-18.1,12.81-5.46,4.51-11.46,8.08-15.81,14.05C451.15,501.77,445.68,507.18,444.1,515Zm143.08,19,.86-.49a96,96,0,0,0,13.57-13c11.57-13.93,26.08-24.75,38.31-38,7.11-7.66,14.5-15.38,22.94-21.82,4.54-3.47,9.62-6.24,13.56-10.52,1.28-1.38,2-2.37.69-4.17-3.53-4.92-7.62-9.2-13-12.1.08-1.39-.55-2.09-2-2-2-2.36-3.62-5.23-7-6.07-3.4-4.16-6.68-8.54-13.13-6.83a11.12,11.12,0,0,1,9.42,0c9.75,4.53,19.43,9.08,23.94,20,1.32,3.19,3.75,6.82,7.14,6.89,9.51.19,17.73,4.1,26.1,7.61,6.25,2.63,11.29,6.26,13.47,13.6,2.49,8.41,3.76,16.59,2.86,25.38-1.23,12-4,23.82-5.42,35.82-.65,5.28-.07,6.66,5.12,6.78,7.09.16,14-1.29,21.06-1.95,13.11-1.22,25.92,1.14,38.23,5.27,4.72,1.59,6.22-.14,7.69-3.38a24.61,24.61,0,0,0,2.5-7.83c1.06-12.43,5.87-24,8.41-36.07,1.44-6.81,3.85-13.33,2.6-20.31-1.42-7.9-3.45-15.74-10.95-20.32-3.22-2-6.12-4.41-9.37-6.25-4.92-2.79-6.53-7.14-6.59-12.33-.09-8.49,0-17,0-25.48,0-4.43-.85-8.7-4.48-11.45-6.9-5.23-7.78-12.2-7.66-20.19a187.16,187.16,0,0,1,3.77-33.16c2.54-13.23,6.83-26,8.72-39.39,1.41-9.92,5.36-19.07,9.26-28.11,6.68-15.46,12.33-31.4,20.81-46.06,2.63-4.56,1.68-8.63-2-9.19a112.66,112.66,0,0,0-11.76-1.07c-5.31-.24-10.63-.26-15.94-.37a45.22,45.22,0,0,0-14.82,0c-6.5.78-13,1.33-19.48,2.43-5.22.89-10.3,2.85-15.45,3.72A188.34,188.34,0,0,0,708,229c-8.83,2.57-17.49,5.81-26.12,9-11.39,4.25-22.68,8.85-33.19,15-9.19,5.39-16.7,13.09-24.94,19.76-11.24,9.11-21.54,19.29-32,29.32-6.86,6.57-13.1,13.78-20.35,20-10.33,8.85-17.57,20.31-24,32.12-4.22,7.75-5.85,16.38.59,23.87A114.94,114.94,0,0,0,566.4,395.3c8.1,6.06,16.39,11.65,25.73,16,8.74,4.05,17.26,8.74,26,12.84,2.92,1.37,5.65,2.22,9.61.72,4.82-1.82,9.16-4.9,14.32-5.82a37,37,0,0,0-10.6,13.53c-7,14.53-14.07,29-21.07,43.53S595.84,505,588.83,519.52c-1.82,3.78-4.59,7.19-5.19,11.53-1.11,1.84-2.26,3.67-1,6.11,1.74-1,3.67-1.14,4.39-3Zm5.25-75.73a62.21,62.21,0,0,0,16-14.06c6.73-2.67,10.12-9.82,16.67-12.79,1.75,2.63-2.63,4-.74,6.88,2.53-2.53,5.21-4.68,4.77-8.61-.22-2-1-3.76-3.52-2a90.33,90.33,0,0,0-17.75,15.89c-1.37.82-3,1.36-4,2.49-3.77,4.12-9.68,6.08-11.86,11.77-5.58.7-7.51,5.83-11,9.07-1.59-.22-2.35,1-3.29,1.89a367,367,0,0,1-34,29.55c-3.94,3-5,8.1-9.07,10.3-4.52,2.43-4.19,5.59-2.16,9,3,5.05,5.87,10.28,9.69,14.67,3.13,3.61,6,8,11,9.59a46.2,46.2,0,0,0,4.86,5.55c2.06,1.72,3.94,2.66,6.25-.7,3.67-5.35,5.59-11.6,9.66-16.8,1.44-1.83,3.74-4.57,3.32-7.79,4.62-4.46,6.54-10.44,9-16.12,14.42-21.38,25.22-44.77,38.7-67.55-3.46.27-3.88,2.1-4.66,3.48-9.17,16.15-18.54,32.2-27.31,48.56-2.58,4.82-6.94,9-7.08,15a31.47,31.47,0,0,0-9.3,16.3c-4.56,2.87-5.71,8.11-8.34,12.3-2.17,3.46-3.44,7.83-6.6,10.24-2.93,2.24-5.09-3-8.37-2.67,0-2.2-1.85-3.09-3.12-4.24-6.5-5.89-10.81-13.36-15.32-20.71-1.14-1.86-1.72-3.75-.05-5.45,4-4.12,8-8.3,12.36-12.12,10.91-9.66,22-19.13,33-28.7.85-.74,1.75-1.61,1.15-3C586.26,466,589.73,462.58,592.43,458.27ZM938.42,652c-3.39-7.25-7.59-14.25-9.9-21.83-1.77-5.8-3.3-10.85-8.78-14.26-2.64-1.64-5.37-3.5-7.69-1.33-2.73,2.54.55,5.08,1.94,7,7.46,10.31,12.75,22.06,21.21,31.69,2.76,2.27,3.44,5.8,5.25,8.65l.61,1.49a.56.56,0,0,0,.32.5c1.53,3,4.68,5.25,4.64,9.09-3.93-5.26-8.08-10.28-11.42-16.07-9.13-15.8-21.06-29.82-29.9-45.86-1.4-2.56-4.05-4.41-7.11-3s-2.78,4.35-1.72,7.16c1.54,4.07,5.25,6.81,6.41,11.24.78,2.94.42,6.15,2.34,8.89,3.28,4.66,6.07,9.67,9.38,14.3,9.62,13.46,19.39,26.81,29.11,40.19,4.43,6.09,9,12,13.72,17.92,6.24,7.85,12.87,15.34,19.38,22.93A105.68,105.68,0,0,0,991.89,746c7.74,5.93,16.3,10.76,24.36,16.28,9.82,6.72,19.72,13.32,29.27,20.47,5.22,3.92,9.59,9.21,16.08,11.47,2.71.94,5.08,1.61,7-1.15s-.18-5.13-1.7-6.55c-8.33-7.74-17-15.08-25.46-22.71-5.23-4.73-12-7-17.31-11.77-2.51-2.28-4.58-5.08-7.41-7-11.26-7.53-22.91-14.56-33.13-23.49-4.76-4.16-10.79-6.69-14.58-12.16-1.66-2.39-2.65-5.23-5-7.27-5.78-5.06-8-12.62-12.34-18.71-1.08-1.5-3-3.54-2.53-6.09A63.05,63.05,0,0,0,971.59,694c10.06,4.49,19.86,9.94,29.74,15,13.52,7,26.89,14.11,41.12,19.66,8.3,3.24,16.56,2.73,24.75,2,3.74-.31,8,.81,11.54-1.53,1.15-.75,3.4-.5,3.2-2.44-.15-1.41-1.61-2.33-3-3-4.37-2.17-9-3.33-13.72-4.52-19.77-5-37.66-15.05-57-21.29-7.29-2.36-13.33-6.93-20.06-10.24-9.94-4.89-19.95-9.72-29.15-15.93-5.18-3.51-10.06-7.47-15.08-11.22C942.13,657.66,939.39,655.39,938.42,652ZM1187.5,541.92a125.82,125.82,0,0,0,0-24.85,6,6,0,0,0-.36-1.43c-2.28-4.28-2.49-10.3-8.41-11.69-7.82-1.84-18.79,7.33-15.51,16.43a26.53,26.53,0,0,1,1.56,11.59c-.45,4.43,1.16,8.27,3,12.19,1.56,3.45,4.12,4.5,7.47,4a87.13,87.13,0,0,0,9-2A4,4,0,0,0,1187.5,541.92Zm-34.6-29.42a148.28,148.28,0,0,0-27.87,0c-1.1.68-3.25-.23-3.19,2.21.2,7.45-.3,14.91.36,22.38.62,6.95.76,14,1,20.95.09,3.23,1.09,5.08,4.74,5.19,7.6.21,15-1.19,22.36-2.61,6-1.16,9.11-4.74,11-10.32,1.13-3.28.29-6.54,1.08-9.71,1.38-5.55.3-11.26-1-16.4C1160.37,519.77,1158.54,514.32,1152.9,512.5ZM868,614a19.36,19.36,0,0,1-1.12,6.24,66.43,66.43,0,0,0-1.82,27.73c2,14.85,5.17,29.54,7.72,44.31,1.3,7.56,2,15.25,3.57,22.74,2.53,11.81,8.06,22.52,13.11,33.4,4.54,9.79,11.41,18.29,15.59,28.27a53.53,53.53,0,0,0,2.68,5.74c3.94,7,7.46,14.23,10.76,21.41,8.07,17.52,16.83,34.69,25.73,51.75,7.43,14.26,16.56,27.57,25.86,40.79,6.27,8.91,15.13,14.64,22.24,22.37.86.93,2.81,2.41,4.38.86,1.37-1.35,0-3-.74-4-3.91-5.58-8.17-10.91-12-16.53-7.23-10.51-16.4-19.55-21.34-31.85-4.34-10.78-11.41-20.44-16.17-31.09-5.05-11.27-13.15-20.8-17.29-32.6-2.23-6.35-6.44-12-9.66-18-4.27-8-7.89-16.36-12-24.39a91.78,91.78,0,0,1-6.91-17.45c-3.84-13.87-9-27.33-12-41.52-3.37-16.12-6.24-32.16-6.36-48.62-.08-12.33,0-24.66,0-37,0-2.44.42-5.53-2.33-6.42-2.54-.82-5.61-.94-7.66,1.92a4.14,4.14,0,0,1-4.23,2c1.8-4.45,3.9-8.37,9.8-7.88,2.77.24,4.34-1.61,4.36-4.28.1-9.15,0-18.31.05-27.47,0-2.56-1.38-3.79-3.7-4.53-4-1.27-7.94-2.77-11.92-4.14s-8.37-4.67-12.18-2.38c-7.37,4.42-12.69,11.58-13.28,20.1-.77,11-1.75,22.06-.58,33.31,1.34,12.79.09,25.82,1.23,38.73.79,9,.05,18.13.86,27.26,1.43,16.26-.51,32.64,1.89,49a63.88,63.88,0,0,0,11.53,28.87c.78,1.08,1.78,3.25,3.92,1.94,1.46-.9,2.63-2.26,2.13-4.14-1.48-5.55.18-11.4-1.06-16.76-3.28-14.24-2.62-28.75-3.68-43.12-1.12-15.38.33-30.83.84-46.25,0-.8.44-1.58.51-2.39.72-8.81,4.13-17,5.81-25.64C865.18,620.88,865,616.71,868,614Zm81-154.31c.55-11.08.39-22.17,1-33.27.77-14.18,1.08-28.37,2.06-42.56,1.19-17.38,2.65-34.69,4.87-52a170.6,170.6,0,0,1,9.54-38.15c2.75-7.38,5.57-14.71,8.16-22.16,3.33-9.61,3-18.92.47-28.41-.58-2.19-1.63-4-4.48-4.57a4.07,4.07,0,0,0-4.4,2c-3,6.49-6.34,13-8.18,19.87-2.77,10.34-5.88,20.59-8.69,30.9-6,22.11-12.13,44.11-15.69,66.81-1.5,9.53-2.29,19.13-3.76,28.65-1.12,7.26-2.71,14.52-2.91,21.82s-1.68,14.39-2.57,21.52c-1.29,10.4-1.83,20.87-3.42,31.25-1.54,10-2.24,20.18-3,30.29a5.59,5.59,0,0,0,3.47,6c5.71,2.85,11.88,1.95,17.7,3.42,6.53,1.65,8.93-.35,9-7.22q.15-10,.32-19.95C949.69,469.21,948.76,464.41,949,459.65ZM785.52,596.06a70.82,70.82,0,0,0,0,18.85c.11,2.15.41,4.31.31,6.45-.58,12.46.82,24.86,1.25,37.28.54,15.58,3.37,31,3.72,46.65.09,4.15,1.59,7.24,4.13,10.59,5.16,6.79,13.05,11.68,12.44,22.52a64.44,64.44,0,0,0,2.41,22.87c.8,2.56,1.17,5.08,4.15,5.82,3.54.87,3.82-2.38,4.88-4.33.57-1.06.2-2.6.43-3.89,1.48-8.44-2.58-16-3.82-24.07-1.95-12.65-4-25.26-4.16-38.06-.12-7.92.33-15.85.73-23.77.81-16,1-32.05,2.13-48.06.63-8.84,2.47-17.48,3.74-26.21,1.82-12.57,5.95-24.67,7.49-37.31.39-3.17-.35-4.86-3.12-6.09-1.06-.48-2.5-.62-3-2.07,1.83.12,3.53-.09,5.35.76,5,2.33,13.85-1,16.66-5.81,3.53-6,4.74-12.51,5.07-19.46.56-12-1.06-23.69-2.12-35.51a5.42,5.42,0,0,0-3.56-4.93c-3.6-.94-6.91-2.6-10.47-3.63-6.38-1.83-13.24-.85-19.4-3.86-2.81-1.37-4.26,1.4-4.75,3.37-1.91,7.52-4.21,15-5.89,22.49-2.21,9.91-4.36,19.87-6.64,29.77-.84,3.66-.1,5.13,3.13,6.9,6.23,3.42,13.54,4.18,19.36,8.41-4,.63-7.26-1.48-10.59-3.15-4.44-2.21-8-.73-9.35,3.93-.61,2.19-1.12,4.41-1.81,6.58C790.39,571.2,786.93,583.38,785.52,596.06Zm672,349c4.09-.41,9-.93,14-1.4,3.27-.3,4.78-.93,2.51-4.7a22.78,22.78,0,0,0-16.33-11c-5.71-.92-11.11-2.59-15.4-5.8-8.82-6.6-18.88-10.89-28.33-16.22a428.89,428.89,0,0,1-36.49-22.57c-11.84-8.34-24.51-15.67-35-25.89-5.79-5.66-11.92-11.06-17.13-17.23-7.21-8.55-13-18.18-18.94-27.68-10.14-16.26-19.3-33.05-28.51-49.85-9.81-17.88-16.79-37-25.36-55.34-5.58-12-9.52-24.68-14.45-37-3.58-8.9-8.14-17.45-11.24-26.51-3.92-11.49-9.76-22.15-13.71-33.6-3.86-11.18-7.65-22.41-12.19-33.31-3.08-7.39-5.73-15.06-10.15-21.84-3.14-4.84-6.88-5.16-10.93-.85s-4.92,9.84-7,14.93c-.2.49.19,1.27.44,1.87,5.07,12.17,10,24.4,15.31,36.47,4.32,9.84,8.53,19.8,10.92,30.19,3.42,14.88,7,29.73,11.85,44.16,6.28,18.64,14.84,36.41,23.41,54.1,5.93,12.24,12.15,24.34,18.76,36.26,4.07,7.33,8,14.76,12.3,22,7,11.83,14.19,23.57,22,34.86,5.63,8.13,12.65,15.29,18.6,23.22a173.77,173.77,0,0,0,15.69,18,427.67,427.67,0,0,0,35,31.87c8,6.49,16,12.75,25.06,18,11,6.47,22,13.14,33.83,17.42C1429,942.36,1442.74,944.39,1457.5,945.08ZM871.81,489.61c8.17,1.13,16,2.78,23.42,6.24,2.76,1.3,6.48-1.18,6.89-4.41a22,22,0,0,0,0-6.48,159.8,159.8,0,0,1-2.74-28.37c.11-21.26-.92-42.52.58-63.8.59-8.38,1.14-16.83,1.37-25.27.21-7.52,1.31-15.07,2.13-22.58,1.28-11.8,4.77-23.21,7.72-34.7,3.27-12.74,5.63-25.72,9.28-38.34,2.93-10.12,6.28-20.13,9-30.33,1.12-4.23,2.14-8.49.81-12.94-.37-1.23-.75-2.24-1.94-2.61s-1.78.53-2.69,1.37c-5.52,5.15-8.39,12.09-12.45,18.18-7.82,11.72-12.16,25.07-16,38.57-3.91,13.88-8.2,27.65-11.51,41.71-2.41,10.27-4.74,20.56-6.82,30.9-2.48,12.35-3.86,24.84-5.14,37.36-.78,7.68-1.07,15.46-2.24,23-1.55,10.05-2.26,20.16-3.58,30.21-1.23,9.25-2.29,18.55-2.85,27.86-.27,4.55-1.8,9.63,2.42,13.34-1,1.65-2.41,1.43-3.68,1.32-4.64-.39-6.23,1.89-6,6.26.2,4-.19,8,.09,12,.88,12.76-2.3,24.69-7.11,36.31-1.26,3,.47,6.11,4,6.75a116.45,116.45,0,0,1,22.38,6.75c5.32,2.15,7.78,2.25,12.57-3,6.38-6.94,11-14.51,12-24.74.9-9.88-.44-19.28-1.78-28.8-.39-2.79-2.18-4.71-6.15-4.79C885.83,496.45,878.49,493.61,871.81,489.61Zm512.31-153.7a40,40,0,0,0-5.35,0c-15.64,2.56-30.29,8.53-45,13.85-11.48,4.14-20.87,12.35-29.6,20.63-9.12,8.65-18.38,17.15-26.85,26.61-11.18,12.5-23.15,24.33-34.23,37-9.48,10.84-17.84,22.54-27.06,33.58-8.57,10.25-15.83,21.59-24.31,31.92-4.45,5.41-4.6,10.19-2.07,16.26,1.61,3.86,3.46,4,6.22,2,4.58-3.37,8.65-7.36,12.87-11.17a374.87,374.87,0,0,0,27.18-27q18.92-20.91,37.91-41.74c4.63-5.09,9.31-10.22,13.58-15.61,3.14-3.95,6.09-8.33,9.59-11.71a245.66,245.66,0,0,1,35.17-27.7c9.31-6.18,19.2-11.5,28.94-17,12.47-7,26.21-11.33,39-17.68,1.7-.84,3-2,3-4.15s-1.47-2.71-3-3.48C1394.82,337.71,1389.48,335.21,1384.12,335.91Zm-89.29-90.53c.1-4.45-3.15-6.84-7.73-5.12a24.45,24.45,0,0,0-5,2.93c-11.08,7.57-19.67,17.49-27.45,28.31-8.06,11.21-16.53,22.12-24,33.77s-10.76,25-15.15,37.87c-4.93,14.48-6.93,29.44-9.91,44.28-3.09,15.41-3.7,31.29-8.87,46.28-4.34,12.6-9.63,24.81-15.12,36.92-4.25,9.36-9,18.47-13.36,27.79-.48,1-1.94,2.61-.46,4s3.09,1,4.57.06c2.23-1.47,4.72-1.47,7.17-1.26,3.86.33,6.63-1.57,9.08-4.1,1.86-1.91,3.15-4.31,4.7-6.45,6.2-8.51,10.55-17.92,14.46-27.6,6.79-16.83,11.21-34.42,16.18-51.8,2.9-10.11,4.36-20.63,6.65-30.92,2.63-11.84,6.44-23.34,9.87-35a142.77,142.77,0,0,1,8.29-22.22c9.79-20.07,23.46-37.68,35.94-56.05C1289.18,260.49,1293,253.57,1294.83,245.38ZM1046,506.12c4.08.54,7.1.53,7.53-6.25.48-7.53-.24-14.89-.13-22.3.3-21.57-1.75-43-2.16-64.54-.26-13.32.19-26.66-.12-40-.23-9.95,1.44-19.71,2.34-29.53.25-2.76,0-5.78,1.34-8.62,4.56-10,9-20,13-30.17,1.46-3.78.41-8-1.22-12-1.81-4.37-5.41-7.64-6.78-12.33a5.22,5.22,0,0,0-5.92-3.57c-2.5.37-3.3,1.94-4.2,4.13-2.67,6.47-2.55,13.43-3.6,20.11-1.7,10.77-2.55,21.72-5,32.37-2.69,11.52-4.89,23.17-6.93,34.77-2.52,14.26-5.08,28.57-6.7,43-1.3,11.68-2.84,23.38-4.49,35-1.09,7.65-1.65,15.35-2.41,23-1,9.72-1.54,19.37,1.08,28.89,1.53,5.56,5,7.51,10.75,8C1036.71,506.69,1041,506.11,1046,506.12Zm343.41,224.1c7.28.87,13.21-.65,17.86-7,2.18-3,1.54-4.18-.86-5.69-3.21-2-6.86-2.93-10.5-3.78-8.37-1.95-16.59-4.52-24.88-6.74-10.86-2.91-19.4-10.82-28.82-16.69-7.75-4.82-13.84-12.14-21.12-17.62-8.25-6.22-15.24-13.76-23.41-20.06-7.4-5.7-13.54-13-19.73-20.18-13-15.12-27-29.4-38.85-45.58-7.34-10-16-19.13-23.45-29.07a193,193,0,0,0-16.32-18.28,8.25,8.25,0,0,0-7.57-2.38c-2.33.53-1.94,3.74-2,6.05-.1,5.06,1.86,9.58,4.07,13.89,7.6,14.82,19,26.82,29.78,39.24,6.54,7.52,13.38,14.8,20.15,22.12,5.37,5.82,10.72,11.66,16.3,17.28,6.06,6.1,12,12.17,17.16,19.17,6.22,8.5,13.66,16,20.57,24,9.35,10.74,20,19.85,31.32,28.28a123.62,123.62,0,0,0,20.16,12.23A106.47,106.47,0,0,0,1389.39,730.22ZM870.18,237.09c0-1.66.07-3.33,0-5s-.4-3.72-2.14-3.9-2.59,1.54-3.2,3.24c-2.12,5.93-5.21,11.45-7.51,17.34-5,12.8-10.9,25.25-15.27,38.34-1,2.92,0,6.13-1.67,8.53-3,4.36-4.43,9.27-5.43,14.28-3.8,19-7.44,38-11.06,57-2.19,11.53-3.83,23.19-6.45,34.63-2.44,10.67-3.28,21.56-5.42,32.27-2,10.05-2.76,20.36-4.4,30.49-.73,4.49.15,7.89,4.11,10.28,6.42,3.89,13,7.39,20.79,7.52,3.08.05,6,3.49,9.17.66,3.35-3,.5-6.52.48-9.8-.07-15.58-.08-31.15-.72-46.74-.56-13.71-.79-27.49.58-41.27,1-10,.24-20,2-30,2.2-12.68,4.53-25.34,6.81-38,1.32-7.35,3.73-14.51,5.22-21.79,2.72-13.22,7.13-25.91,10.59-38.89C868.3,250,870.76,243.8,870.18,237.09ZM988.43,505.2c7,.08,12.36-3.22,13.66-8.6a60,60,0,0,0,2.08-14.53c-.1-18.36-1-36.69-1.86-55-1-22.26.07-44.54,1.8-66.76,0-.5.13-1,.19-1.48,1.29-10.54,3-21.06,3.76-31.64.61-8.05,2.73-15.84,4.75-23.42s4.41-15.48,7-23.13c1.46-4.39,2.14-9.15,3.31-13.72.59-2.26,0-4.51-2.25-5.53s-3.19,1.11-4,2.63c-2.13,4.18-4.17,8.41-6.07,12.7-6,13.63-10.23,28-13.51,42.38-2.2,9.63-5.09,19.12-7,28.89-3,15.63-6.13,31.21-8.8,46.93-2.65,15.56-5.41,31.11-8,46.68-3.06,18.19-2.41,36.61-5.14,54.77-.38,2.52-.22,7.49,4.79,7.81C978.39,504.48,983.72,503.52,988.43,505.2ZM1276.14,942c7.19,1.95,11.36-4.47,16.56-8.36,3.41-2.55,6.82-5.36,9.06-9.12,4.77-8.05,3.79-16.83,2.75-25.49-.54-4.43-3-8-6.09-11.37-4-4.42-9.33-6.36-14.22-9.22-9.51-5.56-19.06-10.71-30.11-12.65-7.11-1.24-8.94-4.68-5-9.15,5.52-6.36,6.63-13.72,5.84-21.53-.28-2.85,0-7.22-3.66-7.86-8.2-1.45-17.25-.93-23.85,3.36-9.52,6.18-14.48,16.65-15.35,28.17-.85,11.07,7.18,18.25,14,24.93,8.14,8,18.54,13.3,28.86,18.38,4.17,2.06,8.11,4.6,12.15,7,2.67,1.56,4,3.1,1.32,6.18a26.49,26.49,0,0,0-5.06,9.84C1260.37,934.73,1265.53,942,1276.14,942ZM746,834.72c0,3.75,0,6,0,8.32,0,3-1.15,5.73-4,6.69a8.23,8.23,0,0,1-8.57-2.5c-3.56-4-6-9-9.67-12.91-2.81-3.05-3.73-8-8.29-9.25-4.89-1.36-8.71,1-11.6,4.63-3.41,4.28-3.79,10.1-.86,13.55,5.61,6.59,11.16,13.29,17.34,19.32a125,125,0,0,1,13.86,15.87c5.1,7,10.22,13.95,15.15,21.08,9.56,13.8,20,27,30.16,40.37a6.8,6.8,0,0,0,5.33,2.82c5.25.28,10.59-.38,15.74,1.26,5.9,1.88,9.57-.14,11.6-5.92,1.67-4.72.92-9.52.66-14.22-.11-1.83-1.56-3.81-3.48-5.44-3.57-3-7.31-5.87-10.38-9.68a111.83,111.83,0,0,1-8.74-12.38c-3.67-6.05-10-10-13.07-16.1C769,864.16,758.47,849.79,746,834.72ZM620.5,943H623c7-.07,9.54-3.32,8.17-10.16-.35-1.75-.89-3.43-1.16-5.23-.9-6-1.58-12.54-7.73-15.85a56.8,56.8,0,0,1-8.29-4.87c-5.55-4.33-7.41-10.68-7.55-17.06-.09-4,1.16-8.3,1.76-12.47s1-9.64,4.06-12c4.65-3.54,8.77-8.22,14.74-10a3.28,3.28,0,0,0,2.1-2.6c.65-4.23,1.8-8.51,1-12.72-2.46-12.35-3.32-15-13.39-14.15a18.6,18.6,0,0,1-2.43.32C610,826,607,829.56,603,829.86a9.33,9.33,0,0,0-6.45,3.09c-1.94,2.07-3.76,4.37-6.06,5.94-9.85,6.74-13.61,17.38-17.34,27.74-2.95,8.21-2.12,16.94-1.32,25.7,1.56,17,8.42,31.39,21.41,41.75A41.47,41.47,0,0,0,620.5,943ZM1141,824.88v0c-3.49,0-7,0-10.48,0a6.69,6.69,0,0,0-6.41,3.82c-2.37,5.09-.45,16,2.72,19.95,4.25,5.35,8.5,10.83,10.63,17.81,2.54,8.32,4.21,16.87,7.38,25,3,7.88,7.07,15.3,9.61,23.51,1.93,6.25,6.06,12.07,7.43,18.76.71,3.52,2.51,5.16,5.82,6.26a55.92,55.92,0,0,0,20.21,2.94c7.51-.3,11.14-3.65,11.1-11.2,0-5.48-3.07-9.76-5.74-14.21-2.5-4.17-6-8.2-7-12.73a126.25,126.25,0,0,0-7-24c-3.76-9-8.9-17.53-10.39-27.41-1-6.32-5.38-11.36-6.75-17.54-1.66-7.51-6-11.05-13.62-11.06ZM692,881.7c.17-5.81.33-12.18-2.1-18.32a91.42,91.42,0,0,0-14.33-24.53c-8.1-9.89-19.19-12.93-31.14-13.85-2.27-.17-5.89-.18-6.32,3.25-.87,6.81-2.63,13.48-2.25,20.5.24,4.39,2.27,6.27,5.79,8.42,5.61,3.41,11.39,6.93,13.91,13.8,3.5,9.48,4.09,18.94-1.14,27.72-3.1,5.22-7.17,9.9-13.21,12.7-4.71,2.2-6,7.71-7.34,12.27-1.16,3.9,1.21,8,2,11.94.66,3.23,1.64,7.18,5.33,7.09,3.86-.1,8.47-.49,11.46-3.17,3.94-3.53,8.74-4.78,13.19-7s10-3.58,12.66-7.81C686.67,911.8,693.16,898.19,692,881.7ZM887.82,608.91c-2.88-.4-3.91,1-4,4-.17,8.13,2.48,15.82,3.51,23.77.94,7.4,2.58,14.56,6.65,21.23,3.21,5.25,6.48,10.57,9.22,16.08,5.87,11.79,12.55,23.13,18.57,34.83,3.82,7.41,8.49,14.7,12.54,22,5.78,10.45,11.42,21.1,16.91,31.76,2.81,5.45,5.23,11.26,8.93,16.18,8.12,10.79,18.11,20,27.6,29.47,11.66,11.7,23.93,22.85,36.55,33.5,7.86,6.64,15.65,13.78,26.23,16.5,3.33.86,6,1.18,7.64-2,1.3-2.54-.29-5.19-2.08-6.88-5.79-5.47-11.18-11.33-17.13-16.66-4.65-4.17-10.35-7-14.37-11.87-2.15-2.6-3.71-6-6.21-7.87-8.53-6.24-15.24-14-21.88-22.11-11.28-13.82-24.7-25.84-35-40.54-3.07-4.38-7.63-8.27-9.69-12.57-2.87-6-7.56-10.57-10.3-16.68-5.33-11.85-13.66-22.15-18.58-34.45-4.12-10.28-9.85-19.89-13.78-30.37-4.9-13.08-10.46-25.88-14.17-39.41C894.11,613.7,893.86,608.43,887.82,608.91ZM996.94,840.67c0,11.69,4.47,16.18,16.23,16.32a14.78,14.78,0,0,1,3,.12c7.14,1.54,8.91,5.86,4.43,11.43a13,13,0,0,1-8.48,4.31c-2.73.4-5.56-.41-8.24,1-3.62,2-1.6,5.44-2.22,8.09-2,8.67-5.29,16.76,2.24,25.76A392.12,392.12,0,0,1,1029,940.51c.94,1.4,2.43,1.39,4,1.46,5.6.24,11.27.18,16.75,1.15,3.17.57,6-.14,9-.31,3.65-.21,7.26-4.64,6.15-7.59-2.43-6.49-5.46-12.68-10.93-17.44s-12-9-14.33-16.76c-.8-2.71-1.87-5,2.75-5.2a10.3,10.3,0,0,0,7.78-3.55c5.73-7.33,8.74-15.75,9.86-24.92.37-3-1-3.62-3.66-3.5a19.74,19.74,0,0,1-9.58-1.5c-13.78-6.41-24.41-17.27-36.8-25.6-1.45-1-3.11-1.83-3.92-3.56-.93-2-2.54-4.55-4.39-4a7.38,7.38,0,0,0-4.71,6.43C996.81,837.32,996.94,839,996.94,840.67Zm73.76-363.44c.23,9.51-1,19.1,3.94,28.07,1.2,2.18,2.16,2.79,4.31,2.95,5,.35,10-.73,15-.16,4.07.45,5.37-2.52,6.31-6.27,2.17-8.61-.29-17.07-.41-25.57-.08-5.19-.34-10.52-.75-15.77-.91-11.78-2.12-23.54-2.93-35.32-1.18-17.23,1.26-34.35,2.21-51.51.25-4.69.21-9.52,1-14.22,2.35-13.06,3.47-26.06-2-38.69-.46-1.05.21-2.77-2-2.89a4.27,4.27,0,0,0-4.15,2.23,60.48,60.48,0,0,0-6.43,16,203.44,203.44,0,0,0-4.4,21.95c-1.56,12.18-2.73,24.42-3.42,36.62-.59,10.52-1.82,21-2.65,31.47C1073.07,443.17,1071.24,460.15,1070.7,477.23Zm258.3,63.9c11.74.58,23.2-1.28,34.47-4.28,4.46-1.18,8-3.94,9-8.76a8.57,8.57,0,0,0-4.17-9.21c-5.81-3.33-12-6.13-19-6-9.25.15-18.52-.7-27.76.88s-18.69,2.87-28.08,4c-7,.84-13.73,2.9-20.8,3.12-9.82.31-19.49,2-29.15,3.66-6.87,1.15-13.77,1.87-20.68,1.14-9.89-1-19.74-2.52-29.6-3.79-1-.13-2.23,0-2.66.94-1.32,3-.84,6.11-.34,9.21.41,2.55,1.84,3.26,4.39,3.31a7.66,7.66,0,0,1,4.84,2.19c7.09,7.4,16.47,7.33,25.48,7.53,10.16.23,20.31.9,30.53.27,10.51-.64,21-1.35,31.53-1.74C1301,543.05,1315,540.83,1329,541.13ZM903.08,843.23c0-3.66-.26-7.34.06-11,.42-4.71-3.58-6.62-6-6-6.09,1.66-11.66-1-17.56-.57-8.36.67-11.79,3.5-11.5,12.14.22,6.71,2.26,13.22,2,20-.15,4.46-1.63,8.72-1.2,13.25s-1.13,8.7-1.58,13.06c-.61,6-1.35,12.13-1,18.13a64.39,64.39,0,0,1,0,10.11c-.85,9.15-3.2,18.42,1.48,27.47,1.14,2.21,2,2.85,4.2,3,6.47.31,12.81-1,19.26-1.15,8.15-.19,11.7-2.13,10.66-10.73-1.81-15-1.25-30-1.63-45C899.94,871.73,903,857.55,903.08,843.23Zm237.64,83.7c10.76-.1,14-4.12,10.76-11.93-1.8-4.29-4.48-8.22-5.44-12.86-.22-1.09-1.1-1-1.64-1.53-3.83-3.52-8.67-4.17-13.48-4.71-3.43-.38-4.88-.78-2.73-4.81C1132,884,1134,877,1128.91,869c-3.43-5.38-6.44-11.48-6.92-18.27a6.79,6.79,0,0,0-1.14-3.15c-1.47-2.14-3.07-3.21-5.4-.71-3.59,3.85-7.18,7.92-8.23,13a41.22,41.22,0,0,1-3.33,9.07c-3.3,7.2-6.7,14.36-10.07,21.54-.94,2-2.76,4.09-2.68,6.08.23,5.65-3.62,9.73-5.38,14.49-2,5.3-5.69,10.2-7.08,15.82-2,8.06-1.42,15.2,9,14.11,4.58-.48,9.09.44,13.57,1.66,8,2.17,11.29.47,14.47-6.93a57.59,57.59,0,0,1,2.86-6.68,7.13,7.13,0,0,1,7.13-3.77C1131.24,925.79,1136.76,926.48,1140.72,926.93ZM1021.66,181.14c-12.46-2.15-24.15,2.86-35.86,6.7-11.07,3.63-21.78,8.41-32.43,13.18-7.79,3.49-14.18,9-17.86,16.91-2.72,5.82-.22,9.08,6.17,9.39,2.93.14,5.34-1.59,7.88-1.86,9.14-1,16.12-5.84,23.12-11.11,2.76-2.07,5.41-4.23,9.16-5.33a304.29,304.29,0,0,1,31.73-7.46,98,98,0,0,1,33.47-.2c5.93,1,11.92,1.68,17.79,3,9.19,2,18.46,4,27.4,6.85,8.47,2.74,16.25,7.39,25.12,9.3,7.73,1.66,15.43,3,23.37,2.77,1.9-.06,3.24-.61,3.4-2.74a3.15,3.15,0,0,0-2-3.56c-9.55-4.33-19.48-7.78-29.28-11.34-11.27-4.1-21.87-9.64-33.11-13.8-10.21-3.78-20.92-5.29-31.23-8.55A65.11,65.11,0,0,0,1021.66,181.14ZM698.29,729c3.38-5.86,7.59-2.6,11.31-1.58,6.67,1.83,7.6,1.3,7.63-5.25a13.19,13.19,0,0,1,.81-2.75c1.19-4.81-1.87-15.74-4.93-17.66-3.65-2.3-17.18,0-19.42,4.05-4.25,7.61-9.06,15.19-7.78,24.65.48,3.55,1.44,5.38,5.12,2.68a20.47,20.47,0,0,1,3.86-1.64,23.24,23.24,0,0,1-1.59,3.32c-6.33,8.86-5.94,15.33,1.22,23.38,3.8,4.28,5.3,9.72,6.25,15.14,1.26,7.2,2.84,14.4,4.67,21.4,2.68,10.26,9.5,18.73,15.26,27.54,3.9,6,7.82,11.89,12.75,17.12,1.47,1.56,2.5,3.85,4.74,2.84,2.47-1.12,2.11-3.38,1.37-6-2.08-7.21-4.25-14.4-6.17-21.63-2.45-9.24-4.29-18.67-6.58-28-2.45-9.94-6.46-19.63-5.64-30.28.46-6,0-12,.11-18,.05-2.41-.49-4.71-2.7-5.36C712,731.16,705.77,727.57,698.29,729Zm84.07,149.07c1.27-1.71.91-3.08.82-4.31a315.94,315.94,0,0,0-4.93-34.89c-3-15.8-6.18-31.57-8.68-47.45-1.77-11.3-4.78-22.36-5.56-33.89-.5-7.28-.41-14.54-.8-21.8-.18-3.33-.94-6.2-5.36-6.08-1.53,0-3.07-1-4.65-1.37-4.62-1-9.37-2.7-14-1s-7.33,7.68-6.12,14.62c2.25,12.91,4,26,8.45,38.38,2,5.48,4.79,10.7,6.22,16.3a231.42,231.42,0,0,0,9.76,28.55q7.24,18.21,15.54,36C775.7,866.83,777.82,873,782.36,878.09ZM930.14,502.81c-4.28,0-7.28-.1-10.27,0-7,.29-10.62,3.49-11,10.23-.81,14.41-2.35,28.75-4.25,43-.55,4.18,2,5.5,4.53,4.81,9-2.5,17.59.86,26.26,1.76,7.93.82,15.64-1.35,19.38-8.88,6.45-13,7.43-26.35.43-39.57-2.07-3.92-5.05-7.91-9.1-9.09C940.62,503.55,934.89,501.34,930.14,502.81ZM1070.8,653.63c0,3.5-.1,7,0,10.49.33,9.76,4.4,18,11.27,24.64,5.44,5.3,12,2.62,14.31-4.47,1.91-5.86-1.86-10.37-2-15.66-.11-5.48-2.41-10.86-1.82-16.39.5-4.71,1.63-9.32,1.59-14.14-.13-16.65-.06-33.3,0-50,0-1.44-.77-3,1.29-4.3,2.26-1.4,4.67-3.39,2.67-6.8-1.89-3.23-4.72-3.71-8-2.9-5.56,1.35-11.19.93-16.74.21-2.35-.31-4.41-1.19-6.38.85a6.37,6.37,0,0,0-1,7c3.17,7.48,3.87,15.17,3.77,23.17C1069.64,621.48,1069.45,637.58,1070.8,653.63Zm-57-46.66c0,10.18-.45,18.37.13,26.49s1.31,16.24,3.83,24.09c1,3.29,2.6,4.93,6.33,4.65a126.26,126.26,0,0,1,13.48,0c4,.13,5.63-1.64,5.66-5.64.07-8.76-.24-17.5.85-26.27,1.36-10.85,3.07-21.63,4.68-32.44.75-5,1.62-10,2.29-15,.26-1.92-.14-3.59-2.67-3.92-9.89-1.28-19.75-2.71-29.64-4-2.88-.37-6.19.48-5.66,3.81C1014.69,588.81,1013.07,598.92,1013.79,607Zm-2.55-70.55c.78-4-.85-9-1.35-14.07-.61-6.25-3.37-11.38-10.7-12.56a79.29,79.29,0,0,0-28,.14c-1.44.28-3.24.56-3.43,2.86-.56,6.53-2,13.07-1.78,19.56.36,10.35-3,20.11-3.67,30.27-.26,4,.71,6.2,4.79,6.54a86.27,86.27,0,0,0,24.8-1.07c7.81-1.6,14-5,16.7-13.57C1010.41,548.89,1011,543.36,1011.24,536.42Zm26.44,32.68c5.6.25,11.92,1.09,16-5.1,1.26-1.9,2.51-3.81,3.71-5.75,4.53-7.36,5.21-15.76,5.51-24,.19-5.22-2-10.49-2.71-15.79-1-7.65-4.61-10-12.12-10-8.64,0-16.69,3.32-25.24,3.36-2.48,0-3.87,1.63-4,4.13-.53,8-1.61,16-2.2,24-.54,7.29-.93,14.68-2.65,21.88-1,4.15,1.35,7.09,5.69,7.19C1025.49,569.2,1031.33,569.1,1037.68,569.1ZM956.07,227.45a7.27,7.27,0,0,0,5.09,3.7c6.52,1.75,13,3.53,19.69,4.8a95.81,95.81,0,0,0,29.13.93c8.57-1,16.8-2.55,25.65-1.89,11.68.87,22.43,3.54,32.22,9.77,8.09,5.15,16.3,10.14,24.07,15.82,6.67,4.87,13.07,10.33,21.61,12,1.23.24,2.27.75,3-.48s1-2.72-.21-4a92.27,92.27,0,0,1-10.39-13.23c-6.17-9.32-17-12.15-25.69-17.91-12.5-8.32-27.22-12.66-40.65-19.37-10.56-5.26-21.19-6.41-32.35-3.34-13.59,3.74-27.29,7-41.07,9.87C962.81,224.78,959.17,225.38,956.07,227.45Zm114.76,312.22c0,6.93.14,12.77-.06,18.59-.12,3.58,1.22,5.45,4.76,6.26a169.44,169.44,0,0,1,18.8,5c4.27,1.53,7.65,1.25,11.18-1.41,4.78-3.59,9.73-6.44,12.35-12.72,2.33-5.57.7-10.53.05-15.43-1.08-8.07-1.08-16.63-8.85-22.74-10.71-8.43-22-10.41-34.6-6-2.7.95-5.39,3.21-4.55,6.74C1071.71,525.55,1070.25,533.19,1070.83,539.67Zm-335.75,371c0-6.08-.39-11,.09-15.73.62-6-3.43-10-7.06-12.59-3.12-2.22-5.57-4.63-6.88-7.69-1.5-3.52-4-5.93-6.42-8.52a48.22,48.22,0,0,1-5.73-6.74c-1.49-2.25-3.54-4.2-6.2-.27A17.15,17.15,0,0,0,700.62,874c1.8,6.54,3.06,13.11,2.36,19.88-1.2,11.7-2.92,23.38-1.46,35.16.48,3.84-.4,9,4.22,10.6,5.3,1.85,10.78,3.66,16.67,3.28,5.51-.37,9-3.4,10.78-8.59C736,926.11,734.67,917.7,735.08,910.62ZM965.85,627.73a40.34,40.34,0,0,1,0,5.5c-.8,5.76,2,9.44,6.74,12,5,2.64,9.92,5.32,15,7.8a4.63,4.63,0,0,0,6.56-4.38c.06-11.85-.05-23.7.14-35.54.1-6.77-.51-13.53.76-20.34.72-3.89.45-8.73-5.05-9.51-7.87-1.13-14.7-5.16-22.19-7.3-1.64-.46-3.29-1.1-4.42.29s-2.12,3.38-1.21,5.49c.65,1.49,1.86,2.75,1.78,4.54A234.57,234.57,0,0,0,965.85,627.73ZM817.07,838a34,34,0,0,0,0-3.5c-.31-2.95-.69-6.32-3.76-7.42-2.87-1-4.12,2.26-5.76,3.92a6.4,6.4,0,0,1-9.65-.56c-1.1-1.4-2.08-3.17-4-3.51-5.24-.92-11.91,5.45-10.79,10.91,2.08,10.16,2.59,20.59,5.61,30.61.91,3,2.31,6.45,1.29,9.65-2.13,6.66,1.62,10.22,6.14,13.9,5.06,4.12,10.63,7.79,14.12,13.57.73,1.21,1.31,3,3,2.77s1.26-2.33,1.65-3.45c2.19-6.39.44-12.92.32-19.42C814.93,869.64,814.42,853.76,817.07,838Zm320.86-331.9a26.67,26.67,0,0,1,5,.05c4.69.89,5.48-1.32,5.32-5.45-.24-6.24-2-12.23-2.27-18.51-.29-7.5-1.3-15-2.12-22.5-1.19-10.95-.77-21.87-.45-32.76.33-11.15,3-22.28-1.21-33.29-.79-2.06-1.7-3.47-4-3.77-2.63-.34-2.81,1.78-3.3,3.42a191.4,191.4,0,0,0-5.48,27.23c-2.19,15.18-2.38,30.42-3.54,45.61-.71,9.26-.11,18.62-.1,27.93C1125.82,506.19,1125.82,506.19,1137.93,506.12ZM525.69,825.91h-6.1c-6.5,0-10,3.2-10.45,9.64-.1,1.31-.49,2.61-.6,3.83-.45,5.33-1.83,11,1.61,15.79,5.17,7.26,11.31,13.56,19.43,17.63a10.75,10.75,0,0,0,9.87.1c4.38-2,8.24-5.19,13.56-5.14,1.85,0,3.77-2.06,4.07-4.4.47-3.73.62-7.51,1.1-11.24.51-4-1.44-6.81-3.88-9.6-3.28-3.77-7.89-6-11.28-9.43C537.82,827.76,532.43,824,525.69,825.91Zm450.15-1a56.52,56.52,0,0,1-7.48-.05c-5-.68-7.63,1.94-9.71,5.86-3.39,6.38-1.89,12.74.49,18.83,1.79,4.58,4.85,8.65,6.77,13.2,4.72,11.21,13.08,19.91,20,29.56.66.91,1.47,2.67,3,2s2.2-2.23,2.08-4.13c-.7-11.11,1.08-22.14,1-33.23a145.84,145.84,0,0,1,1-20.78c.9-6.37-3.44-11.22-9.68-11.26C980.83,824.86,978.34,824.88,975.84,824.86ZM505,924.67a54.46,54.46,0,0,0,0,6.67c1,6.88,4.39,11.36,11.85,9.23,5.32-1.51,10.84-1.49,16.1-3.48a44.57,44.57,0,0,0,24.79-22.53c2.1-4.17.24-10.83-3.18-12.38-4.69-2.13-9-5.2-13.77-6.84-7-2.37-11.21-2.09-15.72,5.56a21,21,0,0,1-10.51,8.84C506.86,912.83,503.75,917.81,505,924.67ZM776.89,756l-.34.06c1.45,8,1.93,16.31,4.55,23.89a267.86,267.86,0,0,0,17,39.72c1.27,2.35,2.09,6.45,5.19,5.6,2.29-.63,1.9-4.65,1.89-7.38,0-19.3-.18-38.61.08-57.91.09-6.47,1.74-12.48-6-16.67-6.91-3.75-12.92-4.45-19.54-.5-4.67,2.77-4,6.92-2.88,11.2A8.27,8.27,0,0,1,776.89,756ZM903.81,591.24a97.46,97.46,0,0,1-.07,10,6.22,6.22,0,0,0,3.51,6.55c6.75,3.46,13.38,7.32,20.77,9.32,6.1,1.65,10.72-1.32,12.86-7.07,1.6-4.3,1.65-8.86,3-13.25,1.55-5.06,2.27-11-2.54-15.56-2.66-2.54-5.87-4.25-8.75-6.44-3.38-2.57-8.09-1.43-11.33-3.94-3-2.32-6.6-2.65-9.91-3.74-5.18-1.7-7.42.31-7.52,6C903.72,579.15,903.8,585.2,903.81,591.24Zm339.34,351.7a54.06,54.06,0,0,1,6.46,0c3.89.55,5-1.6,6.57-4.81,4.29-8.63.08-16.39-6.22-21.65-2.37-2-4.15-3.9-4-7.17.13-3.07-1.68-4.43-4.46-5.48-6.39-2.39-13.19-1.58-19.69-3-6-1.32-8.29,3.48-10.68,7.23-.86,1.35-3,2.86-2.15,5.19,2.1,6.1,4,12.66,8.36,17.24C1224.52,938.15,1232.75,945,1243.15,942.94ZM1115.28,620.85c.73,5-.21,10,1.81,14.76.92,2.16,2.32,4.89,4.38,4.95,1.83.06,3.54-2.29,4.67-4.46,5.7-11,10.32-22.45,14.88-33.91,3-7.52,6.81-14.74,8.51-22.77,1-4.94-1.33-7.33-6.36-6.86s-10.13,2.2-15.22,1.19c-5.7-1.14-7.42,2.54-8,6.59C1118.17,593.81,1116.82,607.34,1115.28,620.85ZM1380,844.58c0-4.09.09-6.92,0-9.75-.24-6.49-2.76-8.75-9.2-9-5.24-.22-10.45.5-15.75-.74s-9.89,3.24-10.15,9c-.2,4.47.61,8.84.91,13.25.37,5.48,2.38,9.72,7,12.63,6.59,4.15,12.19,9.67,18.9,13.69,1.42.85,2.47,2.87,4.21,1.72s3.14-2.91,2.51-5.66a15.9,15.9,0,0,1-.29-7.37A60.07,60.07,0,0,0,1380,844.58ZM1039.8,683.26c7.12-.24,12,.11,17-1,2.49-.57,3.25-1.62,3.58-3.82.59-3.94-1-6.33-4.71-7.65-5.84-2.12-12.13-1.61-18-1.7-15.18-.21-29.46-4.82-44.19-7-2.93-.44-2.88-3.49-5.6-4.45-16.2-5.77-30-15-40.59-28.94-2.49-3.28-4.75-7.21-8.89-9-3.12-1.37-6.47-2-9.18.52s.41,4.52.84,6.82c.82,4.48,5.17,3.86,7.53,6.07a130.67,130.67,0,0,0,15.24,12.34c12,8.17,24.11,16.09,37.51,21.82,6.42,2.75,12.77,5.7,19.31,8.15C1020.06,679.31,1030.08,685.22,1039.8,683.26ZM980.53,941c5.42,0,10.59-1.31,11.42-2.82,2.65-4.83.84-12.11-3.65-15.63-3.1-2.43-5.95-5.17-8.9-7.79-6.65-5.89-11-13.73-17-20.17-1.42-1.54-2.21-4.37-4.65-3.35-2,.84-1.82,3.55-1.81,5.72,0,11.91,0,23.81-.89,35.7-.49,6.67,3.27,9.82,10.31,10.38C970.8,943.42,975.54,940.12,980.53,941Zm361.34-14c0,1.83-.34,3.74.05,5.48,2,8.75,1.43,11.56,10.94,10.42,5.77-.7,11.53-.44,17.24-1,3.32-.33,6.72-1.07,8-5.61,2.43-8.65.77-12-8-18-7.33-5-15-9.83-20.88-16.67a9.34,9.34,0,0,0-3.7-2.33c-.69,1.72-2.91,2.63-2.59,4.89C1344,911.79,1341.71,919.32,1341.87,926.94Zm-78-85.88c0,1.83.1,3.67,0,5.5-.32,4.46.63,7.89,5.45,9.74,2.13.81,3.83,3,4.88,5.37,1.6,3.69,4.86,5.09,8.62,5.25,4,.16,8-.14,12,.06,3.71.19,5.26-2.23,6.58-4.92,1.47-3,2.16-5.85-.54-8.9-4.38-4.93-8.22-10.33-12.52-15.33-2.68-3.12-4.95-6.5-7.38-9.76-3.7-5-9-3.13-13.69-.85-3.28,1.59-3.39,4.73-3.37,7.85C1263.9,837.06,1263.89,839.06,1263.9,841.06Zm-398.81,3.45c0-2.66.11-5.32,0-8-.31-6.44-4.75-11.32-9.57-10.65-5,.7-9.91,3-15.23,1.08-2-.72-3.35,1.13-4.18,2.76-4.58,9-5.14,18.14-1.12,27.5,1.09,2.54,2.52,5.26,5.52,4.55,6.09-1.43,12.16-.49,18.23-.74,3.07-.12,4.58-1.13,5.48-4.32C865.36,852.62,864.82,848.58,865.09,844.51ZM721.86,476.33c-1.39-2.38-.55-6.15-3.06-9.35-6.51-8.31-14.32-14.47-24.68-17-1.42-.36-3,0-4.44-.32-6.88-1.56-7.47-1.18-9.87,5.69-4.41,12.62-9,25.17-13.37,37.8-2.79,8.07-6.8,15.56-10.3,23.3-5.39,12-10.75,24-16.95,35.48-6.88,12.75-12.15,26.26-19.46,38.76a6.89,6.89,0,0,0-.63,2.85c-.33,2.42,1.29,3.86,2.93,4.8s2.42-1.17,3.3-2.1c9.39-10,17.66-20.94,26.52-31.39,7.84-9.25,15.87-18.34,23.7-27.6,6.61-7.82,13.21-15.66,19.51-23.73s13.66-15.16,20-23.11C718.19,486.51,721.85,482.69,721.86,476.33ZM574.84,553c-6.31,1.49-7.82,3.73-5.77,6.62,4.7,6.65,9,13.66,14.24,19.83,3.92,4.59,6.64,11,13.7,12.13,3.06.52,6.13,1,9.2,1.5,6.34,1.09,7.5.12,10.06-5.92,2.76-6.49,6.07-12.75,9.24-19.05,3.86-7.67,8-15.19,11.71-22.94,6.33-13.3,12.09-26.87,18.66-40.05a229.11,229.11,0,0,0,14.19-36.21c.38-1.26,2.22-3.19-.12-4.35-1.93-1-3.23.71-4.68,1.72-5.4,3.77-9.34,9.08-14.28,13.38-10.19,8.87-19.93,18.28-30.2,27.08-6.79,5.82-12.69,12.68-19.62,18.3-7.62,6.18-13.8,13.79-21.17,20.21-1.93,1.68-5.65,2.87-5.19,8.29L665.45,470c1.23,1.76.39,2.76,0,3.82-5.66,16.27-12.8,31.92-20.2,47.45-9.69,20.33-19.32,40.69-29.41,60.83-1.5,3-2.37,8.5-6.27,8.26-7.22-.47-15.16-.35-20.19-7.54-4.82-6.9-9.74-13.73-14.92-20.36C572.18,559.49,570.7,556.94,574.84,553Zm810,290.83c0,3.92-.21,7.27,0,10.58.3,4,1.84,6.95,6.68,6.67,3.15-.19,6.46-.64,9.45.09,4.88,1.17,7.09-1.35,9.24-4.9,4.85-8,4.66-16.47,2.6-25.14-.4-1.69-1.65-3.22-3.41-3.07-6.49.54-12.81-1.55-19.25-1.06-3.55.27-5.94,2.69-5.65,6C1384.9,836.81,1384.5,840.6,1384.88,843.78ZM658.26,631.06c3.37.59,3.94-2,4.79-4.09,2.8-6.92,5.57-13.85,8.17-20.86q10.85-29.26,23.2-58c2.9-6.76,4.35-14,7.5-20.51,3.06-6.34,4.89-13.06,7.63-19.46.49-1.15.41-1.89-.45-2.59a2.28,2.28,0,0,0-3.17.06,31.28,31.28,0,0,0-2.86,2.78c-4.77,5.33-9.6,10.62-14.21,16.08-5.8,6.88-11.41,13.91-17.11,20.87-6.64,8.12-12.79,16.7-20,24.23-9.1,9.45-16.63,20.17-25.5,29.78a5.06,5.06,0,0,0,0,7.19c4.58,4.85,7.25,11.13,12.62,15.45C644.66,626.76,651.39,629,658.26,631.06ZM908,843.79v5c0,1.66-.05,3.33,0,5,.15,5.07,2.23,7.18,7.14,7.21,3.49,0,7,0,10.49,0a9.45,9.45,0,0,0,9.16-11.64c-1.34-6.29-5.25-11.37-8-17-2.39-5-9.65-7.39-14.86-5.26-4.51,1.85-4.06,6.26-4,10.24C908,839.46,908,841.63,908,843.79Zm6.64-141c-1.65,3.22-1.59,6.13-1.86,9-.37,4,.55,8,1.34,11.72,1.24,5.87.31,11.75,1.45,17.62,1.19,6.13,3.65,11.75,5.26,17.67.81,3,1.48,6.06,5.14,6.22,4,.18,4.45-3.81,6.15-6.21.48-.67,0-2,.12-2.94.51-6-.94-11.85-1-17.77,0-5-.51-9.76-3.1-14.12C923.94,716.93,920.88,709.14,914.6,702.75ZM805.12,735.49c-.16-.87.28-2.3-.59-3.76-3.32-5.52-8.07-9.85-12.14-14.74a3.72,3.72,0,0,0-3.61-1.19c-5.36,1.52-10.48,3.52-14.72,7.33-1.65,1.48-1.39,3.37-1.15,5.08.45,3.21,1.46,6.33,1.89,9.54s1.6,3.88,4.66,2.79c6.83-2.42,13.6-3.71,20.68,0C804,742.56,805.52,739.84,805.12,735.49Zm-41.91-16c.7-4.34-1.64-7.23-6-9.86-5.42-3.26-10-4.49-16.43-2.07-8.92,3.39-12.14,6.5-11.75,15.34.24,5.67,1.66,6.54,6.9,4.38,6.44-2.66,12.85-3.8,19.78-1.24C762.3,728.43,763.21,727.49,763.21,719.44Zm203.6-60.2c0,1.89-.59,4,.12,5.44,1.64,3.42-1,8.29,2.74,10.54,6.74,4.07,13.3,8.56,20.84,11.25,1.58.57,2.4.51,3.34-.72,2.95-3.85,1.38-13.85-2.84-15.91C983.21,666,975.76,661.36,966.81,659.24Zm76.35,38c0-2.16-.12-4.33,0-6.49.17-2.53-.32-5.21-2.87-5.62-3.63-.58-7.59-1.36-11,1.15a2.39,2.39,0,0,0-.44,1.83,35.8,35.8,0,0,0,5.62,16.92c1.15,1.72,3.57,3.94,6.26,3,2.89-1,2.35-3.9,2.38-6.31C1043.17,700.19,1043.16,698.7,1043.16,697.2Zm-48,18.63c-.85-3.47-.92-7.73-4.93-10-2.67-1.51-5.46-2.79-8.23-4.12-1.61-.77-3.06-3.38-5.07-1.22-1.84,2-1.14,4.41-.34,6.88,2,6.22,7,9.46,12,12.67C992.71,722.68,994.91,721.29,995.12,715.83ZM1340.92,839c.78-3-.68-6.29-1.91-9.69-1-2.91-3-3.62-5.75-3.42-3.15.23-6.25.63-8.14,3.53-.68,1-.09,2.09.77,3.09,3.07,3.6,5.88,7.44,9.08,10.91,1.35,1.47,3.79,3.48,5.1,3.1,1.94-.57.5-3.45.84-5.3A16.49,16.49,0,0,0,1340.92,839Z"/><path class="cls-2" d="M444.1,515c1.58-7.83,7-13.24,11.53-19.39,4.35-6,10.35-9.54,15.81-14.05,5.78-4.76,11.95-8.69,18.1-12.81,3.59-2.4,6.28-1.74,8.61,1.57a177.86,177.86,0,0,1,12.12,19.05c2.45,4.61,6.1,8.59,9.11,12.92,7.29,10.5,12.73,22.21,20.79,32.22,5.83,7.25,11.87,14.18,20.9,17.84,4.09,1.66,4.92,6.58,6.68,10,5.09,9.87,12.3,18.11,18.83,26.84,3,4,8.22,5.22,12.86,6.46a27.8,27.8,0,0,0,10.24,1.24c6.28-.7,10.2,3,13,7.91,5.19,9.12,12.72,16,20.2,23.17,6,5.81,12.54,5.94,19.76,5.85,7.39-.08,14-2.56,20.36-6,7.06-3.8,11.83-9.71,16-16.33a199.38,199.38,0,0,0,24.77-58.13c.92-3.6,2.37-7.07,2.24-11-.1-2.93,2.3-4.62,5.35-4.48,6.17.29,12.08,1.78,18,3.47,5.14,1.47,10.61,1.79,15.94,2.49,2.76.37,5.41,1.14,8.28,1.15,5.23,0,6.46,2.24,3.62,6.67-7,11-12.58,22.82-20.32,33.44-8,11-15.41,22.56-22.31,34.32S721,642.79,714.93,655c-3.52,7.07-7.84,13.92-11,21.17s-8,14-9.81,22.05a27.82,27.82,0,0,1-4.56,9.52c-5.09,7.08-5.7,15-6.22,23-.54,8.32,2.53,15.92,5.74,23.37,1.59,3.71.58,5.93-3.59,6a56.6,56.6,0,0,1-16-2,314.89,314.89,0,0,1-44.52-15.72c-10.14-4.47-20.42-8.7-30.2-14.09-7.67-4.23-15.46-8.33-22.31-13.69-4.22-3.3-7.13-8.3-10.53-12.62-8-10.15-15.66-20.57-21.44-32.1-3.69-7.36-8.07-14.44-12.1-21.48-5.12-9-10.33-18.15-16.67-26.59a209.37,209.37,0,0,1-14.16-21.34c-3.26-5.67-8-10.85-11.66-16.46-6.46-9.88-15.22-18.19-19.93-29.25-.41-1-1.43-1.23-2.19-1.81-2.43-1.87-5.43-3.51-4.74-7.45a2.49,2.49,0,0,0-1.45-2.45c-7.94-4.83-10.11-13.31-13.44-21.07Z"/><path class="cls-2" d="M893,213.09c-7.64,7.13-16.6,3.67-25.21,3.19a3.59,3.59,0,0,1-3.4-2.45c-.35-1.31.63-2.89,1.92-3.73,5.37-3.46,9.2-8.56,13.74-12.9a72.22,72.22,0,0,0,16.64-24c3.79-8.93,11.77-13.38,19-18.61s15.7-7.5,23.83-10.77c9.07-3.65,17.87-7.91,27.34-10.58,2.05-.58,4.37.7,6.1-1.15h9c2.47,1.69,7.77.23,7.62,3.68-.13,2.83-5.14,2.69-8.12,3.48-10,2.67-20.72,4-30,8.34s-18.27,9.61-25.07,17.85c-6.62,8-13.25,16-19.4,24.41-4.39,6-8.63,12.08-11.52,19,6.29-7.15,15-11.5,20.82-19.32,3.37-4.48,8.95-7.77,14.16-10.31,19.59-9.56,39.35-18.84,59.84-26.31,12.94-4.73,26.59-5.24,40.27-3.24,7.76,1.14,15.5,2.52,23.31,3.15,9.15.75,18,3.25,27.08,4.26,14.87,1.66,29.08,6.53,43.62,9.83,2.72.62,5,2.32,8,2.33a2.49,2.49,0,0,1,2.56,2.49c0,1.64-.86,2.17-2,3-3.61,2.59-7.77,3.24-12,3.5-12.61.76-25.18-.74-37.77-1.15-10.07-.32-19.69-4-29.48-6.26-11.31-2.64-22.61-2.73-34.24-1.91-16.92,1.2-33,5.81-49.47,9.07-12.3,2.44-21.55,9.36-31.1,16.54-9.78,7.36-17.48,17.07-27.72,23.84a19.29,19.29,0,0,1-16.27,2.68c-4.59-1.27-3.53-4.75-2.14-8,1-.58.93-1.42.65-2.55C893.14,211.44,892.66,212.15,893,213.09Z"/><path class="cls-3" d="M444.1,876.92c2.15-3.76.63-8.11,2.36-12.15,5.25-12.31,13.2-22.1,24.71-28.88,6.34-3.73,12.62-8,20.09-8.86s8.33.33,9.85,7.39c3.65,17-2,27.16-14.56,37.16A15.39,15.39,0,0,0,480.3,883c-.44,5-.77,10.24.85,15.22,1.06,3.25,2.49,6,5.67,8.12,5.8,3.91,11.67,8.25,13.66,15.48,1.59,5.8,1.82,11.8-1.87,17.1-2.91,4.19-8.79,5.6-13,2.79-2.32-1.54-4.71-.3-7.07-1.53-12.26-6.38-21.9-14.78-27.78-27.87-3.14-7-4.23-14.33-6.65-21.38Z"/><path class="cls-2" d="M779,217.53c5.31.11,10.63.13,15.94.37A112.66,112.66,0,0,1,806.65,219c3.68.56,4.63,4.63,2,9.19-8.48,14.66-14.13,30.6-20.81,46.06-3.9,9-7.85,18.19-9.26,28.11-1.89,13.35-6.18,26.16-8.72,39.39a187.16,187.16,0,0,0-3.77,33.16c-.12,8,.76,15,7.66,20.19,3.63,2.75,4.5,7,4.48,11.45,0,8.49-.07,17,0,25.48.06,5.19,1.67,9.54,6.59,12.33,3.25,1.84,6.15,4.28,9.37,6.25,7.5,4.58,9.53,12.42,10.95,20.32,1.25,7-1.16,13.5-2.6,20.31-2.54,12.08-7.35,23.64-8.41,36.07a24.61,24.61,0,0,1-2.5,7.83c-1.47,3.24-3,5-7.69,3.38-12.31-4.13-25.12-6.49-38.23-5.27-7,.66-14,2.11-21.06,1.95-5.19-.12-5.77-1.5-5.12-6.78,1.46-12,4.19-23.78,5.42-35.82.9-8.79-.37-17-2.86-25.38-2.18-7.34-7.22-11-13.47-13.6-8.37-3.51-16.59-7.42-26.1-7.61-3.39-.07-5.82-3.7-7.14-6.89-4.51-10.92-14.19-15.47-23.94-20a11.12,11.12,0,0,0-9.42,0l0,0c-5.16.92-9.5,4-14.32,5.82-4,1.5-6.69.65-9.61-.72-8.76-4.1-17.28-8.79-26-12.84-9.34-4.32-17.63-9.91-25.73-16A114.94,114.94,0,0,1,548,378.09c-6.44-7.49-4.81-16.12-.59-23.87,6.43-11.81,13.67-23.27,24-32.12,7.25-6.23,13.49-13.44,20.35-20,10.46-10,20.76-20.21,32-29.32C632,266.1,639.52,258.4,648.71,253c10.51-6.16,21.8-10.76,33.19-15,8.63-3.22,17.29-6.46,26.12-9a188.34,188.34,0,0,1,21.18-5.28c5.15-.87,10.23-2.83,15.45-3.72,6.44-1.1,13-1.65,19.47-2.43A55,55,0,0,0,779,217.53ZM675,395.71c8.16.79,15.74-1,23.19-3.8,8.37-3.19,15.26-7.84,19.47-16.17,7.25-14.36,8.49-29.5,6.16-45-2-13.19-10.25-22.21-21.42-28.62-4.45-2.55-9.46-4.11-14.18-6.2-5.55-2.45-11.72-4.89-17.33-4.2-16.49,2-32.2,6.56-43.32,20.58a114.26,114.26,0,0,0-11,16.9c-3.7,6.85-2.4,14.85-2.1,22.38A33.2,33.2,0,0,0,617,363.87c2.19,4.73,3.63,9.65,5.36,14.5,1.14,3.21,2.19,6.06,6.09,7.82a79.92,79.92,0,0,0,21.38,6.51C658.2,393.91,666.4,396.86,675,395.71Z"/><path class="cls-2" d="M1457.5,945.08c-14.76-.69-28.55-2.72-41.47-7.39-11.88-4.28-22.83-11-33.83-17.42-9-5.3-17-11.56-25.06-18a427.67,427.67,0,0,1-35-31.87,173.77,173.77,0,0,1-15.69-18c-6-7.93-13-15.09-18.6-23.22-7.81-11.29-15-23-22-34.86-4.26-7.23-8.23-14.66-12.3-22-6.61-11.92-12.83-24-18.76-36.26-8.57-17.69-17.13-35.46-23.41-54.1-4.86-14.43-8.43-29.28-11.85-44.16-2.39-10.39-6.6-20.35-10.92-30.19-5.3-12.07-10.24-24.3-15.31-36.47-.25-.6-.64-1.38-.44-1.87,2.06-5.09,3-10.75,7-14.93s7.79-4,10.93.85c4.42,6.78,7.07,14.45,10.15,21.84,4.54,10.9,8.33,22.13,12.19,33.31,3.95,11.45,9.79,22.11,13.71,33.6,3.1,9.06,7.66,17.61,11.24,26.51,4.93,12.28,8.87,25,14.45,37,8.57,18.39,15.55,37.46,25.36,55.34,9.21,16.8,18.37,33.59,28.51,49.85,5.92,9.5,11.73,19.13,18.94,27.68,5.21,6.17,11.34,11.57,17.13,17.23,10.47,10.22,23.14,17.55,35,25.89A428.89,428.89,0,0,0,1414,906c9.45,5.33,19.51,9.62,28.33,16.22,4.29,3.21,9.69,4.88,15.4,5.8A22.78,22.78,0,0,1,1474,939c2.27,3.77.76,4.4-2.51,4.7C1466.55,944.15,1461.59,944.67,1457.5,945.08Z"/><path class="cls-2" d="M871.81,489.61c6.68,4,14,6.84,21.88,7,4,.08,5.76,2,6.15,4.79,1.34,9.52,2.68,18.92,1.78,28.8-.93,10.23-5.58,17.8-12,24.74-4.79,5.22-7.25,5.12-12.57,3a116.45,116.45,0,0,0-22.38-6.75c-3.49-.64-5.22-3.71-4-6.75,4.81-11.62,8-23.55,7.11-36.31-.28-4,.11-8-.09-12-.22-4.37,1.37-6.65,6-6.26,1.27.11,2.72.33,3.68-1.32-4.22-3.71-2.69-8.79-2.42-13.34.56-9.31,1.62-18.61,2.85-27.86,1.32-10.05,2-20.16,3.58-30.21,1.17-7.55,1.46-15.33,2.24-23,1.28-12.52,2.66-25,5.14-37.36,2.08-10.34,4.41-20.63,6.82-30.9,3.31-14.06,7.6-27.83,11.51-41.71,3.8-13.5,8.14-26.85,16-38.57,4.06-6.09,6.93-13,12.45-18.18.91-.84,1.44-1.76,2.69-1.37s1.57,1.38,1.94,2.61c1.33,4.45.31,8.71-.81,12.94-2.69,10.2-6,20.21-9,30.33-3.65,12.62-6,25.6-9.28,38.34-2.95,11.49-6.44,22.9-7.72,34.7-.82,7.51-1.92,15.06-2.13,22.58-.23,8.44-.78,16.89-1.37,25.27-1.5,21.28-.47,42.54-.58,63.8A159.8,159.8,0,0,0,902.1,485a22,22,0,0,1,0,6.48c-.41,3.23-4.13,5.71-6.89,4.41C887.84,492.39,880,490.74,871.81,489.61Z"/><path class="cls-2" d="M785.52,596.06c1.41-12.68,4.87-24.86,8.68-37,.69-2.17,1.2-4.39,1.81-6.58,1.31-4.66,4.91-6.14,9.35-3.93,3.33,1.67,6.56,3.78,10.59,3.15-5.82-4.23-13.13-5-19.36-8.41-3.23-1.77-4-3.24-3.13-6.9,2.28-9.9,4.43-19.86,6.64-29.77,1.68-7.52,4-15,5.89-22.49.49-2,1.94-4.74,4.75-3.37,6.16,3,13,2,19.4,3.86,3.56,1,6.87,2.69,10.47,3.63a5.42,5.42,0,0,1,3.56,4.93c1.06,11.82,2.68,23.56,2.12,35.51-.33,6.95-1.54,13.43-5.07,19.46-2.81,4.8-11.67,8.14-16.66,5.81-1.82-.85-3.52-.64-5.35-.76.51,1.45,1.95,1.59,3,2.07,2.77,1.23,3.51,2.92,3.12,6.09-1.54,12.64-5.67,24.74-7.49,37.31-1.27,8.73-3.11,17.37-3.74,26.21C813,640.92,812.79,657,812,673c-.4,7.92-.85,15.85-.73,23.77.19,12.8,2.21,25.41,4.16,38.06,1.24,8,5.3,15.63,3.82,24.07-.23,1.29.14,2.83-.43,3.89-1.06,2-1.34,5.2-4.88,4.33-3-.74-3.35-3.26-4.15-5.82a64.44,64.44,0,0,1-2.41-22.87c.61-10.84-7.28-15.73-12.44-22.52-2.54-3.35-4-6.44-4.13-10.59-.35-15.62-3.18-31.07-3.72-46.65-.43-12.42-1.83-24.82-1.25-37.28.1-2.14-.2-4.3-.31-6.45A90,90,0,0,0,785.52,596.06Z"/><path class="cls-2" d="M1384.12,335.91c5.36-.7,10.7,1.8,16,4.55,1.49.77,3,1.33,3,3.48s-1.3,3.31-3,4.15c-12.8,6.35-26.54,10.64-39,17.68-9.74,5.51-19.63,10.83-28.94,17a245.66,245.66,0,0,0-35.17,27.7c-3.5,3.38-6.45,7.76-9.59,11.71-4.27,5.39-8.95,10.52-13.58,15.61q-19,20.86-37.91,41.74a374.87,374.87,0,0,1-27.18,27c-4.22,3.81-8.29,7.8-12.87,11.17-2.76,2-4.61,1.9-6.22-2-2.53-6.07-2.38-10.85,2.07-16.26,8.48-10.33,15.74-21.67,24.31-31.92,9.22-11,17.58-22.74,27.06-33.58,11.08-12.67,23-24.5,34.23-37,8.47-9.46,17.73-18,26.85-26.61,8.73-8.28,18.12-16.49,29.6-20.63,14.76-5.32,29.41-11.29,45-13.85A40,40,0,0,1,1384.12,335.91Z"/><path class="cls-2" d="M1294.83,245.38c-1.86,8.19-5.65,15.11-10.14,21.71-12.48,18.37-26.15,36-35.94,56.05a142.77,142.77,0,0,0-8.29,22.22c-3.43,11.62-7.24,23.12-9.87,35-2.29,10.29-3.75,20.81-6.65,30.92-5,17.38-9.39,35-16.18,51.8-3.91,9.68-8.26,19.09-14.46,27.6-1.55,2.14-2.84,4.54-4.7,6.45-2.45,2.53-5.22,4.43-9.08,4.1-2.45-.21-4.94-.21-7.17,1.26-1.48,1-3.17,1.25-4.57-.06s0-2.94.46-4c4.33-9.32,9.11-18.43,13.36-27.79,5.49-12.11,10.78-24.32,15.12-36.92,5.17-15,5.78-30.87,8.87-46.28,3-14.84,5-29.8,9.91-44.28,4.39-12.92,7.69-26.17,15.15-37.87s15.91-22.56,24-33.77c7.78-10.82,16.37-20.74,27.45-28.31a24.45,24.45,0,0,1,5-2.93C1291.68,238.54,1294.93,240.93,1294.83,245.38Z"/><path class="cls-2" d="M948.53,474q-.16,10-.32,19.95c-.1,6.87-2.5,8.87-9,7.22-5.82-1.47-12-.57-17.7-3.42a5.59,5.59,0,0,1-3.47-6c.75-10.11,1.45-20.27,3-30.29,1.59-10.38,2.13-20.85,3.42-31.25.89-7.13,2.37-14.23,2.57-21.52s1.79-14.56,2.91-21.82c1.47-9.52,2.26-19.12,3.76-28.65,3.56-22.7,9.68-44.7,15.69-66.81,2.81-10.31,5.92-20.56,8.69-30.9,1.84-6.87,5.15-13.38,8.18-19.87a4.07,4.07,0,0,1,4.4-2c2.85.59,3.9,2.38,4.48,4.57,2.52,9.49,2.86,18.8-.47,28.41-2.59,7.45-5.41,14.78-8.16,22.16a170.6,170.6,0,0,0-9.54,38.15c-2.22,17.3-3.68,34.61-4.87,52-1,14.19-1.29,28.38-2.06,42.56-.61,11.1-.45,22.19-1,33.26C947.24,464.35,948.12,469.16,948.53,474Z"/><path class="cls-2" d="M1046,506.12c-5,0-9.27.57-13.67.18-5.73-.52-9.22-2.47-10.75-8-2.62-9.52-2-19.17-1.08-28.89.76-7.69,1.32-15.39,2.41-23,1.65-11.66,3.19-23.36,4.49-35,1.62-14.47,4.18-28.78,6.7-43,2-11.6,4.24-23.25,6.93-34.77,2.49-10.65,3.34-21.6,5-32.37,1-6.68.93-13.64,3.6-20.11.9-2.19,1.7-3.76,4.2-4.13a5.22,5.22,0,0,1,5.92,3.57c1.37,4.69,5,8,6.78,12.33,1.63,4,2.68,8.17,1.22,12-3.94,10.21-8.43,20.21-13,30.17-1.3,2.84-1.09,5.86-1.34,8.62-.9,9.82-2.57,19.58-2.34,29.53.31,13.32-.14,26.66.12,40,.41,21.52,2.46,43,2.16,64.54-.11,7.41.61,14.77.13,22.3C1053.08,506.65,1050.06,506.66,1046,506.12Z"/><path class="cls-2" d="M1389.39,730.22a106.47,106.47,0,0,1-40.13-10.81,123.62,123.62,0,0,1-20.16-12.23c-11.32-8.43-22-17.54-31.32-28.28-6.91-7.95-14.35-15.48-20.57-24-5.11-7-11.1-13.07-17.16-19.17-5.58-5.62-10.93-11.46-16.3-17.28-6.77-7.32-13.61-14.6-20.15-22.12-10.8-12.42-22.18-24.42-29.78-39.24-2.21-4.31-4.17-8.83-4.07-13.89,0-2.31-.34-5.52,2-6.05a8.25,8.25,0,0,1,7.57,2.38,193,193,0,0,1,16.32,18.28c7.49,9.94,16.11,19,23.45,29.07,11.84,16.18,25.82,30.46,38.85,45.58,6.19,7.18,12.33,14.48,19.73,20.18,8.17,6.3,15.16,13.84,23.41,20.06,7.28,5.48,13.37,12.8,21.12,17.62,9.42,5.87,18,13.78,28.82,16.69,8.29,2.22,16.51,4.79,24.88,6.74,3.64.85,7.29,1.76,10.5,3.78,2.4,1.51,3,2.73.86,5.69C1402.6,729.57,1396.67,731.09,1389.39,730.22Z"/><path class="cls-2" d="M870.18,237.09c.58,6.71-1.88,12.89-3.56,19.15-3.46,13-7.87,25.67-10.59,38.89-1.49,7.28-3.9,14.44-5.22,21.79-2.28,12.66-4.61,25.32-6.81,38-1.74,10-1,20.08-2,30-1.37,13.78-1.14,27.56-.58,41.27.64,15.59.65,31.16.72,46.74,0,3.28,2.87,6.81-.48,9.8-3.15,2.83-6.09-.61-9.17-.66-7.79-.13-14.37-3.63-20.79-7.52-4-2.39-4.84-5.79-4.11-10.28,1.64-10.13,2.39-20.44,4.4-30.49,2.14-10.71,3-21.6,5.42-32.27,2.62-11.44,4.26-23.1,6.45-34.63,3.62-19,7.26-38,11.06-57,1-5,2.4-9.92,5.43-14.28,1.66-2.4.7-5.61,1.67-8.53,4.37-13.09,10.26-25.54,15.27-38.34,2.3-5.89,5.39-11.41,7.51-17.34.61-1.7,1.59-3.4,3.2-3.24s2.05,2.27,2.14,3.9S870.18,235.43,870.18,237.09Z"/><path class="cls-2" d="M988.43,505.2c-4.71-1.68-10-.72-15.3-1.05-5-.32-5.17-5.29-4.79-7.81,2.73-18.16,2.08-36.58,5.14-54.77,2.63-15.57,5.39-31.12,8-46.68,2.67-15.72,5.8-31.3,8.8-46.93,1.88-9.77,4.77-19.26,7-28.89,3.28-14.4,7.47-28.75,13.51-42.38,1.9-4.29,3.94-8.52,6.07-12.7.77-1.52,1.68-3.66,4-2.63s2.84,3.27,2.25,5.53c-1.17,4.57-1.85,9.33-3.31,13.72-2.55,7.65-4.92,15.43-7,23.13s-4.14,15.37-4.75,23.42c-.8,10.58-2.47,21.1-3.76,31.64-.06.49-.16,1-.19,1.48-1.73,22.22-2.84,44.5-1.8,66.76.86,18.34,1.76,36.67,1.86,55a60,60,0,0,1-2.08,14.53C1000.79,502,995.41,505.28,988.43,505.2Z"/><path class="cls-3" d="M1276.14,942c-10.61,0-15.77-7.23-12.88-16.94a26.49,26.49,0,0,1,5.06-9.84c2.66-3.08,1.35-4.62-1.32-6.18-4-2.35-8-4.89-12.15-7-10.32-5.08-20.72-10.39-28.86-18.38-6.79-6.68-14.82-13.86-14-24.93.87-11.52,5.83-22,15.35-28.17,6.6-4.29,15.65-4.81,23.85-3.36,3.63.64,3.38,5,3.66,7.86.79,7.81-.32,15.17-5.84,21.53-3.89,4.47-2.06,7.91,5,9.15,11.05,1.94,20.6,7.09,30.11,12.65,4.89,2.86,10.19,4.8,14.22,9.22,3.1,3.39,5.55,6.94,6.09,11.37,1,8.66,2,17.44-2.75,25.49-2.24,3.76-5.65,6.57-9.06,9.12C1287.5,937.49,1283.33,943.91,1276.14,942Z"/><path class="cls-3" d="M746,834.72c12.45,15.07,22.94,29.44,31.13,45.51,3.09,6.06,9.4,10,13.07,16.1A111.83,111.83,0,0,0,799,908.71c3.07,3.81,6.81,6.65,10.38,9.68,1.92,1.63,3.37,3.61,3.48,5.44.26,4.7,1,9.5-.66,14.22-2,5.78-5.7,7.8-11.6,5.92-5.15-1.64-10.49-1-15.74-1.26a6.8,6.8,0,0,1-5.33-2.82c-10.15-13.39-20.6-26.57-30.16-40.37-4.93-7.13-10.05-14.09-15.15-21.08a125,125,0,0,0-13.86-15.87c-6.18-6-11.73-12.73-17.34-19.32-2.93-3.45-2.55-9.27.86-13.55,2.89-3.63,6.71-6,11.6-4.63,4.56,1.28,5.48,6.2,8.29,9.25,3.62,3.94,6.11,8.9,9.67,12.91a8.23,8.23,0,0,0,8.57,2.5c2.9-1,4-3.65,4-6.69C746,840.75,746,838.47,746,834.72Z"/><path class="cls-3" d="M620.5,943a41.47,41.47,0,0,1-27.24-8.87c-13-10.36-19.85-24.74-21.41-41.75-.8-8.76-1.63-17.49,1.32-25.7,3.73-10.36,7.49-21,17.34-27.74,2.3-1.57,4.12-3.87,6.06-5.94a9.33,9.33,0,0,1,6.45-3.09c4-.3,7-3.91,11.21-3.66a18.6,18.6,0,0,0,2.43-.32c10.07-.81,10.93,1.8,13.39,14.15.84,4.21-.31,8.49-1,12.72a3.28,3.28,0,0,1-2.1,2.6c-6,1.77-10.09,6.45-14.74,10-3.07,2.33-3.45,7.73-4.06,12s-1.85,8.44-1.76,12.47c.14,6.38,2,12.73,7.55,17.06a56.8,56.8,0,0,0,8.29,4.87c6.15,3.31,6.83,9.82,7.73,15.85.27,1.8.81,3.48,1.16,5.23,1.37,6.84-1.18,10.09-8.17,10.16Z"/><path class="cls-3" d="M1141,824.88h7.49c7.63,0,12,3.55,13.62,11.06,1.37,6.18,5.79,11.22,6.75,17.54,1.49,9.88,6.63,18.42,10.39,27.41a126.25,126.25,0,0,1,7,24c.92,4.53,4.47,8.56,7,12.73,2.67,4.45,5.72,8.73,5.74,14.21,0,7.55-3.59,10.9-11.1,11.2a55.92,55.92,0,0,1-20.21-2.94c-3.31-1.1-5.11-2.74-5.82-6.26-1.37-6.69-5.5-12.51-7.43-18.76-2.54-8.21-6.56-15.63-9.61-23.51-3.17-8.18-4.84-16.73-7.38-25-2.13-7-6.38-12.46-10.63-17.81-3.17-4-5.09-14.86-2.72-19.95a6.69,6.69,0,0,1,6.41-3.82c3.49,0,7,0,10.48,0Z"/><path class="cls-3" d="M692,881.7c1.12,16.49-5.37,30.1-13.46,43-2.65,4.23-8.22,5.57-12.66,7.81s-9.25,3.49-13.19,7c-3,2.68-7.6,3.07-11.46,3.17-3.69.09-4.67-3.86-5.33-7.09-.82-4-3.19-8-2-11.94,1.35-4.56,2.63-10.07,7.34-12.27,6-2.8,10.11-7.48,13.21-12.7,5.23-8.78,4.64-18.24,1.14-27.72-2.52-6.87-8.3-10.39-13.91-13.8-3.52-2.15-5.55-4-5.79-8.42-.38-7,1.38-13.69,2.25-20.5.43-3.43,4.05-3.42,6.32-3.25,11.95.92,23,4,31.14,13.85a91.42,91.42,0,0,1,14.33,24.53C692.37,869.52,692.21,875.89,692,881.7Z"/><path class="cls-2" d="M887.82,608.91c6-.48,6.29,4.79,7.16,8,3.71,13.53,9.27,26.33,14.17,39.41,3.93,10.48,9.66,20.09,13.78,30.37,4.92,12.3,13.25,22.6,18.58,34.45,2.74,6.11,7.43,10.68,10.3,16.68,2.06,4.3,6.62,8.19,9.69,12.57,10.32,14.7,23.74,26.72,35,40.54,6.64,8.14,13.35,15.87,21.88,22.11,2.5,1.82,4.06,5.27,6.21,7.87,4,4.9,9.72,7.7,14.37,11.87,6,5.33,11.34,11.19,17.13,16.66,1.79,1.69,3.38,4.34,2.08,6.88-1.62,3.13-4.31,2.81-7.64,2-10.58-2.72-18.37-9.86-26.23-16.5-12.62-10.65-24.89-21.8-36.55-33.5-9.49-9.52-19.48-18.68-27.6-29.47-3.7-4.92-6.12-10.73-8.93-16.18-5.49-10.66-11.13-21.31-16.91-31.76-4.05-7.32-8.72-14.61-12.54-22-6-11.7-12.7-23-18.57-34.83-2.74-5.51-6-10.83-9.22-16.08-4.07-6.67-5.71-13.83-6.65-21.23-1-8-3.68-15.64-3.51-23.77C883.91,609.94,884.94,608.51,887.82,608.91Z"/><path class="cls-3" d="M996.94,840.67c0-1.67-.13-3.35,0-5a7.38,7.38,0,0,1,4.71-6.43c1.85-.6,3.46,2,4.39,4,.81,1.73,2.47,2.58,3.92,3.56,12.39,8.33,23,19.19,36.8,25.6a19.74,19.74,0,0,0,9.58,1.5c2.69-.12,4,.52,3.66,3.5-1.12,9.17-4.13,17.59-9.86,24.92a10.3,10.3,0,0,1-7.78,3.55c-4.62.21-3.55,2.49-2.75,5.2,2.29,7.73,8.76,11.91,14.33,16.76s8.5,11,10.93,17.44c1.11,2.95-2.5,7.38-6.15,7.59-3,.17-5.82.88-9,.31-5.48-1-11.15-.91-16.75-1.15-1.55-.07-3-.06-4-1.46a392.12,392.12,0,0,0-25.15-32.76c-7.53-9-4.24-17.09-2.24-25.76.62-2.65-1.4-6.13,2.22-8.09,2.68-1.46,5.51-.65,8.24-1a13,13,0,0,0,8.48-4.31c4.48-5.57,2.71-9.89-4.43-11.43a14.78,14.78,0,0,0-3-.12C1001.41,856.85,997,852.36,996.94,840.67Z"/><path class="cls-2" d="M868,614c-3.07,2.75-2.86,6.92-3.51,10.3-1.68,8.62-5.09,16.83-5.81,25.64-.07.81-.48,1.59-.51,2.39-.51,15.42-2,30.87-.84,46.25,1.06,14.37.4,28.88,3.68,43.12,1.24,5.36-.42,11.21,1.06,16.76.5,1.88-.67,3.24-2.13,4.14-2.14,1.31-3.14-.86-3.92-1.94a63.88,63.88,0,0,1-11.53-28.87c-2.4-16.39-.46-32.77-1.89-49-.81-9.13-.07-18.21-.86-27.26-1.14-12.91.11-25.94-1.23-38.73-1.17-11.25-.19-22.29.58-33.31.59-8.52,5.91-15.68,13.28-20.1,3.81-2.29,8.19,1,12.18,2.38s7.91,2.87,11.92,4.14c2.32.74,3.71,2,3.7,4.53,0,9.16,0,18.32-.05,27.47,0,2.67-1.59,4.52-4.36,4.28-5.9-.49-8,3.43-9.8,7.88Z"/><path class="cls-2" d="M1070.7,477.23c.54-17.08,2.37-34.06,3.71-51.09.83-10.46,2.06-20.95,2.65-31.47.69-12.2,1.86-24.44,3.42-36.62a203.44,203.44,0,0,1,4.4-21.95,60.48,60.48,0,0,1,6.43-16,4.27,4.27,0,0,1,4.15-2.23c2.16.12,1.49,1.84,2,2.89,5.52,12.63,4.4,25.63,2,38.69-.84,4.7-.8,9.53-1,14.22-1,17.16-3.39,34.28-2.21,51.51.81,11.78,2,23.54,2.93,35.32.41,5.25.67,10.58.75,15.77.12,8.5,2.58,17,.41,25.57-.94,3.75-2.24,6.72-6.31,6.27-5.06-.57-10,.51-15,.16-2.15-.16-3.11-.77-4.31-2.95C1069.71,496.33,1070.93,486.74,1070.7,477.23Z"/><path class="cls-2" d="M1329,541.13c-14-.3-28,1.92-42,2.45-10.48.39-21,1.1-31.53,1.74-10.22.63-20.37,0-30.53-.27-9-.2-18.39-.13-25.48-7.53a7.66,7.66,0,0,0-4.84-2.19c-2.55-.05-4-.76-4.39-3.31-.5-3.1-1-6.22.34-9.21.43-1,1.64-1.07,2.66-.94,9.86,1.27,19.71,2.74,29.6,3.79,6.91.73,13.81,0,20.68-1.14,9.66-1.62,19.33-3.35,29.15-3.66,7.07-.22,13.83-2.28,20.8-3.12,9.39-1.13,18.76-2.41,28.08-4s18.51-.73,27.76-.88c6.9-.11,13.14,2.69,19,6a8.57,8.57,0,0,1,4.17,9.21c-.92,4.82-4.5,7.58-9,8.76C1352.2,539.85,1340.74,541.71,1329,541.13Z"/><path class="cls-3" d="M903.08,843.23c-.07,14.32-3.14,28.5-2.79,42.75.38,15-.18,30,1.63,45,1,8.6-2.51,10.54-10.66,10.73-6.45.15-12.79,1.46-19.26,1.15-2.22-.11-3.06-.75-4.2-3-4.68-9-2.33-18.32-1.48-27.47a64.39,64.39,0,0,0,0-10.11c-.36-6,.38-12.1,1-18.13.45-4.36,2-8.65,1.58-13.06s1.05-8.79,1.2-13.25c.22-6.83-1.82-13.34-2-20-.29-8.64,3.14-11.47,11.5-12.14,5.9-.46,11.47,2.23,17.56.57,2.43-.66,6.43,1.25,6,6C902.82,835.89,903.08,839.57,903.08,843.23Z"/><path class="cls-2" d="M868,614a4.14,4.14,0,0,0,4.23-2c2-2.86,5.12-2.74,7.66-1.92,2.75.89,2.33,4,2.33,6.42,0,12.33-.06,24.66,0,37,.12,16.46,3,32.5,6.36,48.62,3,14.19,8.12,27.65,12,41.52a91.78,91.78,0,0,0,6.91,17.45c4.14,8,7.76,16.39,12,24.39,3.22,6,7.43,11.65,9.66,18,4.14,11.8,12.24,21.33,17.29,32.6,4.76,10.65,11.83,20.31,16.17,31.09,4.94,12.3,14.11,21.34,21.34,31.85,3.87,5.62,8.13,11,12,16.53.74,1.05,2.11,2.66.74,4-1.57,1.55-3.52.07-4.38-.86-7.11-7.73-16-13.46-22.24-22.37-9.3-13.22-18.43-26.53-25.86-40.79-8.9-17.06-17.66-34.23-25.73-51.75-3.3-7.18-6.82-14.45-10.76-21.41a53.53,53.53,0,0,1-2.68-5.74c-4.18-10-11.05-18.48-15.59-28.27-5-10.88-10.58-21.59-13.11-33.4-1.6-7.49-2.27-15.18-3.57-22.74-2.55-14.77-5.73-29.46-7.72-44.31a66.43,66.43,0,0,1,1.82-27.73A19.36,19.36,0,0,0,868,614Z"/><path class="cls-3" d="M1140.72,926.93c-4-.45-9.48-1.14-15-1.71a7.13,7.13,0,0,0-7.13,3.77,57.59,57.59,0,0,0-2.86,6.68c-3.18,7.4-6.49,9.1-14.47,6.93-4.48-1.22-9-2.14-13.57-1.66-10.42,1.09-11-6.05-9-14.11,1.39-5.62,5.13-10.52,7.08-15.82,1.76-4.76,5.61-8.84,5.38-14.49-.08-2,1.74-4,2.68-6.08,3.37-7.18,6.77-14.34,10.07-21.54a41.22,41.22,0,0,0,3.33-9.07c1-5.08,4.64-9.15,8.23-13,2.33-2.5,3.93-1.43,5.4.71a6.79,6.79,0,0,1,1.14,3.15c.48,6.79,3.49,12.89,6.92,18.27,5.09,8,3,15.08-.72,22.13-2.15,4-.7,4.43,2.73,4.81,4.81.54,9.65,1.19,13.48,4.71.54.51,1.42.44,1.64,1.53,1,4.64,3.64,8.57,5.44,12.86C1154.77,922.81,1151.48,926.83,1140.72,926.93Z"/><path class="cls-2" d="M1021.66,181.14a65.11,65.11,0,0,1,26.86,2.12c10.31,3.26,21,4.77,31.23,8.55,11.24,4.16,21.84,9.7,33.11,13.8,9.8,3.56,19.73,7,29.28,11.34a3.15,3.15,0,0,1,2,3.56c-.16,2.13-1.5,2.68-3.4,2.74-7.94.26-15.64-1.11-23.37-2.77-8.87-1.91-16.65-6.56-25.12-9.3-8.94-2.89-18.21-4.82-27.4-6.85-5.87-1.29-11.86-2-17.79-3a98,98,0,0,0-33.47.2A304.29,304.29,0,0,0,981.84,209c-3.75,1.1-6.4,3.26-9.16,5.33-7,5.27-14,10.1-23.12,11.11-2.54.27-4.95,2-7.88,1.86-6.39-.31-8.89-3.57-6.17-9.39,3.68-7.88,10.07-13.42,17.86-16.91,10.65-4.77,21.36-9.55,32.43-13.18C997.51,184,1009.2,179,1021.66,181.14Z"/><path class="cls-2" d="M698.29,729c7.48-1.45,13.74,2.14,20.29,4.06,2.21.65,2.75,2.95,2.7,5.36-.14,6,.35,12-.11,18-.82,10.65,3.19,20.34,5.64,30.28,2.29,9.31,4.13,18.74,6.58,28,1.92,7.23,4.09,14.42,6.17,21.63.74,2.58,1.1,4.84-1.37,6-2.24,1-3.27-1.28-4.74-2.84-4.93-5.23-8.85-11.17-12.75-17.12-5.76-8.81-12.58-17.28-15.26-27.54-1.83-7-3.41-14.2-4.67-21.4-.95-5.42-2.45-10.86-6.25-15.14-7.16-8.05-7.55-14.52-1.22-23.38a23.24,23.24,0,0,0,1.59-3.32,20.47,20.47,0,0,0-3.86,1.64c-3.68,2.7-4.64.87-5.12-2.68-1.28-9.46,3.53-17,7.78-24.65,2.24-4,15.77-6.35,19.42-4.05,3.06,1.92,6.12,12.85,4.93,17.66a13.19,13.19,0,0,0-.81,2.75c0,6.55-1,7.08-7.63,5.25C705.88,726.42,701.67,723.16,698.29,729Z"/><path class="cls-2" d="M782.36,878.09c-4.54-5.05-6.66-11.26-9.34-17q-8.31-17.75-15.54-36a231.42,231.42,0,0,1-9.76-28.55c-1.43-5.6-4.27-10.82-6.22-16.3-4.41-12.43-6.2-25.47-8.45-38.38-1.21-6.94,1.44-13,6.12-14.62s9.41,0,14,1c1.58.36,3.12,1.41,4.65,1.37,4.42-.12,5.18,2.75,5.36,6.08.39,7.26.3,14.52.8,21.8.78,11.53,3.79,22.59,5.56,33.89,2.5,15.88,5.69,31.65,8.68,47.45a315.94,315.94,0,0,1,4.93,34.89C783.27,875,783.63,876.38,782.36,878.09Z"/><path class="cls-2" d="M949.16,677.34c-.49,2.55,1.46,4.59,2.54,6.09,4.38,6.09,6.56,13.65,12.34,18.71,2.33,2,3.32,4.88,5,7.27,3.79,5.47,9.82,8,14.58,12.16,10.22,8.93,21.87,16,33.13,23.49,2.83,1.89,4.9,4.69,7.41,7,5.26,4.8,12.08,7,17.31,11.77,8.43,7.63,17.13,15,25.46,22.71,1.52,1.42,3.65,3.75,1.7,6.55s-4.3,2.09-7,1.15c-6.49-2.26-10.86-7.55-16.08-11.47-9.55-7.15-19.45-13.75-29.27-20.47-8.06-5.52-16.62-10.35-24.36-16.28a105.68,105.68,0,0,1-15.68-15.26c-6.51-7.59-13.14-15.08-19.38-22.93-4.69-5.89-9.29-11.83-13.72-17.92-9.72-13.38-19.49-26.73-29.11-40.19-3.31-4.63-6.1-9.64-9.38-14.3-1.92-2.74-1.56-5.95-2.34-8.89-1.16-4.43-4.87-7.17-6.41-11.24-1.06-2.81-1.38-5.7,1.72-7.16s5.71.4,7.11,3c8.84,16,20.77,30.06,29.9,45.86,3.34,5.79,7.49,10.81,11.42,16.07l0,0c.41.95.23,2.5,2.06,2l0,0c-.73,1,.26,1.27.8,1.72A3.7,3.7,0,0,1,949.16,677.34Z"/><path class="cls-2" d="M930.14,502.81c4.75-1.47,10.48.74,16,2.33,4,1.18,7,5.17,9.1,9.09,7,13.22,6,26.59-.43,39.57-3.74,7.53-11.45,9.7-19.38,8.88-8.67-.9-17.22-4.26-26.26-1.76-2.51.69-5.08-.63-4.53-4.81,1.9-14.29,3.44-28.63,4.25-43,.38-6.74,4-9.94,11-10.23C922.86,502.71,925.86,502.81,930.14,502.81Z"/><path class="cls-2" d="M1070.8,653.63c-1.35-16-1.16-32.15-1-48.23.1-8-.6-15.69-3.77-23.17a6.37,6.37,0,0,1,1-7c2-2,4-1.16,6.38-.85,5.55.72,11.18,1.14,16.74-.21,3.32-.81,6.15-.33,8,2.9,2,3.41-.41,5.4-2.67,6.8-2.06,1.28-1.29,2.86-1.29,4.3-.09,16.65-.16,33.3,0,50,0,4.82-1.09,9.43-1.59,14.14-.59,5.53,1.71,10.91,1.82,16.39.11,5.29,3.88,9.8,2,15.66-2.31,7.09-8.87,9.77-14.31,4.47-6.87-6.67-10.94-14.88-11.27-24.64C1070.7,660.63,1070.8,657.13,1070.8,653.63Z"/><path class="cls-2" d="M1013.79,607c-.72-8.05.9-18.16-.72-28.27-.53-3.33,2.78-4.18,5.66-3.81,9.89,1.26,19.75,2.69,29.64,4,2.53.33,2.93,2,2.67,3.92-.67,5-1.54,10-2.29,15-1.61,10.81-3.32,21.59-4.68,32.44-1.09,8.77-.78,17.51-.85,26.27,0,4-1.64,5.77-5.66,5.64a126.26,126.26,0,0,0-13.48,0c-3.73.28-5.28-1.36-6.33-4.65-2.52-7.85-3.25-16-3.83-24.09S1013.79,617.15,1013.79,607Z"/><path class="cls-2" d="M1011.24,536.42c-.24,6.94-.83,12.47-2.59,18.1-2.69,8.62-8.89,12-16.7,13.57a86.27,86.27,0,0,1-24.8,1.07c-4.08-.34-5-2.5-4.79-6.54.64-10.16,4-19.92,3.67-30.27-.23-6.49,1.22-13,1.78-19.56.19-2.3,2-2.58,3.43-2.86a79.29,79.29,0,0,1,28-.14c7.33,1.18,10.09,6.31,10.7,12.56C1010.39,527.42,1012,532.44,1011.24,536.42Z"/><path class="cls-2" d="M1037.68,569.1c-6.35,0-12.19.1-18,0-4.34-.1-6.69-3-5.69-7.19,1.72-7.2,2.11-14.59,2.65-21.88.59-8,1.67-16,2.2-24,.16-2.5,1.55-4.12,4-4.13,8.55,0,16.6-3.35,25.24-3.36,7.51,0,11.09,2.33,12.12,10,.71,5.3,2.9,10.57,2.71,15.79-.3,8.21-1,16.61-5.51,24-1.2,1.94-2.45,3.85-3.71,5.75C1049.6,570.19,1043.28,569.35,1037.68,569.1Z"/><path class="cls-2" d="M956.07,227.45c3.1-2.07,6.74-2.67,10.09-3.38,13.78-2.92,27.48-6.13,41.07-9.87,11.16-3.07,21.79-1.92,32.35,3.34,13.43,6.71,28.15,11.05,40.65,19.37,8.65,5.76,19.52,8.59,25.69,17.91a92.27,92.27,0,0,0,10.39,13.23c1.25,1.31,1,2.73.21,4s-1.76.72-3,.48c-8.54-1.65-14.94-7.11-21.61-12-7.77-5.68-16-10.67-24.07-15.82-9.79-6.23-20.54-8.9-32.22-9.77-8.85-.66-17.08.89-25.65,1.89a95.81,95.81,0,0,1-29.13-.93c-6.68-1.27-13.17-3-19.69-4.8A7.27,7.27,0,0,1,956.07,227.45Z"/><path class="cls-2" d="M1070.83,539.67c-.58-6.48.88-14.12-.92-21.7-.84-3.53,1.85-5.79,4.55-6.74,12.56-4.41,23.89-2.43,34.6,6,7.77,6.11,7.77,14.67,8.85,22.74.65,4.9,2.28,9.86-.05,15.43-2.62,6.28-7.57,9.13-12.35,12.72-3.53,2.66-6.91,2.94-11.18,1.41a169.44,169.44,0,0,0-18.8-5c-3.54-.81-4.88-2.68-4.76-6.26C1071,552.44,1070.83,546.6,1070.83,539.67Z"/><path class="cls-3" d="M735.08,910.62c-.41,7.08.94,15.49-1.89,23.73-1.78,5.19-5.27,8.22-10.78,8.59-5.89.38-11.37-1.43-16.67-3.28-4.62-1.61-3.74-6.76-4.22-10.6-1.46-11.78.26-23.46,1.46-35.16.7-6.77-.56-13.34-2.36-19.88a17.15,17.15,0,0,1,2.26-14.94c2.66-3.93,4.71-2,6.2.27a48.22,48.22,0,0,0,5.73,6.74c2.46,2.59,4.92,5,6.42,8.52,1.31,3.06,3.76,5.47,6.88,7.69,3.63,2.6,7.68,6.54,7.06,12.59C734.69,899.67,735.08,904.54,735.08,910.62Z"/><path class="cls-2" d="M965.85,627.73a234.57,234.57,0,0,1-2-41.46c.08-1.79-1.13-3-1.78-4.54-.91-2.11,0-4,1.21-5.49s2.78-.75,4.42-.29c7.49,2.14,14.32,6.17,22.19,7.3,5.5.78,5.77,5.62,5.05,9.51-1.27,6.81-.66,13.57-.76,20.34-.19,11.84-.08,23.69-.14,35.54a4.63,4.63,0,0,1-6.56,4.38c-5-2.48-10-5.16-15-7.8-4.79-2.55-7.54-6.23-6.74-12A40.34,40.34,0,0,0,965.85,627.73Z"/><path class="cls-3" d="M817.07,838c-2.65,15.74-2.14,31.62-1.85,47.47.12,6.5,1.87,13-.32,19.42-.39,1.12,0,3.21-1.65,3.45s-2.27-1.56-3-2.77c-3.49-5.78-9.06-9.45-14.12-13.57-4.52-3.68-8.27-7.24-6.14-13.9,1-3.2-.38-6.64-1.29-9.65-3-10-3.53-20.45-5.61-30.61C782,832.4,788.64,826,793.88,827c1.92.34,2.9,2.11,4,3.51a6.4,6.4,0,0,0,9.65.56c1.64-1.66,2.89-4.95,5.76-3.92,3.07,1.1,3.45,4.47,3.76,7.42A34,34,0,0,1,817.07,838Z"/><path class="cls-2" d="M941.06,663.4c-.21-.5-.41-1-.61-1.49.62-1.82,1.91-2,3.49-1.4,5,3.76,9.9,7.72,15.08,11.23,9.2,6.21,19.21,11,29.15,15.93,6.73,3.31,12.77,7.88,20.06,10.24,19.31,6.24,37.2,16.32,57,21.29,4.72,1.19,9.35,2.35,13.72,4.52,1.41.7,2.87,1.62,3,3,.2,1.94-2,1.69-3.2,2.44-3.54,2.34-7.8,1.22-11.54,1.53-8.19.69-16.45,1.2-24.75-2-14.23-5.55-27.6-12.7-41.12-19.66-9.88-5.09-19.68-10.54-29.74-15a63.18,63.18,0,0,1-22.43-16.65,3.7,3.7,0,0,0-.36-.68c0-.71,0-1.38-.8-1.72l0,0c-.42-1-.17-2.57-2.06-2l0,0c0-3.84-3.11-6-4.64-9.09,0,0,.09-.41.09-.41Z"/><path class="cls-2" d="M1137.93,506.12c-12.11.07-12.11.07-12.12-12,0-9.31-.61-18.67.1-27.93,1.16-15.19,1.35-30.43,3.54-45.61a191.4,191.4,0,0,1,5.48-27.23c.49-1.64.67-3.76,3.3-3.42,2.25.3,3.16,1.71,4,3.77,4.23,11,1.54,22.14,1.21,33.29-.32,10.89-.74,21.81.45,32.76.82,7.48,1.83,15,2.12,22.5.24,6.28,2,12.27,2.27,18.51.16,4.13-.63,6.34-5.32,5.45A26.67,26.67,0,0,0,1137.93,506.12Z"/><path class="cls-2" d="M1152.9,512.5c5.64,1.82,7.47,7.27,8.54,11.69,1.25,5.14,2.33,10.85,1,16.4-.79,3.17,0,6.43-1.08,9.71-1.93,5.58-5.06,9.16-11,10.32-7.4,1.42-14.76,2.82-22.36,2.61-3.65-.11-4.65-2-4.74-5.19-.21-7-.35-14-1-20.95-.66-7.47-.16-14.93-.36-22.38-.06-2.44,2.09-1.53,3.19-2.21A212.45,212.45,0,0,0,1152.9,512.5Z"/><path class="cls-3" d="M525.69,825.91c6.74-1.94,12.13,1.85,17.33,7.18,3.39,3.47,8,5.66,11.28,9.43,2.44,2.79,4.39,5.62,3.88,9.6-.48,3.73-.63,7.51-1.1,11.24-.3,2.34-2.22,4.42-4.07,4.4-5.32,0-9.18,3.13-13.56,5.14a10.75,10.75,0,0,1-9.87-.1c-8.12-4.07-14.26-10.37-19.43-17.63-3.44-4.83-2.06-10.46-1.61-15.79.11-1.22.5-2.52.6-3.83.5-6.44,4-9.61,10.45-9.64Z"/><path class="cls-3" d="M975.84,824.87c2.5,0,5,0,7.49,0,6.24,0,10.58,4.89,9.68,11.26a145.84,145.84,0,0,0-1,20.78c0,11.09-1.75,22.12-1,33.23.12,1.9-.52,3.44-2.08,4.13s-2.31-1.11-3-2c-7-9.65-15.32-18.35-20-29.56-1.92-4.55-5-8.62-6.77-13.2-2.38-6.09-3.88-12.45-.49-18.83,2.08-3.92,4.76-6.54,9.71-5.86A58.27,58.27,0,0,0,975.84,824.87Z"/><path class="cls-3" d="M505,924.67c-1.28-6.86,1.83-11.84,9.6-14.93a21,21,0,0,0,10.51-8.84c4.51-7.65,8.77-7.93,15.72-5.56,4.79,1.64,9.08,4.71,13.77,6.84,3.42,1.55,5.28,8.21,3.18,12.38A44.57,44.57,0,0,1,533,937.09c-5.26,2-10.78,2-16.1,3.48-7.46,2.13-10.88-2.35-11.85-9.23A54.46,54.46,0,0,1,505,924.67Z"/><path class="cls-2" d="M776.89,756a8.27,8.27,0,0,0,0-2c-1.11-4.28-1.79-8.43,2.88-11.2,6.62-4,12.63-3.25,19.54.5,7.74,4.19,6.09,10.2,6,16.67-.26,19.3-.1,38.61-.08,57.91,0,2.73.4,6.75-1.89,7.38-3.1.85-3.92-3.25-5.19-5.6a267.86,267.86,0,0,1-17-39.72c-2.62-7.58-3.1-15.91-4.55-23.89Z"/><path class="cls-2" d="M903.81,591.24c0-6-.09-12.09,0-18.12.1-5.73,2.34-7.74,7.52-6,3.31,1.09,6.92,1.42,9.91,3.74,3.24,2.51,8,1.37,11.33,3.94,2.88,2.19,6.09,3.9,8.75,6.44,4.81,4.59,4.09,10.5,2.54,15.56-1.35,4.39-1.4,9-3,13.25-2.14,5.75-6.76,8.72-12.86,7.07-7.39-2-14-5.86-20.77-9.32a6.22,6.22,0,0,1-3.51-6.55A97.46,97.46,0,0,0,903.81,591.24Z"/><path class="cls-3" d="M1243.15,942.94c-10.4,2-18.63-4.79-25.82-12.41-4.31-4.58-6.26-11.14-8.36-17.24-.81-2.33,1.29-3.84,2.15-5.19,2.39-3.75,4.7-8.55,10.68-7.23,6.5,1.42,13.3.61,19.69,3,2.78,1,4.59,2.41,4.46,5.48-.14,3.27,1.64,5.2,4,7.17,6.3,5.26,10.51,13,6.22,21.65-1.59,3.21-2.68,5.36-6.57,4.81A54.06,54.06,0,0,0,1243.15,942.94Z"/><path class="cls-2" d="M1115.28,620.85c1.54-13.51,2.89-27,4.71-40.51.54-4.05,2.26-7.73,8-6.59,5.09,1,10.15-.72,15.22-1.19s7.4,1.92,6.36,6.86c-1.7,8-5.52,15.25-8.51,22.77-4.56,11.46-9.18,22.93-14.88,33.91-1.13,2.17-2.84,4.52-4.67,4.46-2.06-.06-3.46-2.79-4.38-4.95C1115.07,630.86,1116,625.83,1115.28,620.85Z"/><path class="cls-3" d="M1380,844.58a60.07,60.07,0,0,1-1.88,17.75,15.9,15.9,0,0,0,.29,7.37c.63,2.75-.72,4.47-2.51,5.66s-2.79-.87-4.21-1.72c-6.71-4-12.31-9.54-18.9-13.69-4.62-2.91-6.63-7.15-7-12.63-.3-4.41-1.11-8.78-.91-13.25.26-5.75,4.75-10.25,10.15-9s10.51.52,15.75.74c6.44.26,9,2.52,9.2,9C1380.07,837.66,1380,840.49,1380,844.58Z"/><path class="cls-2" d="M1039.8,683.26c-9.72,2-19.74-4-30.19-7.88-6.54-2.45-12.89-5.4-19.31-8.15-13.4-5.73-25.55-13.65-37.51-21.82a130.67,130.67,0,0,1-15.24-12.34c-2.36-2.21-6.71-1.59-7.53-6.07-.43-2.3-3.45-4.43-.84-6.82s6.06-1.89,9.18-.52c4.14,1.8,6.4,5.73,8.89,9,10.55,14,24.39,23.17,40.59,28.94,2.72,1,2.67,4,5.6,4.45,14.73,2.2,29,6.81,44.19,7,5.87.09,12.16-.42,18,1.7,3.66,1.32,5.3,3.71,4.71,7.65-.33,2.2-1.09,3.25-3.58,3.82C1051.83,683.37,1046.92,683,1039.8,683.26Z"/><path class="cls-3" d="M980.53,941c-5-.84-9.73,2.46-15.16,2-7-.56-10.8-3.71-10.31-10.38.88-11.89.94-23.79.89-35.7,0-2.17-.19-4.88,1.81-5.72,2.44-1,3.23,1.81,4.65,3.35,6,6.44,10.34,14.28,17,20.17,3,2.62,5.8,5.36,8.9,7.79,4.49,3.52,6.3,10.8,3.65,15.63C991.12,939.65,986,941,980.53,941Z"/><path class="cls-3" d="M1341.87,926.94c-.16-7.62,2.09-15.15,1-22.81-.32-2.26,1.9-3.17,2.59-4.89a9.34,9.34,0,0,1,3.7,2.33c5.92,6.84,13.55,11.66,20.88,16.67,8.81,6,10.47,9.32,8,18-1.28,4.54-4.68,5.28-8,5.61-5.71.58-11.47.32-17.24,1-9.51,1.14-9-1.67-10.94-10.42C1341.53,930.68,1341.87,928.77,1341.87,926.94Z"/><path class="cls-3" d="M1263.89,841.06c0-2,0-4,0-6,0-3.12.09-6.26,3.37-7.85,4.7-2.28,10-4.1,13.69.85,2.43,3.26,4.7,6.64,7.38,9.76,4.3,5,8.14,10.4,12.52,15.33,2.7,3.05,2,5.9.54,8.9-1.32,2.69-2.87,5.11-6.58,4.92-4-.2-8,.1-12-.06-3.76-.16-7-1.56-8.62-5.25-1-2.41-2.75-4.56-4.88-5.37-4.82-1.85-5.77-5.28-5.45-9.74C1264,844.73,1263.9,842.89,1263.89,841.06Z"/><path class="cls-3" d="M865.09,844.51c-.27,4.07.27,8.11-.89,12.21-.9,3.19-2.41,4.2-5.48,4.32-6.07.25-12.14-.69-18.23.74-3,.71-4.43-2-5.52-4.55-4-9.36-3.46-18.52,1.12-27.5.83-1.63,2.15-3.48,4.18-2.76,5.32,1.9,10.19-.38,15.23-1.08,4.82-.67,9.26,4.21,9.57,10.65C865.2,839.19,865.09,841.85,865.09,844.51Z"/><path class="cls-2" d="M721.86,476.33c0,6.36-3.67,10.18-6.76,14-6.38,7.95-13.74,15.05-20,23.11s-12.9,15.91-19.51,23.73c-7.83,9.26-15.86,18.35-23.7,27.6-8.86,10.45-17.13,21.39-26.52,31.39-.88.93-1.63,3.06-3.3,2.1s-3.26-2.38-2.93-4.8a6.89,6.89,0,0,1,.63-2.85c7.31-12.5,12.58-26,19.46-38.76,6.2-11.51,11.56-23.52,16.95-35.48,3.5-7.74,7.51-15.23,10.3-23.3,4.36-12.63,9-25.18,13.37-37.8,2.4-6.87,3-7.25,9.87-5.69,1.43.33,3,0,4.44.32,10.36,2.57,18.17,8.73,24.68,17C721.31,470.18,720.47,474,721.86,476.33Zm-2.51-.18a11.85,11.85,0,0,0-2.69-7.93c-6.15-8.07-14.21-13.46-24.27-15.22-7.39-1.3-8.83-.19-11.3,6.88-7.71,22.12-15.19,44.27-25.84,65.3-11,21.73-20.88,44-32.44,65.5-.64,1.19-1.74,2.64-.49,3.56s2.28-.63,3.09-1.62c4.4-5.37,8.74-10.8,13.19-16.13,12.43-14.91,24.82-29.85,37.4-44.64,12.91-15.18,26.07-30.17,39-45.33A16.67,16.67,0,0,0,719.35,476.15Z"/><path class="cls-2" d="M574.84,553c-4.14,4-2.66,6.54-.36,9.49,5.18,6.63,10.1,13.46,14.92,20.36,5,7.19,13,7.07,20.19,7.54,3.9.24,4.77-5.27,6.27-8.26,10.09-20.14,19.72-40.5,29.41-60.83,7.4-15.53,14.54-31.18,20.2-47.45.37-1.06,1.21-2.06,0-3.82l-90.64,83.51c-.46-5.42,3.26-6.61,5.19-8.29,7.37-6.42,13.55-14,21.17-20.21,6.93-5.62,12.83-12.48,19.62-18.3,10.27-8.8,20-18.21,30.2-27.08,4.94-4.3,8.88-9.61,14.28-13.38,1.45-1,2.75-2.69,4.68-1.72,2.34,1.16.5,3.09.12,4.35a229.11,229.11,0,0,1-14.19,36.21c-6.57,13.18-12.33,26.75-18.66,40.05-3.69,7.75-7.85,15.27-11.71,22.94-3.17,6.3-6.48,12.56-9.24,19.05-2.56,6-3.72,7-10.06,5.92-3.07-.52-6.14-1-9.2-1.5-7.06-1.18-9.78-7.54-13.7-12.13-5.26-6.17-9.54-13.18-14.24-19.83C567,556.68,568.53,554.44,574.84,553Z"/><path class="cls-3" d="M1384.88,843.78c-.38-3.18,0-7-.29-10.78-.29-3.36,2.1-5.78,5.65-6,6.44-.49,12.76,1.6,19.25,1.06,1.76-.15,3,1.38,3.41,3.07,2.06,8.67,2.25,17.15-2.6,25.14-2.15,3.55-4.36,6.07-9.24,4.9-3-.73-6.3-.28-9.45-.09-4.84.28-6.38-2.7-6.68-6.67C1384.67,851.05,1384.88,847.7,1384.88,843.78Z"/><path class="cls-2" d="M1187.5,541.92a4,4,0,0,1-3.33,4.18,87.13,87.13,0,0,1-9,2c-3.35.52-5.91-.53-7.47-4-1.79-3.92-3.4-7.76-3-12.19a26.53,26.53,0,0,0-1.56-11.59c-3.28-9.1,7.69-18.27,15.51-16.43,5.92,1.39,6.13,7.41,8.41,11.69a5.55,5.55,0,0,1,.35,1.43A164.91,164.91,0,0,0,1187.5,541.92Z"/><path class="cls-2" d="M658.26,631.06c-6.87-2.09-13.6-4.3-19.45-9-5.37-4.32-8-10.6-12.62-15.45a5.06,5.06,0,0,1,0-7.19c8.87-9.61,16.4-20.33,25.5-29.78,7.25-7.53,13.4-16.11,20-24.23,5.7-7,11.31-14,17.11-20.87,4.61-5.46,9.44-10.75,14.21-16.08a31.28,31.28,0,0,1,2.86-2.78,2.28,2.28,0,0,1,3.17-.06c.86.7.94,1.44.45,2.59-2.74,6.4-4.57,13.12-7.63,19.46-3.15,6.52-4.6,13.75-7.5,20.51q-12.31,28.68-23.2,58c-2.6,7-5.37,13.94-8.17,20.86C662.2,629.08,661.63,631.65,658.26,631.06ZM705,512.46c-2.1-.5-2.5,1-3.3,2q-17.94,21.19-35.87,42.4-18.16,21.48-36.34,42.95c-1.46,1.73-2.1,3.4-.73,5.39,6.65,9.7,14.09,18.42,25.9,22.23,3.36,1.09,5,.78,6.34-2.82,4.1-10.85,8.61-21.53,13-32.28q5.42-13.32,10.79-26.68c4.06-10.13,7.78-20.41,11.75-30.59C699.37,527.59,703,520.36,705,512.46Z"/><path class="cls-3" d="M908,843.79c0-2.16,0-4.33,0-6.49-.06-4-.51-8.39,4-10.24,5.21-2.13,12.47.28,14.86,5.26,2.7,5.63,6.61,10.71,8,17A9.45,9.45,0,0,1,925.59,861c-3.5,0-7,0-10.49,0-4.91,0-7-2.14-7.14-7.21-.05-1.66,0-3.33,0-5S908,845.46,908,843.79Z"/><path class="cls-2" d="M664.1,434c5.39,2.9,9.48,7.18,13,12.1,1.29,1.8.59,2.79-.69,4.17-3.94,4.28-9,7.05-13.56,10.52-8.44,6.44-15.83,14.16-22.94,21.82-12.23,13.21-26.74,24-38.31,38A95.38,95.38,0,0,1,588,533.5c-.53-.26-.74,0-.86.5l-.13.11c-2.26.23-3-1.22-3.41-3.06.6-4.34,3.37-7.75,5.19-11.53,7-14.57,14.56-28.88,21.58-43.45s14.09-29,21.07-43.53A37,37,0,0,1,642.08,419l0,0c6.45-1.71,9.73,2.67,13.13,6.83-.22.24-.45.48-.68.71-1.3-.72-2.65-1.39-3.9-2.18-4.68-3-11.38-1.35-13.9,3.59-5.12,10.05-10.32,20.08-15.09,30.3-9,19.26-18.51,38.26-28.05,57.24-1.74,3.45-3.82,6.91-4.13,11,2,.53,2.57-.94,3.45-1.8,7.79-7.67,15.31-15.62,23.35-23,18.6-17.11,35.08-36.54,56-51.06,3.2-2.22,2.67-4,.56-6.38-3-3.34-6.84-5.84-9.15-9.79Z"/><path class="cls-2" d="M914.6,702.75c6.28,6.39,9.34,14.18,13.54,21.24,2.59,4.36,3.07,9.11,3.1,14.12,0,5.92,1.47,11.79,1,17.77-.08,1,.36,2.27-.12,2.94-1.7,2.4-2.17,6.39-6.15,6.21-3.66-.16-4.33-3.26-5.14-6.22-1.61-5.92-4.07-11.54-5.26-17.67-1.14-5.87-.21-11.75-1.45-17.62-.79-3.72-1.71-7.68-1.34-11.72C913,708.88,913,706,914.6,702.75Z"/><path class="cls-2" d="M805.12,735.49c.4,4.35-1.09,7.07-5,5-7.08-3.7-13.85-2.41-20.68,0-3.06,1.09-4.23.33-4.66-2.79s-1.44-6.33-1.89-9.54c-.24-1.71-.5-3.6,1.15-5.08,4.24-3.81,9.36-5.81,14.72-7.33a3.72,3.72,0,0,1,3.61,1.19c4.07,4.89,8.82,9.22,12.14,14.74C805.4,733.19,805,734.62,805.12,735.49Z"/><path class="cls-2" d="M763.21,719.44c0,8-.91,9-7.54,6.55-6.93-2.56-13.34-1.42-19.78,1.24-5.24,2.16-6.66,1.29-6.9-4.38-.39-8.84,2.83-12,11.75-15.34,6.39-2.42,11-1.19,16.43,2.07C761.57,712.21,763.91,715.1,763.21,719.44Z"/><path class="cls-2" d="M966.81,659.24c9,2.12,16.4,6.77,24.2,10.6,4.22,2.06,5.79,12.06,2.84,15.91-.94,1.23-1.76,1.29-3.34.72-7.54-2.69-14.1-7.18-20.84-11.25-3.73-2.25-1.1-7.12-2.74-10.54C966.22,663.21,966.81,661.13,966.81,659.24Z"/><path class="cls-2" d="M935.2,653.26c-8.46-9.63-13.75-21.38-21.21-31.69-1.39-1.93-4.67-4.47-1.94-7,2.32-2.17,5.05-.31,7.69,1.33,5.48,3.41,7,8.46,8.78,14.26,2.31,7.58,6.51,14.58,9.9,21.83Z"/><path class="cls-2" d="M1043.16,697.2c0,1.5,0,3,0,4.49,0,2.41.51,5.31-2.38,6.31-2.69.93-5.11-1.29-6.26-3a35.8,35.8,0,0,1-5.62-16.92,2.39,2.39,0,0,1,.44-1.83c3.4-2.51,7.36-1.73,11-1.15,2.55.41,3,3.09,2.87,5.62C1043,692.87,1043.16,695,1043.16,697.2Z"/><path class="cls-2" d="M581.26,467.52c.6,1.37-.3,2.24-1.15,3-11,9.57-22.07,19-33,28.7-4.32,3.82-8.32,8-12.36,12.12-1.67,1.7-1.09,3.59.05,5.45,4.51,7.35,8.82,14.82,15.32,20.71,1.27,1.15,3.16,2,3.12,4.24l-.12.22c-5-1.59-7.87-6-11-9.59-3.82-4.39-6.72-9.62-9.69-14.67-2-3.44-2.36-6.6,2.16-9,4.1-2.2,5.13-7.32,9.07-10.3a367,367,0,0,0,34-29.55c.94-.91,1.7-2.11,3.29-1.89A1.28,1.28,0,0,1,581.26,467.52Z"/><path class="cls-2" d="M995.12,715.83c-.21,5.46-2.41,6.85-6.54,4.21-5-3.21-10-6.45-12-12.67-.8-2.47-1.5-4.9.34-6.88,2-2.16,3.46.45,5.07,1.22,2.77,1.33,5.56,2.61,8.23,4.12C994.2,708.1,994.27,712.36,995.12,715.83Z"/><path class="cls-3" d="M1340.92,839a16.49,16.49,0,0,1,0,2.22c-.34,1.85,1.1,4.73-.84,5.3-1.31.38-3.75-1.63-5.1-3.1-3.2-3.47-6-7.31-9.08-10.91-.86-1-1.45-2-.77-3.09,1.89-2.9,5-3.3,8.14-3.53,2.75-.2,4.7.51,5.75,3.42C1340.24,832.7,1341.7,836,1340.92,839Z"/><path class="cls-2" d="M585.87,505.55c.14-6,4.5-10.16,7.08-15,8.77-16.36,18.14-32.41,27.31-48.56.78-1.38,1.2-3.21,4.66-3.48-13.48,22.78-24.28,46.17-38.7,67.55A1.12,1.12,0,0,1,585.87,505.55Z"/><path class="cls-2" d="M577.23,522.21c.42,3.21-1.88,5.95-3.32,7.78-4.07,5.2-6,11.45-9.66,16.8-2.31,3.36-4.19,2.42-6.25.7a46.2,46.2,0,0,1-4.86-5.55l.12-.22c3.28-.37,5.44,4.91,8.37,2.67,3.16-2.41,4.43-6.78,6.6-10.24,2.63-4.19,3.78-9.43,8.34-12.31A1.15,1.15,0,0,1,577.23,522.21Z"/><path class="cls-2" d="M607.87,443.58a90.33,90.33,0,0,1,17.75-15.89c2.48-1.76,3.3,0,3.52,2,.44,3.93-2.24,6.08-4.77,8.61-1.89-2.92,2.49-4.25.74-6.88-6.55,3-9.94,10.12-16.67,12.79A1.45,1.45,0,0,1,607.87,443.58Z"/><path class="cls-2" d="M592,457.84c2.18-5.69,8.09-7.65,11.86-11.77,1-1.13,2.68-1.67,4-2.49a1.45,1.45,0,0,0,.57.63,62.21,62.21,0,0,1-16,14.06A1.6,1.6,0,0,1,592,457.84Z"/><path class="cls-2" d="M586.22,506.08c-2.45,5.68-4.37,11.66-9,16.12a1.2,1.2,0,0,0-.66-.36,31.49,31.49,0,0,1,9.3-16.29A1.12,1.12,0,0,0,586.22,506.08Z"/><path class="cls-3" d="M935.2,653.26l3.22-1.28c1,3.41,3.71,5.68,5.52,8.54-1.58-.58-2.87-.43-3.49,1.39C938.64,659.06,938,655.53,935.2,653.26Z"/><path class="cls-2" d="M592.43,458.27c-2.7,4.31-6.17,7.7-11.17,9.25a1.28,1.28,0,0,0-.29-.61c3.48-3.24,5.41-8.37,11-9.07A1.6,1.6,0,0,0,592.43,458.27Z"/><path class="cls-3" d="M1152.9,512.5a212.45,212.45,0,0,1-27.87,0A148.28,148.28,0,0,1,1152.9,512.5Z"/><path class="cls-3" d="M1187.5,541.92a164.91,164.91,0,0,1,0-24.85A125.06,125.06,0,0,1,1187.5,541.92Z"/><path class="cls-3" d="M785.52,596.06a90,90,0,0,1,0,18.85A70.82,70.82,0,0,1,785.52,596.06Z"/><path class="cls-2" d="M655.17,425.88c3.35.84,4.94,3.71,7,6.07l-.56.6c-3.3-.87-5.08-3.55-7.09-6C654.72,426.36,655,426.12,655.17,425.88Z"/><path class="cls-3" d="M583.64,531.05c.4,1.84,1.15,3.29,3.41,3.06-.72,1.91-2.65,2-4.39,3C581.38,534.72,582.53,532.89,583.64,531.05Z"/><path class="cls-3" d="M948.53,474c-.41-4.79-1.29-9.6.47-14.31C948.76,464.41,949.69,469.21,948.53,474Z"/><path class="cls-3" d="M779,217.53a55,55,0,0,1-14.83,0A45.28,45.28,0,0,1,779,217.53Z"/><path class="cls-2" d="M662.14,432c1.41-.05,2,.65,2,2l-.45.45a2.94,2.94,0,0,1-2.07-1.89Z"/><path class="cls-3" d="M587.18,534c.12-.45.33-.76.86-.5Z"/><path class="cls-3" d="M941.06,663.4l.41.09s-.08.41-.09.41A.56.56,0,0,1,941.06,663.4Z"/><path class="cls-1" d="M893,213.09c-.37-.94.11-1.65.63-2.57.28,1.13.3,2-.65,2.55Z"/><path class="cls-1" d="M675,395.71c-8.55,1.15-16.75-1.8-25.15-3a79.92,79.92,0,0,1-21.38-6.51c-3.9-1.76-4.95-4.61-6.09-7.82-1.73-4.85-3.17-9.77-5.36-14.5a33.2,33.2,0,0,1-2.59-12.31c-.3-7.53-1.6-15.53,2.1-22.38a114.26,114.26,0,0,1,11-16.9c11.12-14,26.83-18.54,43.32-20.58,5.61-.69,11.78,1.75,17.33,4.2,4.72,2.09,9.73,3.65,14.18,6.2,11.17,6.41,19.45,15.43,21.42,28.62,2.33,15.52,1.09,30.66-6.16,45-4.21,8.33-11.1,13-19.47,16.17C690.69,394.75,683.11,396.5,675,395.71Z"/><path class="cls-1" d="M946,673c1.89-.54,1.64,1.08,2.06,2C946.21,675.46,946.39,673.91,946,673Z"/><path class="cls-1" d="M948,674.94c.77.34.84,1,.8,1.72C948.26,676.21,947.27,676,948,674.94Z"/><path class="cls-1" d="M719.35,476.15A16.67,16.67,0,0,1,715,486.52c-12.94,15.16-26.1,30.15-39,45.33-12.58,14.79-25,29.73-37.4,44.64-4.45,5.33-8.79,10.76-13.19,16.13-.81,1-1.75,2.62-3.09,1.62s-.15-2.37.49-3.56c11.56-21.47,21.44-43.77,32.44-65.5,10.65-21,18.13-43.18,25.84-65.3,2.47-7.07,3.91-8.18,11.3-6.88,10.06,1.76,18.12,7.15,24.27,15.22A11.85,11.85,0,0,1,719.35,476.15Z"/><path class="cls-1" d="M705,512.46c-1.93,7.9-5.58,15.13-8.48,22.58-4,10.18-7.69,20.46-11.75,30.59q-5.36,13.35-10.79,26.68c-4.37,10.75-8.88,21.43-13,32.28-1.37,3.6-3,3.91-6.34,2.82-11.81-3.81-19.25-12.53-25.9-22.23-1.37-2-.73-3.66.73-5.39q18.21-21.43,36.34-42.95,17.93-21.21,35.87-42.4C702.45,513.5,702.85,512,705,512.46Z"/><path class="cls-1" d="M661.58,432.55a2.94,2.94,0,0,0,2.07,1.89c2.3,4,6.17,6.46,9.14,9.8,2.11,2.36,2.64,4.16-.56,6.38-20.93,14.52-37.41,33.95-56,51.06-8,7.39-15.56,15.34-23.35,23-.88.86-1.49,2.33-3.45,1.8.31-4,2.39-7.5,4.13-11,9.54-19,19.06-38,28.05-57.24,4.77-10.22,10-20.25,15.09-30.3,2.52-4.94,9.22-6.56,13.9-3.59,1.25.79,2.6,1.46,3.9,2.18C656.5,429,658.28,431.68,661.58,432.55Z"/></svg>